NewsreaderCaption-LightItalic.ufo
<glyph name="exclam" format="2">
	<unicode hex="0021"/>
	<advance width="605.04"/>
	<outline>
		<contour>
			<point x="638.48" y="1403.5466666667" type="line" smooth="yes"/>
			<point x="644.72" y="1423.8933333333"/>
			<point x="627.2266666667" y="1433.6266666667"/>
			<point x="574.4533333333" y="1433.6266666667" type="curve" smooth="yes"/>
			<point x="524.68" y="1433.6266666667"/>
			<point x="504.5733333333" y="1423.8933333333"/>
			<point x="498.7066666667" y="1403.5466666667" type="curve" smooth="yes"/>
			<point x="477.7066666667" y="1334.68" type="line" smooth="yes"/>
			<point x="449.9544058885" y="1236.64"/>
			<point x="299.4537960042" y="667.7333333333"/>
			<point x="229.36" y="412.4266666667" type="curve"/>
			<point x="301.88" y="412.4266666667" type="line"/>
			<point x="388.2038415703" y="667.7333333333"/>
			<point x="585.2137539432" y="1236.64"/>
			<point x="617.36" y="1334.68" type="curve" smooth="yes"/>
		</contour>
		<contour>
			<point x="207.1733333333" y="212.7466666667" type="curve" smooth="yes"/>
			<point x="108.1066666667" y="212.7466666667"/>
			<point x="58.52" y="143.5333333333"/>
			<point x="58.52" y="65.96" type="curve" smooth="yes"/>
			<point x="58.52" y="12.6133333333"/>
			<point x="91.2533333333" y="-15.4933333333"/>
			<point x="148.84" y="-15.4933333333" type="curve" smooth="yes"/>
			<point x="247.9066666667" y="-15.4933333333"/>
			<point x="297.4933333333" y="53.72"/>
			<point x="297.4933333333" y="130.92" type="curve" smooth="yes"/>
			<point x="297.4933333333" y="184.64"/>
			<point x="264.76" y="212.7466666667"/>
		</contour>
	</outline>
</glyph>
<glyph name="ampersand" format="2">
	<unicode hex="0026"/>
	<advance width="1544.0133333333"/>
	<outline>
		<contour>
			<point x="1026.8666666667" y="200.3466666667" type="line"/>
			<point x="1147.8666666667" y="321.8533333333"/>
			<point x="1270.76" y="497.92"/>
			<point x="1405.4933333333" y="782.84" type="curve"/>
			<point x="1574.1733333333" y="800.3333333333" type="line"/>
			<point x="1594.1466666667" y="864" type="line"/>
			<point x="1138.3466666667" y="864" type="line"/>
			<point x="1118.3733333333" y="800.3333333333" type="line"/>
			<point x="1290.92" y="782.84" type="line"/>
			<point x="1185.76" y="513.92"/>
			<point x="1083.8533333333" y="361.6666666667"/>
			<point x="980.5866666667" y="253.1466666667" type="curve"/>
			<point x="938.2933333333" y="216.5733333333" type="line"/>
			<point x="820.6933333333" y="110.92"/>
			<point x="702.8933333333" y="67"/>
			<point x="550.5466666667" y="67" type="curve" smooth="yes"/>
			<point x="328.3733333333" y="67"/>
			<point x="227.0933333333" y="172.92"/>
			<point x="227.0933333333" y="348.8" type="curve" smooth="yes"/>
			<point x="227.0933333333" y="510.9866666667"/>
			<point x="300.4133333333" y="629.5333333333"/>
			<point x="613.3733333333" y="737.56" type="curve"/>
			<point x="688.9866666667" y="765.1333333333" type="line"/>
			<point x="1031.2666666667" y="884.4933333333"/>
			<point x="1139.4666666667" y="1012.28"/>
			<point x="1139.4666666667" y="1188.16" type="curve" smooth="yes"/>
			<point x="1139.4666666667" y="1334.16"/>
			<point x="1042.9866666667" y="1434"/>
			<point x="834.4133333333" y="1434" type="curve" smooth="yes"/>
			<point x="567.48" y="1434"/>
			<point x="449.5066666667" y="1295.6266666667"/>
			<point x="449.5066666667" y="1095.6666666667" type="curve" smooth="yes"/>
			<point x="449.5066666667" y="999.44"/>
			<point x="482.2266666667" y="926.7333333333"/>
			<point x="582.7733333333" y="760.16" type="curve" smooth="yes"/>
			<point x="1041.68" y="0" type="line"/>
			<point x="1327.9066666667" y="0" type="line"/>
			<point x="1347.5066666667" y="65.16" type="line"/>
			<point x="1123.0266666667" y="89" type="line"/>
			<point x="669.8533333333" y="838.6933333333" type="line" smooth="yes"/>
			<point x="592.2" y="967.24"/>
			<point x="560.8266666667" y="1048.24"/>
			<point x="560.8266666667" y="1128.9866666667" type="curve" smooth="yes"/>
			<point x="560.8266666667" y="1260.8133333333"/>
			<point x="637.7466666667" y="1353.6266666667"/>
			<point x="815.6533333333" y="1353.6266666667" type="curve" smooth="yes"/>
			<point x="973.48" y="1353.6266666667"/>
			<point x="1036.36" y="1295.2133333333"/>
			<point x="1036.36" y="1179.7866666667" type="curve" smooth="yes"/>
			<point x="1036.36" y="1027.8666666667"/>
			<point x="946.6533333333" y="932.4266666667"/>
			<point x="666.76" y="824.04" type="curve"/>
			<point x="594.2666666667" y="800.5866666667" type="line"/>
			<point x="196.8133333333" y="666.96"/>
			<point x="109.5333333333" y="529.2266666667"/>
			<point x="109.5333333333" y="317.8533333333" type="curve" smooth="yes"/>
			<point x="109.5333333333" y="122.1066666667"/>
			<point x="234.92" y="-20"/>
			<point x="507.1333333333" y="-20" type="curve" smooth="yes"/>
			<point x="675.9333333333" y="-20"/>
			<point x="836.2533333333" y="28.68"/>
			<point x="982.4533333333" y="162.6533333333" type="curve"/>
		</contour>
	</outline>
</glyph>
<glyph name="quotesingle" format="2">
	<unicode hex="0027"/>
	<advance width="403.1466666667"/>
	<outline>
		<contour>
			<point x="299.0266666667" y="970.2133333333" type="line"/>
			<point x="368.9333333333" y="970.2133333333" type="line"/>
			<point x="528.9866666667" y="1388.0266666667" type="line"/>
			<point x="536.8533333333" y="1414" type="line"/>
			<point x="403.4266666667" y="1414" type="line"/>
			<point x="395.56" y="1388.0266666667" type="line"/>
		</contour>
	</outline>
</glyph>
<glyph name="parenleft" format="2">
	<unicode hex="0028"/>
	<advance width="656.1733333333"/>
	<outline>
		<contour>
			<point x="856.2933333333" y="1425.56" type="curve"/>
			<point x="812.4666666667" y="1485.12" type="line"/>
			<point x="238.64" y="1043.3333333333"/>
			<point x="116.3866666667" y="728.4666666667"/>
			<point x="116.3866666667" y="340.3066666667" type="curve" smooth="yes"/>
			<point x="116.3866666667" y="164.2"/>
			<point x="169.3733333333" y="-15.6533333333"/>
			<point x="294.84" y="-242.7466666667" type="curve"/>
			<point x="363.5066666667" y="-201.92" type="line"/>
			<point x="267.12" y="-20.2933333333"/>
			<point x="226.3466666667" y="147.8666666667"/>
			<point x="226.3466666667" y="320.72" type="curve" smooth="yes"/>
			<point x="226.3466666667" y="745.5466666667"/>
			<point x="399.16" y="1065.7866666667"/>
		</contour>
	</outline>
</glyph>
<glyph name="parenright" format="2">
	<unicode hex="0029"/>
	<advance width="656.1733333333"/>
	<outline>
		<contour>
			<point x="-134.8666666667" y="-183.1866666667" type="curve"/>
			<point x="-91.04" y="-242.7466666667" type="line"/>
			<point x="482.7866666667" y="199.04"/>
			<point x="605.04" y="513.9066666667"/>
			<point x="605.04" y="902.0666666667" type="curve" smooth="yes"/>
			<point x="605.04" y="1078.1733333333"/>
			<point x="552.0533333333" y="1258.0266666667"/>
			<point x="426.5866666667" y="1485.12" type="curve"/>
			<point x="357.92" y="1444.2933333333" type="line"/>
			<point x="454.3066666667" y="1262.6666666667"/>
			<point x="495.08" y="1094.5066666667"/>
			<point x="495.08" y="921.6533333333" type="curve" smooth="yes"/>
			<point x="495.08" y="496.8266666667"/>
			<point x="322.2666666667" y="176.5866666667"/>
		</contour>
	</outline>
</glyph>
<glyph name="asterisk" format="2">
  <advance width="878.7733333333334"/>
  <unicode hex="002A"/>
  <outline>
    <contour>
      <point x="757.0133333333333" y="804.1866666666666" type="line"/>
      <point x="671.3733333333333" y="1056.5866666666666" type="line"/>
      <point x="936.28" y="1076.9466666666667" type="line"/>
      <point x="932.4133333333334" y="1144.6" type="line"/>
      <point x="665.76" y="1140.72" type="line"/>
      <point x="728.5333333333333" y="1398.1200000000001" type="line"/>
      <point x="662.6266666666667" y="1415.9733333333334" type="line"/>
      <point x="585.7466666666667" y="1161.6933333333334" type="line"/>
      <point x="358.1066666666667" y="1299.6" type="line"/>
      <point x="321.90666666666664" y="1244.3066666666666" type="line"/>
      <point x="539.9333333333333" y="1090.92" type="line"/>
      <point x="337.7733333333333" y="918.4133333333333" type="line"/>
      <point x="379.5866666666667" y="866.36" type="line"/>
      <point x="592.48" y="1025.1333333333334" type="line"/>
      <point x="694.6" y="779.9733333333334" type="line"/>
    </contour>
  </outline>
</glyph>
<glyph name="plus" format="2">
	<unicode hex="002B"/>
	<advance width="1200"/>
	<outline>
		<contour>
			<point x="427.68" y="96.8933333333" type="line"/>
			<point x="515.84" y="96.8933333333" type="line"/>
			<point x="771.2" y="929.3466666667" type="line"/>
			<point x="682.6666666667" y="929.3466666667" type="line"/>
		</contour>
		<contour>
			<point x="199" y="556.9466666667" type="line"/>
			<point x="172.28" y="469.2933333333" type="line"/>
			<point x="999.88" y="469.2933333333" type="line"/>
			<point x="1026.6" y="556.9466666667" type="line"/>
		</contour>
	</outline>
</glyph>
<glyph name="comma" format="2">
	<unicode hex="002C"/>
	<advance width="496.7733333333"/>
	<outline>
		<contour>
			<point x="-147.8533333333" y="-283.92" type="curve"/>
			<point x="-112.7733333333" y="-338.84" type="line"/>
			<point x="199.6533333333" y="-129.48"/>
			<point x="259.9866666667" y="-3.9866666667"/>
			<point x="259.9866666667" y="116.0666666667" type="curve" smooth="yes"/>
			<point x="259.9866666667" y="183.5333333333"/>
			<point x="224.7733333333" y="210.5066666667"/>
			<point x="165.0666666667" y="210.5066666667" type="curve" smooth="yes"/>
			<point x="75.2266666667" y="210.5066666667"/>
			<point x="24.2666666667" y="145.7866666667"/>
			<point x="24.2666666667" y="93.6933333333" type="curve" smooth="yes"/>
			<point x="24.2666666667" y="63.08"/>
			<point x="86.9866666667" y="33.8266666667"/>
			<point x="86.9866666667" y="-26.4" type="curve" smooth="yes"/>
			<point x="86.9866666667" y="-87.8933333333"/>
			<point x="38.12" y="-156.5466666667"/>
		</contour>
	</outline>
</glyph>
<glyph name="hyphen" format="2">
  <advance width="708.04"/>
  <unicode hex="002D"/>
  <outline>
    <contour>
      <point x="150.30666666666667" y="574.5600000000001" type="line"/>
      <point x="118.72" y="469.44" type="line"/>
      <point x="561.6133333333333" y="469.44" type="line"/>
      <point x="593.5733333333334" y="574.5600000000001" type="line"/>
    </contour>
  </outline>
</glyph>
<glyph name="period" format="2">
  <advance width="487"/>
  <unicode hex="002E"/>
  <outline>
    <contour>
      <point x="167.8" y="212.74666666666667" type="curve" smooth="yes"/>
      <point x="68.73333333333333" y="212.74666666666667"/>
      <point x="19.14666666666667" y="143.53333333333333"/>
      <point x="19.14666666666667" y="65.96000000000001" type="curve" smooth="yes"/>
      <point x="19.14666666666667" y="12.613333333333333"/>
      <point x="51.88" y="-15.493333333333332"/>
      <point x="109.46666666666667" y="-15.493333333333332" type="curve" smooth="yes"/>
      <point x="208.53333333333333" y="-15.493333333333332"/>
      <point x="258.12" y="53.720000000000006"/>
      <point x="258.12" y="130.92000000000002" type="curve" smooth="yes"/>
      <point x="258.12" y="184.64000000000001"/>
      <point x="225.38666666666666" y="212.74666666666667"/>
    </contour>
  </outline>
</glyph>
<glyph name="slash" format="2">
  <advance width="816"/>
  <unicode hex="002F"/>
  <outline>
    <contour>
      <point x="-75.36" y="0.0" type="line"/>
      <point x="26.266666666666666" y="0.0" type="line"/>
      <point x="1011.52" y="1414.0" type="line"/>
      <point x="910.2666666666667" y="1414.0" type="line"/>
    </contour>
  </outline>
</glyph>
<glyph name="zero" format="2">
	<unicode hex="0030"/>
	<advance width="1300"/>
	<outline>
		<contour>
			<point x="256.6466666667" y="394.6133333333" type="curve" smooth="yes"/>
			<point x="256.6466666667" y="799.9066666667"/>
			<point x="502.58" y="1344.3866666667"/>
			<point x="887.98" y="1344.3866666667" type="curve" smooth="yes"/>
			<point x="1073.94" y="1344.3866666667"/>
			<point x="1161.2333333333" y="1228.3066666667"/>
			<point x="1161.2333333333" y="1019.76" type="curve" smooth="yes"/>
			<point x="1161.2333333333" y="614.4666666667"/>
			<point x="915.3" y="69.9866666667"/>
			<point x="529.9" y="69.9866666667" type="curve" smooth="yes"/>
			<point x="343.94" y="69.9866666667"/>
			<point x="256.6466666667" y="186.0666666667"/>
		</contour>
		<contour>
			<point x="895.58" y="1434" type="curve" smooth="yes"/>
			<point x="410.5791634656" y="1434"/>
			<point x="132.1" y="836.36"/>
			<point x="132.1" y="395.5866666667" type="curve" smooth="yes"/>
			<point x="132.1" y="139.12"/>
			<point x="256.177008751" y="-19.6266666667"/>
			<point x="522.3" y="-19.6266666667" type="curve" smooth="yes"/>
			<point x="1007.3008365344" y="-19.6266666667"/>
			<point x="1285.78" y="578.0133333333"/>
			<point x="1285.78" y="1018.7866666667" type="curve" smooth="yes"/>
			<point x="1285.78" y="1275.2533333333"/>
			<point x="1161.702991249" y="1434"/>
		</contour>
	</outline>
</glyph>
<glyph name="one" format="2">
  <advance width="1300"/>
  <unicode hex="0031"/>
  <outline>
    <contour>
      <point x="527.6266666666667" y="94.73333333333333" type="line"/>
      <point x="232.01333333333335" y="64.54666666666665" type="line"/>
      <point x="211.78666666666666" y="0.0" type="line"/>
      <point x="903.84" y="0.0" type="line"/>
      <point x="923.6933333333334" y="64.54666666666665" type="line"/>
      <point x="647.92" y="94.73333333333333" type="line"/>
      <point x="1057.5866666666666" y="1434.0" type="line"/>
      <point x="969.7333333333333" y="1434.0" type="line"/>
      <point x="455.61333333333334" y="1227.5866666666666" type="line"/>
      <point x="479.08" y="1146.36" type="line"/>
      <point x="951.88" y="1306.4533333333334" type="line"/>
      <point x="910.6933333333333" y="1347.7066666666667" type="line"/>
    </contour>
  </outline>
</glyph>
<glyph name="colon" format="2">
	<unicode hex="003A"/>
	<advance width="553.5066666667"/>
	<outline>
		<contour>
			<point x="179.7733333333" y="212.7466666667" type="curve" smooth="yes"/>
			<point x="80.7066666667" y="212.7466666667"/>
			<point x="31.12" y="143.5333333333"/>
			<point x="31.12" y="65.96" type="curve" smooth="yes"/>
			<point x="31.12" y="12.6133333333"/>
			<point x="63.8533333333" y="-15.4933333333"/>
			<point x="121.44" y="-15.4933333333" type="curve" smooth="yes"/>
			<point x="220.5066666667" y="-15.4933333333"/>
			<point x="270.0933333333" y="53.72"/>
			<point x="270.0933333333" y="130.92" type="curve" smooth="yes"/>
			<point x="270.0933333333" y="184.64"/>
			<point x="237.36" y="212.7466666667"/>
		</contour>
		<contour>
			<point x="430.32" y="1040.24" type="curve" smooth="yes"/>
			<point x="331.2533333333" y="1040.24"/>
			<point x="281.6666666667" y="971.0266666667"/>
			<point x="281.6666666667" y="893.4533333333" type="curve" smooth="yes"/>
			<point x="281.6666666667" y="840.1066666667"/>
			<point x="314.4" y="812"/>
			<point x="371.9866666667" y="812" type="curve" smooth="yes"/>
			<point x="471.0533333333" y="812"/>
			<point x="520.64" y="881.2133333333"/>
			<point x="520.64" y="958.4133333333" type="curve" smooth="yes"/>
			<point x="520.64" y="1012.1333333333"/>
			<point x="487.9066666667" y="1040.24"/>
		</contour>
	</outline>
</glyph>
<glyph name="semicolon" format="2">
	<unicode hex="003B"/>
	<advance width="585.8"/>
	<outline>
		<contour>
			<point x="-123.5866666667" y="-283.92" type="curve"/>
			<point x="-88.5066666667" y="-338.84" type="line"/>
			<point x="223.92" y="-129.48"/>
			<point x="284.2533333333" y="-3.9866666667"/>
			<point x="284.2533333333" y="116.0666666667" type="curve" smooth="yes"/>
			<point x="284.2533333333" y="183.5333333333"/>
			<point x="249.04" y="210.5066666667"/>
			<point x="189.3333333333" y="210.5066666667" type="curve" smooth="yes"/>
			<point x="99.4933333333" y="210.5066666667"/>
			<point x="48.5333333333" y="145.7866666667"/>
			<point x="48.5333333333" y="93.6933333333" type="curve" smooth="yes"/>
			<point x="48.5333333333" y="63.08"/>
			<point x="111.2533333333" y="33.8266666667"/>
			<point x="111.2533333333" y="-26.4" type="curve" smooth="yes"/>
			<point x="111.2533333333" y="-87.8933333333"/>
			<point x="62.3866666667" y="-156.5466666667"/>
		</contour>
		<contour>
			<point x="455.72" y="1040.24" type="curve" smooth="yes"/>
			<point x="356.6533333333" y="1040.24"/>
			<point x="307.0666666667" y="971.0266666667"/>
			<point x="307.0666666667" y="893.4533333333" type="curve" smooth="yes"/>
			<point x="307.0666666667" y="840.1066666667"/>
			<point x="339.8" y="812"/>
			<point x="397.3866666667" y="812" type="curve" smooth="yes"/>
			<point x="496.4533333333" y="812"/>
			<point x="546.04" y="881.2133333333"/>
			<point x="546.04" y="958.4133333333" type="curve" smooth="yes"/>
			<point x="546.04" y="1012.1333333333"/>
			<point x="513.3066666667" y="1040.24"/>
		</contour>
	</outline>
</glyph>
<glyph name="less" format="2">
	<unicode hex="003C"/>
	<advance width="1200"/>
	<outline>
		<contour>
			<point x="223.7333333333" y="487.04" type="line"/>
			<point x="1101.12" y="820.5333333333" type="line"/>
			<point x="1132.96" y="926.92" type="line"/>
			<point x="177.3733333333" y="556.2" type="line"/>
			<point x="151.0266666667" y="469.6666666667" type="line"/>
			<point x="880.88" y="99.32" type="line"/>
			<point x="907.2266666667" y="185.6" type="line"/>
			<point x="234.5866666667" y="524.3466666667" type="line"/>
		</contour>
	</outline>
</glyph>
<glyph name="greater" format="2">
	<unicode hex="003E"/>
	<advance width="1200"/>
	<outline>
		<contour>
			<point x="974.8933333333" y="538.8266666667" type="line"/>
			<point x="97.5066666667" y="205.7066666667" type="line"/>
			<point x="65.6666666667" y="99.32" type="line"/>
			<point x="1021.2533333333" y="469.6666666667" type="line"/>
			<point x="1047.6" y="556.2" type="line"/>
			<point x="318.12" y="926.92" type="line"/>
			<point x="291.7733333333" y="840.2666666667" type="line"/>
			<point x="964.04" y="501.8933333333" type="line"/>
		</contour>
	</outline>
</glyph>
<glyph name="question" format="2">
  <advance width="1071.3200000000002"/>
  <unicode hex="003F"/>
  <outline>
    <contour>
      <point x="407.73333333333335" y="212.74666666666667" type="curve" smooth="yes"/>
      <point x="308.66666666666663" y="212.74666666666667"/>
      <point x="259.08" y="143.53333333333333"/>
      <point x="259.08" y="65.96000000000001" type="curve" smooth="yes"/>
      <point x="259.08" y="12.613333333333333"/>
      <point x="291.81333333333333" y="-15.493333333333332"/>
      <point x="349.40000000000003" y="-15.493333333333332" type="curve" smooth="yes"/>
      <point x="448.4666666666667" y="-15.493333333333332"/>
      <point x="498.0533333333333" y="53.720000000000006"/>
      <point x="498.0533333333333" y="130.92000000000002" type="curve" smooth="yes"/>
      <point x="498.0533333333333" y="184.64000000000001"/>
      <point x="465.32" y="212.74666666666667"/>
    </contour>
    <contour>
      <point x="595.8399999999999" y="1434.0" type="curve" smooth="yes"/>
      <point x="370.85333333333335" y="1434.0"/>
      <point x="303.4" y="1366.7733333333333"/>
      <point x="303.4" y="1302.7066666666667" type="curve" smooth="yes"/>
      <point x="303.4" y="1263.24"/>
      <point x="334.62666666666667" y="1238.2666666666667"/>
      <point x="379.84000000000003" y="1238.2666666666667" type="curve" smooth="yes"/>
      <point x="418.84" y="1238.2666666666667"/>
      <point x="464.44000000000005" y="1359.8533333333332"/>
      <point x="653.6666666666666" y="1359.8533333333332" type="curve" smooth="yes"/>
      <point x="877.8666666666667" y="1359.8533333333332"/>
      <point x="977.3733333333333" y="1205.0266666666666"/>
      <point x="977.3733333333333" y="1042.8666666666666" type="curve" smooth="yes"/>
      <point x="977.3733333333333" y="845.2133333333334"/>
      <point x="848.5333333333333" y="748.8"/>
      <point x="500.08" y="777.9333333333334" type="curve"/>
      <point x="420.08" y="410.56" type="line"/>
      <point x="487.4533333333333" y="410.56" type="line"/>
      <point x="590.3066666666666" y="731.3866666666668" type="line"/>
      <point x="524.12" y="670.0799999999999" type="line"/>
      <point x="922.4266666666666" y="637.8"/>
      <point x="1079.44" y="784.1733333333333"/>
      <point x="1079.44" y="1022.3733333333333" type="curve" smooth="yes"/>
      <point x="1079.44" y="1238.6533333333334"/>
      <point x="917.9866666666667" y="1434.0"/>
    </contour>
  </outline>
</glyph>
<glyph name="A" format="2">
	<unicode hex="0041"/>
	<advance width="1529.2666666667"/>
	<outline>
		<contour>
			<point x="419.76" y="504.08" type="line"/>
			<point x="1083.5866666667" y="504.08" type="line"/>
			<point x="1114.04" y="598.6933333333" type="line"/>
			<point x="450.4666666667" y="598.6933333333" type="line"/>
		</contour>
		<contour>
			<point x="1216.7066666667" y="92.9866666667" type="line"/>
			<point x="1102.9333333333" y="1421.4666666667" type="line"/>
			<point x="947.72" y="1421.4666666667" type="line"/>
			<point x="76.4933333333" y="93.6133333333" type="line"/>
			<point x="-107.7866666667" y="66.7866666667" type="line"/>
			<point x="-128.1333333333" y="0" type="line"/>
			<point x="350.7466666667" y="0" type="line"/>
			<point x="371.3466666667" y="66.7866666667" type="line"/>
			<point x="191.4266666667" y="92.9866666667" type="line"/>
			<point x="1009.6266666667" y="1358.56" type="line"/>
			<point x="986.64" y="1358.56" type="line"/>
			<point x="1088.56" y="93.6133333333" type="line"/>
			<point x="881.0133333333" y="66.7866666667" type="line"/>
			<point x="860.04" y="0" type="line"/>
			<point x="1373.7733333333" y="0" type="line"/>
			<point x="1394.12" y="66.7866666667" type="line"/>
		</contour>
	</outline>
	<anchor name="UCtop" x="993.2533333333" y="1414"/>
	<anchor name="bottom" x="605.1066666667" y="0"/>
	<anchor name="right" x="1279.6533333333" y="0"/>
</glyph>
<glyph name="B" format="2">
	<unicode hex="0042"/>
	<advance width="1350.1466666667"/>
	<outline>
		<contour>
			<point x="621.8133333333" y="1319.3866666667" type="line"/>
			<point x="904.4133333333" y="1319.3866666667" type="line" smooth="yes"/>
			<point x="1102.6666666667" y="1319.3866666667"/>
			<point x="1181.8266666667" y="1251.1066666667"/>
			<point x="1181.8266666667" y="1125.5466666667" type="curve" smooth="yes"/>
			<point x="1181.8266666667" y="923.84"/>
			<point x="1055.3733333333" y="803.0666666667"/>
			<point x="822.7866666667" y="803.0666666667" type="curve" smooth="yes"/>
			<point x="467" y="803.0666666667" type="line"/>
			<point x="429.2933333333" y="708.4533333333" type="line"/>
			<point x="806.5066666667" y="708.4533333333" type="line" smooth="yes"/>
			<point x="994.0666666667" y="708.4533333333"/>
			<point x="1074.24" y="631.9466666667"/>
			<point x="1074.24" y="492" type="curve" smooth="yes"/>
			<point x="1074.24" y="239.0533333333"/>
			<point x="921.92" y="94.6133333333"/>
			<point x="627.2933333333" y="94.6133333333" type="curve" smooth="yes"/>
			<point x="245.9733333333" y="94.6133333333" type="line"/>
			<point x="212.3733333333" y="0" type="line"/>
			<point x="634.8666666667" y="0" type="line" smooth="yes"/>
			<point x="1009.1466666667" y="0"/>
			<point x="1197.8933333333" y="203.76"/>
			<point x="1197.8933333333" y="480.7733333333" type="curve" smooth="yes"/>
			<point x="1197.8933333333" y="652.5333333333"/>
			<point x="1099" y="755.3866666667"/>
			<point x="900.28" y="765.88" type="curve"/>
			<point x="883.6266666667" y="750.0133333333" type="line"/>
			<point x="1139.8533333333" y="756.88"/>
			<point x="1304.24" y="898.8933333333"/>
			<point x="1304.24" y="1140.52" type="curve" smooth="yes"/>
			<point x="1304.24" y="1303.04"/>
			<point x="1199.96" y="1414"/>
			<point x="940.36" y="1414" type="curve" smooth="yes"/>
			<point x="644" y="1414" type="line"/>
		</contour>
		<contour>
			<point x="552.32" y="1320.3866666667" type="line"/>
			<point x="176.9866666667" y="93.6133333333" type="line"/>
			<point x="-29.4266666667" y="66.7866666667" type="line"/>
			<point x="-49.7733333333" y="0" type="line"/>
			<point x="273.56" y="0" type="line"/>
			<point x="705.56" y="1414" type="line"/>
			<point x="376.6266666667" y="1414" type="line"/>
			<point x="355.6533333333" y="1347.2133333333" type="line"/>
		</contour>
	</outline>
	<anchor name="UCtop" x="871.5333333333" y="1414"/>
	<anchor name="bottom" x="566" y="0"/>
</glyph>
<glyph name="C" format="2">
	<unicode hex="0043"/>
	<advance width="1496.2"/>
	<outline>
		<contour>
			<point x="1189.2" y="149.6" type="line"/>
			<point x="1086.12" y="105.6"/>
			<point x="945.6" y="76.48"/>
			<point x="810.6933333333" y="76.48" type="curve" smooth="yes"/>
			<point x="480.8133333333" y="76.48"/>
			<point x="313.1733333333" y="235.4"/>
			<point x="313.1733333333" y="555.4933333333" type="curve" smooth="yes"/>
			<point x="313.1733333333" y="933.0533333333"/>
			<point x="522.4133333333" y="1334.4"/>
			<point x="1068.8266666667" y="1334.4" type="curve" smooth="yes"/>
			<point x="1212.2666666667" y="1334.4"/>
			<point x="1351.1333333333" y="1312.1333333333"/>
			<point x="1465.8133333333" y="1232.2" type="curve"/>
			<point x="1433.0266666667" y="1321.12" type="line"/>
			<point x="1378.8266666667" y="979.4266666667" type="line"/>
			<point x="1467.3066666667" y="979.4266666667" type="line"/>
			<point x="1617.28" y="1471.4666666667" type="line"/>
			<point x="1547.64" y="1471.4666666667" type="line"/>
			<point x="1453.72" y="1349.6933333333" type="line"/>
			<point x="1510.9733333333" y="1358.3333333333" type="line"/>
			<point x="1418.2266666667" y="1401.48"/>
			<point x="1253.4666666667" y="1434"/>
			<point x="1096.4133333333" y="1434" type="curve" smooth="yes"/>
			<point x="455.6" y="1434"/>
			<point x="180.1466666667" y="987.44"/>
			<point x="180.1466666667" y="534.2266666667" type="curve" smooth="yes"/>
			<point x="180.1466666667" y="185.9866666667"/>
			<point x="385.2933333333" y="-20"/>
			<point x="788.76" y="-20" type="curve" smooth="yes"/>
			<point x="942.0666666667" y="-20"/>
			<point x="1095.3066666667" y="9.3733333333"/>
			<point x="1214.44" y="55.7466666667" type="curve"/>
			<point x="1370.32" y="409.56" type="line"/>
			<point x="1281.72" y="409.56" type="line"/>
			<point x="1054.52" y="56.16" type="line"/>
		</contour>
	</outline>
	<anchor name="UCtop" x="1070.48" y="1414"/>
	<anchor name="bottom" x="704.9466666667" y="0"/>
	<anchor name="right" x="1205.3466666667" y="0"/>
</glyph>
<glyph name="D" format="2">
	<unicode hex="0044"/>
	<advance width="1569.6133333333"/>
	<outline>
		<contour>
			<point x="604.1866666667" y="94.6133333333" type="curve" smooth="yes"/>
			<point x="228.88" y="94.6133333333" type="line"/>
			<point x="197.8" y="0" type="line"/>
			<point x="602.1333333333" y="0" type="line" smooth="yes"/>
			<point x="1166.44" y="0"/>
			<point x="1510.0933333333" y="361.7466666667"/>
			<point x="1510.0933333333" y="900.24" type="curve" smooth="yes"/>
			<point x="1510.0933333333" y="1245.9066666667"/>
			<point x="1339.7333333333" y="1414"/>
			<point x="904.3466666667" y="1414" type="curve" smooth="yes"/>
			<point x="630.4266666667" y="1414" type="line"/>
			<point x="599.3466666667" y="1319.3866666667" type="line"/>
			<point x="874.0133333333" y="1319.3866666667" type="line" smooth="yes"/>
			<point x="1256.4133333333" y="1319.3866666667"/>
			<point x="1376.8133333333" y="1171.7333333333"/>
			<point x="1376.8133333333" y="898.1066666667" type="curve" smooth="yes"/>
			<point x="1376.8133333333" y="395.3866666667"/>
			<point x="1077.4133333333" y="94.6133333333"/>
		</contour>
		<contour>
			<point x="552.32" y="1320.3866666667" type="line"/>
			<point x="176.9866666667" y="93.6133333333" type="line"/>
			<point x="-29.4266666667" y="66.7866666667" type="line"/>
			<point x="-49.7733333333" y="0" type="line"/>
			<point x="273.56" y="0" type="line"/>
			<point x="705.56" y="1414" type="line"/>
			<point x="376.6266666667" y="1414" type="line"/>
			<point x="355.6533333333" y="1347.2133333333" type="line"/>
		</contour>
	</outline>
	<anchor name="UCtop" x="1044.96" y="1414"/>
	<anchor name="bottom" x="646.76" y="0"/>
</glyph>
<glyph name="E" format="2">
	<unicode hex="0045"/>
	<advance width="1402.8933333333"/>
	<outline>
		<contour>
			<point x="552.32" y="1320.3866666667" type="line"/>
			<point x="176.9866666667" y="93.6133333333" type="line"/>
			<point x="-29.4266666667" y="66.7866666667" type="line"/>
			<point x="-49.7733333333" y="0" type="line"/>
			<point x="273.56" y="0" type="line"/>
			<point x="705.56" y="1414" type="line"/>
			<point x="376.6266666667" y="1414" type="line"/>
			<point x="355.6533333333" y="1347.2133333333" type="line"/>
		</contour>
		<contour>
			<point x="1377.3733333333" y="1379.6" type="line"/>
			<point x="1323.5333333333" y="1058.2933333333" type="line"/>
			<point x="1409.5333333333" y="1058.2933333333" type="line"/>
			<point x="1543.9066666667" y="1484" type="line"/>
			<point x="1476.5066666667" y="1484" type="line"/>
			<point x="1400.8266666667" y="1414" type="line"/>
			<point x="619.7733333333" y="1414" type="line"/>
			<point x="588.6933333333" y="1319.3866666667" type="line"/>
			<point x="1410.0933333333" y="1319.3866666667" type="line"/>
		</contour>
		<contour>
			<point x="965.3866666667" y="-72" type="line"/>
			<point x="1049.4133333333" y="-72" type="line"/>
			<point x="1277.6933333333" y="395.68" type="line"/>
			<point x="1192.2" y="395.68" type="line"/>
			<point x="951.1333333333" y="53.2" type="line"/>
			<point x="1042.6933333333" y="94.6133333333" type="line"/>
			<point x="218.2266666667" y="94.6133333333" type="line"/>
			<point x="187.1466666667" y="0" type="line"/>
			<point x="956.84" y="0" type="line"/>
		</contour>
		<contour>
			<point x="934.7466666667" y="478.12" type="line"/>
			<point x="1012.7466666667" y="733.12" type="line"/>
			<point x="1090.7466666667" y="988.7466666667" type="line"/>
			<point x="1014.3733333333" y="988.7466666667" type="line"/>
			<point x="927.08" y="782.4266666667" type="line"/>
			<point x="459.5866666667" y="782.4266666667" type="line"/>
			<point x="429.2533333333" y="687.8133333333" type="line"/>
			<point x="898.3733333333" y="687.8133333333" type="line"/>
			<point x="858.3733333333" y="478.12" type="line"/>
		</contour>
	</outline>
	<anchor name="UCtop" x="959.3333333333" y="1414"/>
	<anchor name="right" x="1056.9066666667" y="0"/>
	<anchor name="bottom" x="563.8" y="0"/>
</glyph>
<glyph name="F" format="2">
	<unicode hex="0046"/>
	<advance width="1289.6133333333"/>
	<outline>
		<contour>
			<point x="1068.7733333333" y="929.04" type="line"/>
			<point x="992.4" y="929.04" type="line"/>
			<point x="905.1066666667" y="722.72" type="line"/>
			<point x="437.6133333333" y="722.72" type="line"/>
			<point x="407.28" y="628.1066666667" type="line"/>
			<point x="876.4" y="628.1066666667" type="line"/>
			<point x="836.4" y="418.4133333333" type="line"/>
			<point x="912.7733333333" y="418.4133333333" type="line"/>
			<point x="990.7733333333" y="673.4133333333" type="line"/>
		</contour>
		<contour>
			<point x="1362.6133333333" y="1048.5866666667" type="line"/>
			<point x="1496.9866666667" y="1484" type="line"/>
			<point x="1429.5866666667" y="1484" type="line"/>
			<point x="1353.9066666667" y="1414" type="line"/>
			<point x="619.7733333333" y="1414" type="line"/>
			<point x="588.6933333333" y="1319.3866666667" type="line"/>
			<point x="1363.1733333333" y="1319.3866666667" type="line"/>
			<point x="1330.4533333333" y="1376.6133333333" type="line"/>
			<point x="1276.6133333333" y="1048.5866666667" type="line"/>
		</contour>
		<contour>
			<point x="301.8933333333" y="93.6133333333" type="line"/>
			<point x="705.56" y="1414" type="line"/>
			<point x="376.6266666667" y="1414" type="line"/>
			<point x="355.6533333333" y="1347.2133333333" type="line"/>
			<point x="552.32" y="1320.3866666667" type="line"/>
			<point x="176.9866666667" y="93.6133333333" type="line"/>
			<point x="-29.4266666667" y="66.7866666667" type="line"/>
			<point x="-49.7733333333" y="0" type="line"/>
			<point x="477.5866666667" y="0" type="line"/>
			<point x="497.56" y="66.7866666667" type="line"/>
		</contour>
	</outline>
	<anchor name="UCtop" x="929.5866666667" y="1414"/>
	<anchor name="bottom" x="210.92" y="0"/>
</glyph>
<glyph name="G" format="2">
	<unicode hex="0047"/>
	<advance width="1606.0133333333"/>
	<outline>
		<contour>
			<point x="811.6933333333" y="76.48" type="curve" smooth="yes"/>
			<point x="495.6" y="76.48"/>
			<point x="314.1733333333" y="236.6533333333"/>
			<point x="314.1733333333" y="562.96" type="curve" smooth="yes"/>
			<point x="314.1733333333" y="936.4133333333"/>
			<point x="514.3805907173" y="1334.4"/>
			<point x="1045.8" y="1334.4" type="curve" smooth="yes"/>
			<point x="1187.8260740741" y="1334.4"/>
			<point x="1323.8307731245" y="1311.5807199429"/>
			<point x="1437.72" y="1232.2" type="curve"/>
			<point x="1404.9333333333" y="1321.12" type="line"/>
			<point x="1350.7333333333" y="979.4266666667" type="line"/>
			<point x="1439.2133333333" y="979.4266666667" type="line"/>
			<point x="1589.1866666667" y="1471.4666666667" type="line"/>
			<point x="1519.5466666667" y="1471.4666666667" type="line"/>
			<point x="1425.6266666667" y="1349.6933333333" type="line"/>
			<point x="1482.88" y="1358.3333333333" type="line"/>
			<point x="1391.3646135909" y="1400.821361025"/>
			<point x="1231.3949707602" y="1434"/>
			<point x="1077.8666666667" y="1434" type="curve" smooth="yes"/>
			<point x="446.0049327354" y="1434"/>
			<point x="181.1466666667" y="987.44"/>
			<point x="181.1466666667" y="534.2266666667" type="curve" smooth="yes"/>
			<point x="181.1466666667" y="188.6"/>
			<point x="387.6266666667" y="-20"/>
			<point x="800.5866666667" y="-20" type="curve" smooth="yes"/>
			<point x="1000.5733333333" y="-20"/>
			<point x="1208.2119890269" y="23.6961098953"/>
			<point x="1370.36" y="86.04" type="curve"/>
			<point x="1387.8266666667" y="142.9333333333" type="line"/>
			<point x="1231.9066666667" y="142.9333333333" type="line"/>
			<point x="1365.88" y="580.88" type="line"/>
			<point x="1542.92" y="607.7066666667" type="line"/>
			<point x="1564.52" y="677" type="line"/>
			<point x="1037.16" y="677" type="line"/>
			<point x="1015.9333333333" y="607.7066666667" type="line"/>
			<point x="1240.9733333333" y="580.88" type="line"/>
			<point x="1087.0266666667" y="77.0266666667" type="line"/>
			<point x="1151.7066666667" y="140.4266666667" type="line"/>
			<point x="1027.9510692607" y="93.0014426684"/>
			<point x="916.9466666667" y="76.48"/>
		</contour>
	</outline>
	<anchor name="UCtop" x="1057.9333333333" y="1414"/>
	<anchor name="bottom" x="758.8" y="0"/>
</glyph>
<glyph name="H" format="2">
	<unicode hex="0048"/>
	<advance width="1655.32"/>
	<outline>
		<contour>
			<point x="405.2" y="678.96" type="line"/>
			<point x="1350.5466666667" y="678.96" type="line"/>
			<point x="1379.1333333333" y="773.5733333333" type="line"/>
			<point x="434.7866666667" y="773.5733333333" type="line"/>
		</contour>
		<contour>
			<point x="552.32" y="1320.3866666667" type="line"/>
			<point x="176.9866666667" y="93.6133333333" type="line"/>
			<point x="-29.4266666667" y="66.7866666667" type="line"/>
			<point x="-49.7733333333" y="0" type="line"/>
			<point x="477.5866666667" y="0" type="line"/>
			<point x="497.56" y="66.7866666667" type="line"/>
			<point x="301.8933333333" y="93.6133333333" type="line"/>
			<point x="677.2266666667" y="1320.3866666667" type="line"/>
			<point x="883.0133333333" y="1347.2133333333" type="line"/>
			<point x="903.6133333333" y="1414" type="line"/>
			<point x="376.6266666667" y="1414" type="line"/>
			<point x="355.6533333333" y="1347.2133333333" type="line"/>
		</contour>
		<contour>
			<point x="1470.68" y="1320.3866666667" type="line"/>
			<point x="1095.9733333333" y="93.6133333333" type="line"/>
			<point x="889.56" y="66.7866666667" type="line"/>
			<point x="869.5866666667" y="0" type="line"/>
			<point x="1395.9466666667" y="0" type="line"/>
			<point x="1416.92" y="66.7866666667" type="line"/>
			<point x="1220.88" y="93.6133333333" type="line"/>
			<point x="1595.5866666667" y="1320.3866666667" type="line"/>
			<point x="1802" y="1347.2133333333" type="line"/>
			<point x="1822.6" y="1414" type="line"/>
			<point x="1295.6133333333" y="1414" type="line"/>
			<point x="1275.0133333333" y="1347.2133333333" type="line"/>
		</contour>
	</outline>
	<anchor name="UCtop" x="1061.2133333333" y="1414"/>
	<anchor name="bottom" x="684.3466666667" y="0"/>
</glyph>
<glyph name="I" format="2">
  <advance width="736.3333333333334"/>
  <unicode hex="0049"/>
  <anchor x="619.1866666666667" y="1414.0" name="UCtop"/>
  <anchor x="330.4666666666667" y="0.0" name="right"/>
  <anchor x="227.38666666666666" y="0.0" name="bottom"/>
  <outline>
    <contour>
      <point x="552.3199999999999" y="1320.3866666666668" type="line"/>
      <point x="176.98666666666668" y="93.61333333333333" type="line"/>
      <point x="-29.42666666666667" y="66.78666666666666" type="line"/>
      <point x="-49.77333333333333" y="0.0" type="line"/>
      <point x="477.58666666666664" y="0.0" type="line"/>
      <point x="497.56" y="66.78666666666666" type="line"/>
      <point x="301.8933333333333" y="93.61333333333333" type="line"/>
      <point x="677.2266666666667" y="1320.3866666666665" type="line"/>
      <point x="883.0133333333333" y="1347.2133333333334" type="line"/>
      <point x="903.6133333333333" y="1414.0" type="line"/>
      <point x="376.62666666666667" y="1414.0" type="line"/>
      <point x="355.65333333333336" y="1347.2133333333334" type="line"/>
    </contour>
  </outline>
</glyph>
<glyph name="J" format="2">
	<unicode hex="004A"/>
	<advance width="962.6266666667"/>
	<outline>
		<contour>
			<point x="628.6" y="321.2533333333" type="curve" smooth="yes"/>
			<point x="929" y="1320.3866666667" type="line"/>
			<point x="1135.4133333333" y="1347.2133333333" type="line"/>
			<point x="1155.3866666667" y="1414" type="line"/>
			<point x="628.4" y="1414" type="line"/>
			<point x="608.0533333333" y="1347.2133333333" type="line"/>
			<point x="804.0933333333" y="1320.3866666667" type="line"/>
			<point x="504.52" y="339.64" type="line" smooth="yes"/>
			<point x="445.3866666667" y="145.7333333333"/>
			<point x="357.36" y="82.08"/>
			<point x="182.6533333333" y="82.08" type="curve" smooth="yes"/>
			<point x="52.8933333333" y="82.08"/>
			<point x="23.24" y="178.6133333333"/>
			<point x="-13.76" y="178.6133333333" type="curve" smooth="yes"/>
			<point x="-54.5866666667" y="178.6133333333"/>
			<point x="-83.92" y="147.7733333333"/>
			<point x="-83.92" y="106.2133333333" type="curve" smooth="yes"/>
			<point x="-83.92" y="30.0533333333"/>
			<point x="-16.8266666667" y="-17.2533333333"/>
			<point x="167.7733333333" y="-17.2533333333" type="curve" smooth="yes"/>
			<point x="410.3866666667" y="-17.2533333333"/>
			<point x="553.84" y="71.96"/>
		</contour>
	</outline>
	<anchor name="UCtop" x="871.7333333333" y="1414"/>
	<anchor name="bottom" x="267.5333333333" y="0"/>
</glyph>
<glyph name="K" format="2">
	<unicode hex="004B"/>
	<advance width="1514.4133333333"/>
	<outline>
		<contour>
			<point x="1176.3333333333" y="90.6266666667" type="line"/>
			<point x="765.2533333333" y="798.5733333333" type="line"/>
			<point x="752.88" y="712.9066666667" type="line"/>
			<point x="1483.8133333333" y="1320.3866666667" type="line"/>
			<point x="1659.0666666667" y="1347.2133333333" type="line"/>
			<point x="1679.6666666667" y="1414" type="line"/>
			<point x="1207.0266666667" y="1414" type="line"/>
			<point x="1186.68" y="1347.2133333333" type="line"/>
			<point x="1353" y="1322.6266666667" type="line"/>
			<point x="710.8533333333" y="787.08" type="line"/>
			<point x="484.0133333333" y="787.08" type="line"/>
			<point x="455.0533333333" y="692.4666666667" type="line"/>
			<point x="687.7866666667" y="692.4666666667" type="line"/>
			<point x="1040.6933333333" y="75.92" type="line"/>
			<point x="907.7466666667" y="54.0933333333" type="line"/>
			<point x="890.88" y="0" type="line"/>
			<point x="1334.4266666667" y="0" type="line"/>
			<point x="1355.7733333333" y="69.0266666667" type="line"/>
		</contour>
		<contour>
			<point x="552.32" y="1320.3866666667" type="line"/>
			<point x="176.9866666667" y="93.6133333333" type="line"/>
			<point x="-29.4266666667" y="66.7866666667" type="line"/>
			<point x="-49.7733333333" y="0" type="line"/>
			<point x="477.5866666667" y="0" type="line"/>
			<point x="497.56" y="66.7866666667" type="line"/>
			<point x="301.8933333333" y="93.6133333333" type="line"/>
			<point x="677.2266666667" y="1320.3866666667" type="line"/>
			<point x="883.0133333333" y="1347.2133333333" type="line"/>
			<point x="903.6133333333" y="1414" type="line"/>
			<point x="376.6266666667" y="1414" type="line"/>
			<point x="355.6533333333" y="1347.2133333333" type="line"/>
		</contour>
	</outline>
	<anchor name="UCtop" x="1027.0266666667" y="1414"/>
	<anchor name="bottom" x="670.16" y="0"/>
</glyph>
<glyph name="L" format="2">
	<unicode hex="004C"/>
	<advance width="1260.16"/>
	<outline>
		<contour>
			<point x="677.2266666667" y="1320.3866666667" type="line"/>
			<point x="883.0133333333" y="1347.2133333333" type="line"/>
			<point x="903.6133333333" y="1414" type="line"/>
			<point x="376.6266666667" y="1414" type="line"/>
			<point x="355.6533333333" y="1347.2133333333" type="line"/>
			<point x="552.32" y="1320.3866666667" type="line"/>
			<point x="176.9866666667" y="93.6133333333" type="line"/>
			<point x="-29.4266666667" y="66.7866666667" type="line"/>
			<point x="-49.7733333333" y="0" type="line"/>
			<point x="273.56" y="0" type="line"/>
		</contour>
		<contour>
			<point x="863.12" y="52.4533333333" type="line"/>
			<point x="951.2933333333" y="92.1066666667" type="line"/>
			<point x="186.36" y="92.1066666667" type="line"/>
			<point x="156.5333333333" y="0" type="line"/>
			<point x="866.6933333333" y="0" type="line"/>
			<point x="875.24" y="-72" type="line"/>
			<point x="959.2666666667" y="-72" type="line"/>
			<point x="1171.12" y="410.6133333333" type="line"/>
			<point x="1085.6266666667" y="410.6133333333" type="line"/>
		</contour>
	</outline>
	<anchor name="UCtop" x="636.5466666667" y="1414"/>
	<anchor name="right" x="935.92" y="1414"/>
	<anchor name="bottom" x="508.6133333333" y="0"/>
	<anchor name="mid" x="1065.2133333333" y="772"/>
</glyph>
<glyph name="M" format="2">
	<unicode hex="004D"/>
	<advance width="2021.0533333333"/>
	<outline>
		<contour>
			<point x="699.04" y="1336.5866666667" type="line"/>
			<point x="673.0533333333" y="1353.1466666667" type="line"/>
			<point x="774.48" y="0" type="line"/>
			<point x="910.9733333333" y="0" type="line"/>
			<point x="1838.5466666667" y="1388.0133333333" type="line"/>
			<point x="1846.2933333333" y="1414" type="line"/>
			<point x="1756.0666666667" y="1414" type="line"/>
			<point x="843.7066666667" y="37.8266666667" type="line"/>
			<point x="890.1466666667" y="37.8266666667" type="line"/>
			<point x="788.3466666667" y="1414" type="line"/>
			<point x="417" y="1414" type="line"/>
			<point x="396.0266666667" y="1347.2133333333" type="line"/>
			<point x="593.2133333333" y="1310.4" type="line"/>
			<point x="146.76" y="93.6133333333" type="line"/>
			<point x="-52.9333333333" y="66.7866666667" type="line"/>
			<point x="-72.9066666667" y="0" type="line"/>
			<point x="410.4666666667" y="0" type="line"/>
			<point x="431.0666666667" y="66.7866666667" type="line"/>
			<point x="241.7466666667" y="93.6133333333" type="line"/>
		</contour>
		<contour>
			<point x="1804.8533333333" y="1414" type="line"/>
			<point x="1493.96" y="93.6133333333" type="line"/>
			<point x="1287.92" y="66.7866666667" type="line"/>
			<point x="1267.32" y="0" type="line"/>
			<point x="1785.5866666667" y="0" type="line"/>
			<point x="1806.56" y="66.7866666667" type="line"/>
			<point x="1617.24" y="93.6133333333" type="line"/>
			<point x="1904.6666666667" y="1314.7733333333" type="line"/>
			<point x="2114.1866666667" y="1347.84" type="line"/>
			<point x="2134.7866666667" y="1414" type="line"/>
		</contour>
	</outline>
	<anchor name="UCtop" x="1233.52" y="1414"/>
	<anchor name="bottom" x="871.8533333333" y="0"/>
</glyph>
<glyph name="N" format="2">
	<unicode hex="004E"/>
	<advance width="1640.44"/>
	<outline>
		<contour>
			<point x="1151.2266666667" y="39.7466666667" type="line"/>
			<point x="725.6" y="1414" type="line"/>
			<point x="380.9866666667" y="1414" type="line"/>
			<point x="359.76" y="1344.7066666667" type="line"/>
			<point x="551.2" y="1317.88" type="line"/>
			<point x="175.7466666667" y="93.6133333333" type="line"/>
			<point x="-30.6666666667" y="66.7866666667" type="line"/>
			<point x="-50.2666666667" y="0" type="line"/>
			<point x="448.16" y="0" type="line"/>
			<point x="468.3866666667" y="66.7866666667" type="line"/>
			<point x="271.9733333333" y="93.6133333333" type="line"/>
			<point x="648.8" y="1324.3733333333" type="line"/>
			<point x="626.68" y="1328.08" type="line"/>
			<point x="1042.8" y="-12.5333333333" type="line"/>
			<point x="1196.4" y="-12.5333333333" type="line"/>
			<point x="1604.5733333333" y="1320.3866666667" type="line"/>
			<point x="1810.36" y="1347.2133333333" type="line"/>
			<point x="1830.5866666667" y="1414" type="line"/>
			<point x="1331.5333333333" y="1414" type="line"/>
			<point x="1311.9333333333" y="1347.2133333333" type="line"/>
			<point x="1508.3466666667" y="1320.3866666667" type="line"/>
			<point x="1118.9866666667" y="48.2666666667" type="line"/>
		</contour>
	</outline>
	<anchor name="UCtop" x="1082.24" y="1414"/>
	<anchor name="bottom" x="712.9733333333" y="0"/>
</glyph>
<glyph name="O" format="2">
	<unicode hex="004F"/>
	<advance width="1603.28"/>
	<outline>
		<contour>
			<point x="294.04" y="497.5733333333" type="curve" smooth="yes"/>
			<point x="294.04" y="896.6933333333"/>
			<point x="550.5866666667" y="1334.0266666667"/>
			<point x="996.48" y="1334.0266666667" type="curve" smooth="yes"/>
			<point x="1276.28" y="1334.0266666667"/>
			<point x="1426.8666666667" y="1189.7866666667"/>
			<point x="1426.8666666667" y="916.4266666667" type="curve" smooth="yes"/>
			<point x="1426.8666666667" y="517.3066666667"/>
			<point x="1170.32" y="79.9733333333"/>
			<point x="724.4266666667" y="79.9733333333" type="curve" smooth="yes"/>
			<point x="444.6266666667" y="79.9733333333"/>
			<point x="294.04" y="224.2133333333"/>
		</contour>
		<contour>
			<point x="1554.64" y="919.4266666667" type="curve" smooth="yes"/>
			<point x="1554.64" y="1233.0266666667"/>
			<point x="1365.0533333333" y="1434"/>
			<point x="1009.7466666667" y="1434" type="curve" smooth="yes"/>
			<point x="491.9066666667" y="1434"/>
			<point x="166.2666666667" y="954.76"/>
			<point x="166.2666666667" y="494.5733333333" type="curve" smooth="yes"/>
			<point x="166.2666666667" y="180.9733333333"/>
			<point x="355.8533333333" y="-20"/>
			<point x="711.16" y="-20" type="curve" smooth="yes"/>
			<point x="1229" y="-20"/>
			<point x="1554.64" y="459.24"/>
		</contour>
	</outline>
	<anchor name="UCtop" x="1073.0933333333" y="1414"/>
	<anchor name="bottom" x="637.48" y="0"/>
	<anchor name="right" x="790.92" y="0"/>
	<anchor name="horn" x="1424.3733333333" y="1414"/>
</glyph>
<glyph name="P" format="2">
	<unicode hex="0050"/>
	<advance width="1305.76"/>
	<outline>
		<contour>
			<point x="820.2133333333" y="689.56" type="curve" smooth="yes"/>
			<point x="405.6133333333" y="689.56" type="line"/>
			<point x="374.7866666667" y="594.9466666667" type="line"/>
			<point x="816.2933333333" y="594.9466666667" type="line" smooth="yes"/>
			<point x="1201.5866666667" y="594.9466666667"/>
			<point x="1366.7466666667" y="828.88"/>
			<point x="1366.7466666667" y="1099.7733333333" type="curve" smooth="yes"/>
			<point x="1366.7466666667" y="1303.3866666667"/>
			<point x="1243.1466666667" y="1414"/>
			<point x="933.2666666667" y="1414" type="curve" smooth="yes"/>
			<point x="619.12" y="1414" type="line"/>
			<point x="588.6666666667" y="1319.3866666667" type="line"/>
			<point x="888.5733333333" y="1319.3866666667" type="line" smooth="yes"/>
			<point x="1148.92" y="1319.3866666667"/>
			<point x="1238.96" y="1240.24"/>
			<point x="1238.96" y="1089.9066666667" type="curve" smooth="yes"/>
			<point x="1238.96" y="851.6133333333"/>
			<point x="1104.8" y="689.56"/>
		</contour>
		<contour>
			<point x="301.8933333333" y="93.6133333333" type="line"/>
			<point x="705.56" y="1414" type="line"/>
			<point x="376.6266666667" y="1414" type="line"/>
			<point x="355.6533333333" y="1347.2133333333" type="line"/>
			<point x="552.32" y="1320.3866666667" type="line"/>
			<point x="176.9866666667" y="93.6133333333" type="line"/>
			<point x="-29.4266666667" y="66.7866666667" type="line"/>
			<point x="-49.7733333333" y="0" type="line"/>
			<point x="477.5866666667" y="0" type="line"/>
			<point x="497.56" y="66.7866666667" type="line"/>
		</contour>
	</outline>
	<anchor name="UCtop" x="939.24" y="1414"/>
	<anchor name="bottom" x="210.92" y="0"/>
</glyph>
<glyph name="Q" format="2">
	<unicode hex="0051"/>
	<advance width="1603.6533333333"/>
	<outline>
		<contour>
			<point x="759.8" y="-304.2533333333" type="line" smooth="yes"/>
			<point x="874.3733333333" y="-415.6533333333"/>
			<point x="942.9466666667" y="-458.7333333333"/>
			<point x="1068.76" y="-458.7333333333" type="curve" smooth="yes"/>
			<point x="1123.9333333333" y="-458.7333333333"/>
			<point x="1184.2" y="-452.9866666667"/>
			<point x="1240.16" y="-445" type="curve"/>
			<point x="1262.76" y="-363.24" type="line"/>
			<point x="1086.9866666667" y="-376.6133333333"/>
			<point x="1027.4533333333" y="-380.2666666667"/>
			<point x="855.16" y="-233.0133333333" type="curve" smooth="yes"/>
			<point x="509.3466666667" y="60.5866666667" type="line"/>
			<point x="529.5066666667" y="21.96" type="line"/>
			<point x="1112.6933333333" y="-120.7733333333"/>
			<point x="1554.64" y="370.1066666667"/>
			<point x="1554.64" y="919.4266666667" type="curve" smooth="yes"/>
			<point x="1554.64" y="1233.0266666667"/>
			<point x="1365.0533333333" y="1434"/>
			<point x="1009.7466666667" y="1434" type="curve" smooth="yes"/>
			<point x="491.9066666667" y="1434"/>
			<point x="166.2666666667" y="954.76"/>
			<point x="166.2666666667" y="494.5733333333" type="curve" smooth="yes"/>
			<point x="166.2666666667" y="317.3866666667"/>
			<point x="227.3066666667" y="196.8933333333"/>
			<point x="334.6133333333" y="96.5066666667" type="curve" smooth="yes"/>
		</contour>
		<contour>
			<point x="294.04" y="497.5733333333" type="curve" smooth="yes"/>
			<point x="294.04" y="896.6933333333"/>
			<point x="550.5866666667" y="1334.0266666667"/>
			<point x="996.48" y="1334.0266666667" type="curve" smooth="yes"/>
			<point x="1276.28" y="1334.0266666667"/>
			<point x="1426.8666666667" y="1189.7866666667"/>
			<point x="1426.8666666667" y="916.4266666667" type="curve" smooth="yes"/>
			<point x="1426.8666666667" y="517.3066666667"/>
			<point x="1170.32" y="79.9733333333"/>
			<point x="724.4266666667" y="79.9733333333" type="curve" smooth="yes"/>
			<point x="444.6266666667" y="79.9733333333"/>
			<point x="294.04" y="224.2133333333"/>
		</contour>
	</outline>
	<anchor name="UCtop" x="1075.6" y="1414"/>
	<anchor name="bottom" x="442.2666666667" y="-149.6666666667"/>
</glyph>
<glyph name="R" format="2">
	<unicode hex="0052"/>
	<advance width="1415.4666666667"/>
	<outline>
		<contour>
			<point x="815.9733333333" y="754.3066666667" type="curve" smooth="yes"/>
			<point x="448.8266666667" y="754.3066666667" type="line"/>
			<point x="440.5466666667" y="659.6933333333" type="line"/>
			<point x="822.1466666667" y="659.6933333333" type="line" smooth="yes"/>
			<point x="938.88" y="659.6933333333"/>
			<point x="978.3066666667" y="626.4"/>
			<point x="985.0266666667" y="470.3733333333" type="curve" smooth="yes"/>
			<point x="992.4933333333" y="173.6533333333" type="line" smooth="yes"/>
			<point x="999.2133333333" y="22.7733333333"/>
			<point x="1049.96" y="-4.7333333333"/>
			<point x="1259.24" y="0" type="curve"/>
			<point x="1276.7066666667" y="76.16" type="line"/>
			<point x="1148.7333333333" y="76.7866666667"/>
			<point x="1119.9866666667" y="91.92"/>
			<point x="1114.0133333333" y="207.6133333333" type="curve" smooth="yes"/>
			<point x="1106.1733333333" y="474.2133333333" type="line" smooth="yes"/>
			<point x="1098.3333333333" y="624.88"/>
			<point x="1064.84" y="692.3866666667"/>
			<point x="928.36" y="709.64" type="curve"/>
			<point x="928.36" y="701.0133333333" type="line"/>
			<point x="1214.2133333333" y="730.4133333333"/>
			<point x="1347.0266666667" y="902.04"/>
			<point x="1347.0266666667" y="1131.3866666667" type="curve" smooth="yes"/>
			<point x="1347.0266666667" y="1303.52"/>
			<point x="1240.7733333333" y="1414"/>
			<point x="942.7333333333" y="1414" type="curve" smooth="yes"/>
			<point x="623.6533333333" y="1414" type="line"/>
			<point x="613.12" y="1319.3866666667" type="line"/>
			<point x="908.4" y="1319.3866666667" type="line" smooth="yes"/>
			<point x="1132.7066666667" y="1319.3866666667"/>
			<point x="1216.88" y="1247.1066666667"/>
			<point x="1216.88" y="1113.04" type="curve" smooth="yes"/>
			<point x="1216.88" y="903.08"/>
			<point x="1103.5466666667" y="754.3066666667"/>
		</contour>
		<contour>
			<point x="301.8933333333" y="93.6133333333" type="line"/>
			<point x="705.56" y="1414" type="line"/>
			<point x="376.6266666667" y="1414" type="line"/>
			<point x="355.6533333333" y="1347.2133333333" type="line"/>
			<point x="552.32" y="1320.3866666667" type="line"/>
			<point x="176.9866666667" y="93.6133333333" type="line"/>
			<point x="-29.4266666667" y="66.7866666667" type="line"/>
			<point x="-49.7733333333" y="0" type="line"/>
			<point x="477.5866666667" y="0" type="line"/>
			<point x="497.56" y="66.7866666667" type="line"/>
		</contour>
	</outline>
	<anchor name="UCtop" x="900.8933333333" y="1414"/>
	<anchor name="bottom" x="697.8933333333" y="0"/>
</glyph>
<glyph name="S" format="2">
	<unicode hex="0053"/>
	<advance width="1229.52"/>
	<outline>
		<contour>
			<point x="1151.9333333333" y="1250.0666666667" type="curve"/>
			<point x="1121.32" y="1293.5466666667" type="line"/>
			<point x="1094.2533333333" y="993.0266666667" type="line"/>
			<point x="1181.5066666667" y="993.0266666667" type="line"/>
			<point x="1290.6933333333" y="1471.4666666667" type="line"/>
			<point x="1217.2933333333" y="1471.4666666667" type="line"/>
			<point x="1148.5333333333" y="1357.84" type="line"/>
			<point x="1205.3733333333" y="1354.2666666667" type="line"/>
			<point x="1118.16" y="1402.7333333333"/>
			<point x="994.0266666667" y="1433.3733333333"/>
			<point x="857.1733333333" y="1433.3733333333" type="curve" smooth="yes"/>
			<point x="471.2" y="1433.3733333333"/>
			<point x="320.5333333333" y="1253.4933333333"/>
			<point x="320.5333333333" y="1029.5866666667" type="curve" smooth="yes"/>
			<point x="320.5333333333" y="841.0133333333"/>
			<point x="454.64" y="773.6266666667"/>
			<point x="611.76" y="714.48" type="curve" smooth="yes"/>
			<point x="768.88" y="655.3333333333"/>
			<point x="944.5733333333" y="606.0666666667"/>
			<point x="944.5733333333" y="420.2533333333" type="curve" smooth="yes"/>
			<point x="944.5733333333" y="212.2933333333"/>
			<point x="782.0133333333" y="72.6133333333"/>
			<point x="481.2266666667" y="72.6133333333" type="curve" smooth="yes"/>
			<point x="359.5466666667" y="72.6133333333"/>
			<point x="252.4666666667" y="88.2533333333"/>
			<point x="175.3066666667" y="126.44" type="curve"/>
			<point x="235.1066666667" y="29.9733333333" type="line"/>
			<point x="171.88" y="412.0666666667" type="line"/>
			<point x="89.7733333333" y="412.0666666667" type="line"/>
			<point x="83.2133333333" y="38.2666666667" type="line"/>
			<point x="176.6933333333" y="5.2666666667"/>
			<point x="316.4133333333" y="-20"/>
			<point x="468.84" y="-20" type="curve" smooth="yes"/>
			<point x="845.12" y="-20"/>
			<point x="1066.6266666667" y="160.72"/>
			<point x="1066.6266666667" y="450.8266666667" type="curve" smooth="yes"/>
			<point x="1066.6266666667" y="670.04"/>
			<point x="895" y="737.5333333333"/>
			<point x="734.3866666667" y="796.6666666667" type="curve" smooth="yes"/>
			<point x="573.7733333333" y="855.8"/>
			<point x="437.96" y="903.84"/>
			<point x="437.96" y="1060.5066666667" type="curve" smooth="yes"/>
			<point x="437.96" y="1212.16"/>
			<point x="537.2266666667" y="1342"/>
			<point x="829.56" y="1342" type="curve" smooth="yes"/>
			<point x="980.1333333333" y="1342"/>
			<point x="1080.1333333333" y="1308.6133333333"/>
		</contour>
	</outline>
	<anchor name="UCtop" x="824.72" y="1414"/>
	<anchor name="bottom" x="545.4533333333" y="0"/>
</glyph>
<glyph name="T" format="2">
	<unicode hex="0054"/>
	<advance width="1379.3733333333"/>
	<outline>
		<contour>
			<point x="1428.3733333333" y="1315.6533333333" type="line"/>
			<point x="1388.48" y="1343.6266666667" type="line"/>
			<point x="1384.9066666667" y="1008.9066666667" type="line"/>
			<point x="1470.9066666667" y="1008.9066666667" type="line"/>
			<point x="1543.8933333333" y="1491.4666666667" type="line"/>
			<point x="1466.9733333333" y="1491.4666666667" type="line"/>
			<point x="1402.0933333333" y="1395.3866666667" type="line"/>
			<point x="1493.6266666667" y="1414" type="line"/>
			<point x="436.2" y="1414" type="line"/>
			<point x="507.2266666667" y="1395.3866666667" type="line"/>
			<point x="502.56" y="1491.4666666667" type="line"/>
			<point x="421.88" y="1491.4666666667" type="line"/>
			<point x="215.1733333333" y="1008.9066666667" type="line"/>
			<point x="306.6666666667" y="1008.9066666667" type="line"/>
			<point x="503.84" y="1343.6266666667" type="line"/>
			<point x="430.7466666667" y="1315.6533333333" type="line"/>
		</contour>
		<contour>
			<point x="891.8933333333" y="1385.72" type="line"/>
			<point x="496.5733333333" y="93.6133333333" type="line"/>
			<point x="290.16" y="66.7866666667" type="line"/>
			<point x="269.8133333333" y="0" type="line"/>
			<point x="797.1733333333" y="0" type="line"/>
			<point x="817.1466666667" y="66.7866666667" type="line"/>
			<point x="621.48" y="93.6133333333" type="line"/>
			<point x="1016.8" y="1385.72" type="line"/>
		</contour>
	</outline>
	<anchor name="UCtop" x="942.2533333333" y="1414"/>
	<anchor name="bottom" x="553.7333333333" y="0"/>
</glyph>
<glyph name="U" format="2">
	<unicode hex="0055"/>
	<advance width="1604.6666666667"/>
	<outline>
		<contour>
			<point x="411.88" y="552.08" type="curve" smooth="yes"/>
			<point x="647.1466666667" y="1320.3866666667" type="line"/>
			<point x="852.9333333333" y="1347.2133333333" type="line"/>
			<point x="873.5333333333" y="1414" type="line"/>
			<point x="346.5466666667" y="1414" type="line"/>
			<point x="325.5733333333" y="1347.2133333333" type="line"/>
			<point x="522.24" y="1320.3866666667" type="line"/>
			<point x="294.9333333333" y="578.4533333333" type="line" smooth="yes"/>
			<point x="158.56" y="134.08"/>
			<point x="327.7466666667" y="-20"/>
			<point x="694.44" y="-20" type="curve" smooth="yes"/>
			<point x="1013.6133333333" y="-20"/>
			<point x="1207.3733333333" y="122.48"/>
			<point x="1326.88" y="513.2533333333" type="curve" smooth="yes"/>
			<point x="1572.92" y="1320.3866666667" type="line"/>
			<point x="1779.3333333333" y="1347.2133333333" type="line"/>
			<point x="1799.56" y="1414" type="line"/>
			<point x="1299.2533333333" y="1414" type="line"/>
			<point x="1279.6533333333" y="1347.2133333333" type="line"/>
			<point x="1476.0666666667" y="1320.3866666667" type="line"/>
			<point x="1239.8133333333" y="547.12" type="line" smooth="yes"/>
			<point x="1134.36" y="202.8666666667"/>
			<point x="988.0666666667" y="86.96"/>
			<point x="714.6533333333" y="86.96" type="curve" smooth="yes"/>
			<point x="419.6533333333" y="86.96"/>
			<point x="306.56" y="207.9733333333"/>
		</contour>
	</outline>
	<anchor name="UCtop" x="1063.6" y="1414"/>
	<anchor name="right" x="832.56" y="0"/>
	<anchor name="bottom" x="658.72" y="0"/>
	<anchor name="horn" x="1616.76" y="1414"/>
</glyph>
<glyph name="V" format="2">
	<unicode hex="0056"/>
	<advance width="1506.04"/>
	<outline>
		<contour>
			<point x="428.5733333333" y="1321.0133333333" type="line"/>
			<point x="534.8266666667" y="-7.4666666667" type="line"/>
			<point x="690.04" y="-7.4666666667" type="line"/>
			<point x="1545.68" y="1320.3866666667" type="line"/>
			<point x="1729.96" y="1347.2133333333" type="line"/>
			<point x="1750.9333333333" y="1414" type="line"/>
			<point x="1270.1733333333" y="1414" type="line"/>
			<point x="1250.2" y="1347.2133333333" type="line"/>
			<point x="1429.4933333333" y="1321.0133333333" type="line"/>
			<point x="626.88" y="55.44" type="line"/>
			<point x="651.12" y="55.44" type="line"/>
			<point x="557.3466666667" y="1320.3866666667" type="line"/>
			<point x="763.0133333333" y="1347.2133333333" type="line"/>
			<point x="783.9866666667" y="1414" type="line"/>
			<point x="272.1333333333" y="1414" type="line"/>
			<point x="251.16" y="1347.2133333333" type="line"/>
		</contour>
	</outline>
	<anchor name="UCtop" x="1019.2666666667" y="1414"/>
	<anchor name="bottom" x="632.4" y="0"/>
</glyph>
<glyph name="W" format="2">
	<unicode hex="0057"/>
	<advance width="2040.0933333333"/>
	<outline>
		<contour>
			<point x="1974.52" y="1321.0133333333" type="line"/>
			<point x="1330.9733333333" y="74.8133333333" type="line"/>
			<point x="1363.1466666667" y="74.8133333333" type="line"/>
			<point x="1386.76" y="1414" type="line"/>
			<point x="1231.64" y="1414" type="line"/>
			<point x="430.44" y="74.8133333333" type="line"/>
			<point x="460.5066666667" y="74.8133333333" type="line"/>
			<point x="577.9466666667" y="1320.3866666667" type="line"/>
			<point x="782.36" y="1347.2133333333" type="line"/>
			<point x="802.96" y="1414" type="line"/>
			<point x="285.1066666667" y="1414" type="line"/>
			<point x="264.5066666667" y="1347.2133333333" type="line"/>
			<point x="450.9466666667" y="1321.0133333333" type="line"/>
			<point x="326.12" y="0" type="line"/>
			<point x="491.56" y="0" type="line"/>
			<point x="1283.6266666667" y="1315.6533333333" type="line"/>
			<point x="1258.2666666667" y="1315.6533333333" type="line"/>
			<point x="1230.0266666667" y="0" type="line"/>
			<point x="1390.6133333333" y="0" type="line"/>
			<point x="2081.7333333333" y="1320.3866666667" type="line"/>
			<point x="2261" y="1347.2133333333" type="line"/>
			<point x="2281.6" y="1414" type="line"/>
			<point x="1810.56" y="1414" type="line"/>
			<point x="1790.2133333333" y="1347.2133333333" type="line"/>
		</contour>
	</outline>
	<anchor name="UCtop" x="1267.72" y="1414"/>
	<anchor name="bottom" x="908.5866666667" y="0"/>
</glyph>
<glyph name="X" format="2">
	<unicode hex="0058"/>
	<advance width="1563.52"/>
	<outline>
		<contour>
			<point x="834.7466666667" y="680.8533333333" type="line"/>
			<point x="895.3866666667" y="723.6666666667" type="line"/>
			<point x="1547.68" y="1320.3866666667" type="line"/>
			<point x="1726.9466666667" y="1347.2133333333" type="line"/>
			<point x="1747.5466666667" y="1414" type="line"/>
			<point x="1265.2666666667" y="1414" type="line"/>
			<point x="1242.16" y="1347.2133333333" type="line"/>
			<point x="1420.8666666667" y="1321.0133333333" type="line"/>
			<point x="860.1866666667" y="796.8" type="line"/>
			<point x="796.4133333333" y="752.9866666667" type="line"/>
			<point x="84.36" y="93.6133333333" type="line"/>
			<point x="-95.5333333333" y="66.7866666667" type="line"/>
			<point x="-115.5066666667" y="0" type="line"/>
			<point x="371.16" y="0" type="line"/>
			<point x="391.76" y="66.7866666667" type="line"/>
			<point x="213.0533333333" y="92.9866666667" type="line"/>
		</contour>
		<contour>
			<point x="1075.9466666667" y="93.6133333333" type="line"/>
			<point x="872.1066666667" y="66.7866666667" type="line"/>
			<point x="851.1333333333" y="0" type="line"/>
			<point x="1374.8933333333" y="0" type="line"/>
			<point x="1395.8666666667" y="66.7866666667" type="line"/>
			<point x="1214.9466666667" y="92.9866666667" type="line"/>
			<point x="907.3466666667" y="769.4666666667" type="line"/>
			<point x="893.2533333333" y="799.16" type="line"/>
			<point x="657.7066666667" y="1320.3866666667" type="line"/>
			<point x="861.92" y="1347.2133333333" type="line"/>
			<point x="885.6533333333" y="1414" type="line"/>
			<point x="358.76" y="1414" type="line"/>
			<point x="338.16" y="1347.2133333333" type="line"/>
			<point x="519.08" y="1321.0133333333" type="line"/>
			<point x="792.68" y="719.5466666667" type="line"/>
			<point x="806.9066666667" y="689.2133333333" type="line"/>
		</contour>
	</outline>
	<anchor name="UCtop" x="1040.4533333333" y="1414"/>
	<anchor name="bottom" x="646.2533333333" y="0"/>
</glyph>
<glyph name="Y" format="2">
	<unicode hex="0059"/>
	<advance width="1453.1466666667"/>
	<outline>
		<contour>
			<point x="1370.72" y="1321.0133333333" type="line"/>
			<point x="760.0666666667" y="658.4533333333" type="line"/>
			<point x="793.4933333333" y="658.4533333333" type="line"/>
			<point x="578.24" y="1320.3866666667" type="line"/>
			<point x="776.44" y="1347.2133333333" type="line"/>
			<point x="798.92" y="1414" type="line"/>
			<point x="284.1333333333" y="1414" type="line"/>
			<point x="263.5333333333" y="1347.2133333333" type="line"/>
			<point x="450.72" y="1321.0133333333" type="line"/>
			<point x="692.8133333333" y="598.5466666667" type="line"/>
			<point x="538.1333333333" y="93.6133333333" type="line"/>
			<point x="331.72" y="66.7866666667" type="line"/>
			<point x="311.3733333333" y="0" type="line"/>
			<point x="838.7333333333" y="0" type="line"/>
			<point x="858.7066666667" y="66.7866666667" type="line"/>
			<point x="663.04" y="93.6133333333" type="line"/>
			<point x="818.84" y="602.28" type="line"/>
			<point x="1490.8933333333" y="1320.3866666667" type="line"/>
			<point x="1668.5466666667" y="1347.2133333333" type="line"/>
			<point x="1688.8933333333" y="1414" type="line"/>
			<point x="1211.3866666667" y="1414" type="line"/>
			<point x="1188.9066666667" y="1347.2133333333" type="line"/>
		</contour>
	</outline>
	<anchor name="UCtop" x="969.68" y="1414"/>
	<anchor name="bottom" x="596.68" y="0"/>
</glyph>
<glyph name="Z" format="2">
	<unicode hex="005A"/>
	<advance width="1303.8"/>
	<outline>
		<contour>
			<point x="1420.7866666667" y="1414" type="line"/>
			<point x="525.5866666667" y="1414" type="line"/>
			<point x="496.1466666667" y="1484" type="line"/>
			<point x="428.12" y="1484" type="line"/>
			<point x="293.6533333333" y="1030.8266666667" type="line"/>
			<point x="379.6533333333" y="1030.8266666667" type="line"/>
			<point x="511.3866666667" y="1319.3866666667" type="line"/>
			<point x="1294.6666666667" y="1319.3866666667" type="line"/>
			<point x="1268.6533333333" y="1356.8266666667" type="line"/>
			<point x="-2.0266666667" y="85.24" type="line"/>
			<point x="-27.9866666667" y="0" type="line"/>
			<point x="879.3333333333" y="0" type="line"/>
			<point x="880.4133333333" y="-70.7466666667" type="line"/>
			<point x="965.0666666667" y="-70.7466666667" type="line"/>
			<point x="1174.1466666667" y="393.1466666667" type="line"/>
			<point x="1087.88" y="393.1466666667" type="line"/>
			<point x="902.8" y="94.6133333333" type="line"/>
			<point x="102.6533333333" y="94.6133333333" type="line"/>
			<point x="124.6533333333" y="56.8" type="line"/>
			<point x="1394.4533333333" y="1328.1333333333" type="line"/>
		</contour>
	</outline>
	<anchor name="UCtop" x="922.5866666667" y="1414"/>
	<anchor name="bottom" x="488.3866666667" y="0"/>
</glyph>
<glyph name="bracketleft" format="2">
	<unicode hex="005B"/>
	<advance width="701"/>
	<outline>
		<contour>
			<point x="8.9066666667" y="-222.2533333333" type="line"/>
			<point x="419.64" y="-222.2533333333" type="line"/>
			<point x="445.1066666667" y="-140.36" type="line"/>
			<point x="145.9466666667" y="-140.36" type="line"/>
			<point x="611.0133333333" y="1382.1066666667" type="line"/>
			<point x="910.1733333333" y="1382.1066666667" type="line"/>
			<point x="935.64" y="1464" type="line"/>
			<point x="524.5333333333" y="1464" type="line"/>
		</contour>
	</outline>
</glyph>
<glyph name="backslash" format="2">
	<unicode hex="005C"/>
	<advance width="803.2"/>
	<outline>
		<contour>
			<point x="569.6666666667" y="0" type="line"/>
			<point x="433.4266666667" y="1414" type="line"/>
			<point x="348.7866666667" y="1414" type="line"/>
			<point x="485.0266666667" y="0" type="line"/>
		</contour>
	</outline>
</glyph>
<glyph name="bracketright" format="2">
	<unicode hex="005D"/>
	<advance width="702.2533333333"/>
	<outline>
		<contour>
			<point x="757.9733333333" y="1464" type="line"/>
			<point x="347.24" y="1464" type="line"/>
			<point x="322.4" y="1382.1066666667" type="line"/>
			<point x="620.9333333333" y="1382.1066666667" type="line"/>
			<point x="155.8666666667" y="-140.36" type="line"/>
			<point x="-143.2933333333" y="-140.36" type="line"/>
			<point x="-168.1333333333" y="-222.2533333333" type="line"/>
			<point x="242.9733333333" y="-222.2533333333" type="line"/>
		</contour>
	</outline>
</glyph>
<glyph name="asciicircum" format="2">
	<unicode hex="005E"/>
	<advance width="1200"/>
	<outline>
		<contour>
			<point x="852.2933333333" y="1339.8" type="line"/>
			<point x="962.3066666667" y="646.3733333333" type="line"/>
			<point x="1046.2133333333" y="646.3733333333" type="line"/>
			<point x="920.7066666667" y="1414" type="line"/>
			<point x="837.8" y="1414" type="line"/>
			<point x="244.2933333333" y="646.3733333333" type="line"/>
			<point x="349.1866666667" y="646.3733333333" type="line"/>
			<point x="881.48" y="1339.8" type="line"/>
		</contour>
	</outline>
</glyph>
<glyph name="a" format="2">
	<unicode hex="0061"/>
	<advance width="1268.1333333333"/>
	<outline>
		<contour>
			<point x="752.8533333333" y="83.8533333333" type="line" smooth="yes"/>
			<point x="724.1066666667" y="12.12"/>
			<point x="742.4533333333" y="-20"/>
			<point x="811.6533333333" y="-20" type="curve" smooth="yes"/>
			<point x="880.1333333333" y="-20"/>
			<point x="1016.6266666667" y="9.36"/>
			<point x="1212.2133333333" y="145.1466666667" type="curve"/>
			<point x="1186.76" y="192.08" type="line"/>
			<point x="1010.32" y="93.7066666667"/>
			<point x="888.36" y="74.8533333333"/>
			<point x="802.88" y="83.9733333333" type="curve"/>
			<point x="831.84" y="36.52" type="line"/>
			<point x="1181" y="1024" type="line"/>
			<point x="1087.08" y="1024" type="line"/>
			<point x="1008.6933333333" y="858.04" type="line"/>
			<point x="958.2666666667" y="709.8666666667" type="line" smooth="yes"/>
			<point x="852.2933333333" y="407.1333333333"/>
			<point x="572.96" y="69.12"/>
			<point x="352.2933333333" y="69.12" type="curve" smooth="yes"/>
			<point x="231.4666666667" y="69.12"/>
			<point x="169.96" y="125.8933333333"/>
			<point x="169.96" y="248.5866666667" type="curve" smooth="yes"/>
			<point x="169.96" y="517.9066666667"/>
			<point x="438.92" y="967.9866666667"/>
			<point x="757.36" y="967.9866666667" type="curve" smooth="yes"/>
			<point x="871.5466666667" y="967.9866666667"/>
			<point x="962.4533333333" y="917.3333333333"/>
			<point x="1023.84" y="802.3333333333" type="curve"/>
			<point x="1028.72" y="833" type="line"/>
			<point x="982.68" y="961.9866666667"/>
			<point x="895.92" y="1044"/>
			<point x="751.0266666667" y="1044" type="curve" smooth="yes"/>
			<point x="349.88" y="1044"/>
			<point x="49.8933333333" y="540.6"/>
			<point x="49.8933333333" y="225.7466666667" type="curve" smooth="yes"/>
			<point x="49.8933333333" y="78.28"/>
			<point x="139.84" y="-20"/>
			<point x="311" y="-20" type="curve" smooth="yes"/>
			<point x="472.5466666667" y="-20"/>
			<point x="640.48" y="80.0533333333"/>
			<point x="885.1066666667" y="453.1333333333" type="curve"/>
			<point x="900.08" y="453.1333333333" type="line"/>
		</contour>
	</outline>
	<anchor name="top" x="824.32" y="1024"/>
	<anchor name="right" x="1116.5466666667" y="0"/>
	<anchor name="bottom" x="491.6533333333" y="0"/>
</glyph>
<glyph name="b" format="2">
	<unicode hex="0062"/>
	<advance width="1177.72"/>
	<outline>
		<contour>
			<point x="251.2266666667" y="355.7733333333" type="curve" smooth="yes"/>
			<point x="291.48" y="487.0666666667" type="line" smooth="yes"/>
			<point x="345.16" y="658.52"/>
			<point x="562.56" y="949.9066666667"/>
			<point x="805.2933333333" y="949.9066666667" type="curve" smooth="yes"/>
			<point x="913.4533333333" y="949.9066666667"/>
			<point x="986.1333333333" y="870.8533333333"/>
			<point x="986.1333333333" y="750.92" type="curve" smooth="yes"/>
			<point x="986.1333333333" y="409.2133333333"/>
			<point x="753.2133333333" y="54.8933333333"/>
			<point x="454.1733333333" y="54.8933333333" type="curve" smooth="yes"/>
			<point x="306.0933333333" y="54.8933333333"/>
			<point x="230.84" y="119.7733333333"/>
			<point x="230.84" y="236.1866666667" type="curve" smooth="yes"/>
			<point x="230.84" y="271.5866666667"/>
			<point x="237.72" y="311.24"/>
		</contour>
		<contour>
			<point x="428.7066666667" y="1344.7066666667" type="curve"/>
			<point x="145.0266666667" y="378.12" type="line" smooth="yes"/>
			<point x="128.7733333333" y="322.36"/>
			<point x="120.1466666667" y="271.6"/>
			<point x="120.1466666667" y="226.72" type="curve" smooth="yes"/>
			<point x="120.1466666667" y="67.48"/>
			<point x="225.88" y="-20"/>
			<point x="440.6" y="-20" type="curve" smooth="yes"/>
			<point x="811.0933333333" y="-20"/>
			<point x="1106.6933333333" y="379.7066666667"/>
			<point x="1106.6933333333" y="756.6266666667" type="curve" smooth="yes"/>
			<point x="1106.6933333333" y="916.88"/>
			<point x="1017.3333333333" y="1044"/>
			<point x="839.5466666667" y="1044" type="curve" smooth="yes"/>
			<point x="659.44" y="1044"/>
			<point x="485.9333333333" y="901.3733333333"/>
			<point x="331.64" y="673.7733333333" type="curve"/>
			<point x="317.4133333333" y="673.7733333333" type="line"/>
			<point x="584.08" y="1484" type="line"/>
			<point x="547.72" y="1484" type="line"/>
			<point x="213.4933333333" y="1434.4266666667" type="line"/>
			<point x="202.5066666667" y="1384.2266666667" type="line"/>
			<point x="260.5066666667" y="1373.1333333333"/>
			<point x="390.7066666667" y="1352.1866666667"/>
		</contour>
	</outline>
	<anchor name="UCtop" x="831.6133333333" y="1414"/>
	<anchor name="bottom" x="404.3333333333" y="0"/>
</glyph>
<glyph name="c" format="2">
	<unicode hex="0063"/>
	<advance width="1003.6933333333"/>
	<outline>
		<contour>
			<point x="692.68" y="971.36" type="curve" smooth="yes"/>
			<point x="730.08" y="971.36"/>
			<point x="767.7066666667" y="950.1333333333"/>
			<point x="808.9466666667" y="902.5466666667" type="curve" smooth="yes"/>
			<point x="850.1866666667" y="854.96"/>
			<point x="876.04" y="820.9466666667"/>
			<point x="894.7733333333" y="820.9466666667" type="curve" smooth="yes"/>
			<point x="941.24" y="820.9466666667"/>
			<point x="982.8" y="860.1466666667"/>
			<point x="982.8" y="912.2266666667" type="curve" smooth="yes"/>
			<point x="982.8" y="977.2666666667"/>
			<point x="902.7466666667" y="1044"/>
			<point x="720.1333333333" y="1044" type="curve" smooth="yes"/>
			<point x="345.6133333333" y="1044"/>
			<point x="88.2666666667" y="703.1866666667"/>
			<point x="88.2666666667" y="322.6133333333" type="curve" smooth="yes"/>
			<point x="88.2666666667" y="85.7333333333"/>
			<point x="215.9066666667" y="-20"/>
			<point x="420.2" y="-20" type="curve" smooth="yes"/>
			<point x="633.7866666667" y="-20"/>
			<point x="775.9066666667" y="83.68"/>
			<point x="894.1866666667" y="346.52" type="curve"/>
			<point x="826.28" y="346.52" type="line"/>
			<point x="714.6" y="137"/>
			<point x="597.3333333333" y="75.36"/>
			<point x="441.0133333333" y="75.36" type="curve" smooth="yes"/>
			<point x="288.36" y="75.36"/>
			<point x="205.3333333333" y="146.7733333333"/>
			<point x="205.3333333333" y="354.7066666667" type="curve" smooth="yes"/>
			<point x="205.3333333333" y="692"/>
			<point x="416.6933333333" y="971.36"/>
		</contour>
	</outline>
	<anchor name="top" x="671.48" y="1024"/>
	<anchor name="right" x="767.1333333333" y="0"/>
	<anchor name="bottom" x="436.0266666667" y="0"/>
</glyph>
<glyph name="d" format="2">
	<unicode hex="0064"/>
	<advance width="1277.5466666667"/>
	<outline>
		<contour>
			<point x="1023.2133333333" y="802.3333333333" type="curve"/>
			<point x="1028.0933333333" y="833" type="line"/>
			<point x="982.0533333333" y="961.9866666667"/>
			<point x="895.2933333333" y="1044"/>
			<point x="750.4" y="1044" type="curve" smooth="yes"/>
			<point x="349.2533333333" y="1044"/>
			<point x="50.52" y="540.6"/>
			<point x="50.52" y="225.7466666667" type="curve" smooth="yes"/>
			<point x="50.52" y="78.28"/>
			<point x="139.2133333333" y="-20"/>
			<point x="310.3733333333" y="-20" type="curve" smooth="yes"/>
			<point x="471.92" y="-20"/>
			<point x="646.7466666667" y="82.56"/>
			<point x="891.3733333333" y="455.64" type="curve"/>
			<point x="906.3466666667" y="455.64" type="line"/>
			<point x="773.5333333333" y="83.8533333333" type="line" smooth="yes"/>
			<point x="747.92" y="11.4933333333"/>
			<point x="763.1333333333" y="-20"/>
			<point x="832.3333333333" y="-20" type="curve" smooth="yes"/>
			<point x="900.8133333333" y="-20"/>
			<point x="1037.3066666667" y="9.36"/>
			<point x="1232.8933333333" y="145.1466666667" type="curve"/>
			<point x="1207.44" y="192.08" type="line"/>
			<point x="1031" y="93.7066666667"/>
			<point x="909.04" y="74.8533333333"/>
			<point x="823.56" y="83.9733333333" type="curve"/>
			<point x="852.52" y="36.52" type="line"/>
			<point x="1299.96" y="1484" type="line"/>
			<point x="1263.6" y="1484" type="line"/>
			<point x="931.2533333333" y="1434.4266666667" type="line"/>
			<point x="920.2666666667" y="1384.2266666667" type="line"/>
			<point x="977.2666666667" y="1373.3842274598"/>
			<point x="1110.4666666667" y="1351.5545230079"/>
			<point x="1146.4666666667" y="1344.7066666667" type="curve"/>
			<point x="951.0533333333" y="684.7333333333" type="line" smooth="yes"/>
			<point x="874.7733333333" y="431.6533333333"/>
			<point x="581.72" y="69.12"/>
			<point x="351.6666666667" y="69.12" type="curve" smooth="yes"/>
			<point x="232.0933333333" y="69.12"/>
			<point x="169.3333333333" y="129.0266666667"/>
			<point x="169.3333333333" y="254.2266666667" type="curve" smooth="yes"/>
			<point x="169.3333333333" y="517.9066666667"/>
			<point x="438.2933333333" y="967.9866666667"/>
			<point x="756.7333333333" y="967.9866666667" type="curve" smooth="yes"/>
			<point x="870.92" y="967.9866666667"/>
			<point x="961.8266666667" y="917.3333333333"/>
		</contour>
	</outline>
	<anchor name="UCtop" x="925.12" y="1414"/>
	<anchor name="right" x="1292.96" y="1464"/>
	<anchor name="bottom" x="512.2933333333" y="0"/>
	<anchor name="center" x="1105.8266666667" y="1207"/>
</glyph>
<glyph name="e" format="2">
	<unicode hex="0065"/>
	<advance width="1052.8666666667"/>
	<outline>
		<contour>
			<point x="700.8133333333" y="966.9866666667" type="curve" smooth="yes"/>
			<point x="868.24" y="966.9866666667"/>
			<point x="909.96" y="852.96"/>
			<point x="874.8666666667" y="715.08" type="curve" smooth="yes"/>
			<point x="795.28" y="646.68"/>
			<point x="658.2" y="604.28"/>
			<point x="204.7333333333" y="531.0666666667" type="curve"/>
			<point x="203.3733333333" y="465.28" type="line"/>
			<point x="502.7333333333" y="509.84"/>
			<point x="739.1866666667" y="553.84"/>
			<point x="954.76" y="613.6933333333" type="curve"/>
			<point x="984.12" y="679.3466666667"/>
			<point x="1000.8533333333" y="748.5733333333"/>
			<point x="1000.8533333333" y="808.1733333333" type="curve" smooth="yes"/>
			<point x="1000.8533333333" y="952.68"/>
			<point x="913.7066666667" y="1044"/>
			<point x="726.3866666667" y="1044" type="curve" smooth="yes"/>
			<point x="357.0933333333" y="1044"/>
			<point x="93.0266666667" y="748.2533333333"/>
			<point x="93.0266666667" y="322.6133333333" type="curve" smooth="yes"/>
			<point x="93.0266666667" y="85.7333333333"/>
			<point x="219.44" y="-20"/>
			<point x="426.8666666667" y="-20" type="curve" smooth="yes"/>
			<point x="617.5066666667" y="-20"/>
			<point x="776.9733333333" y="54.5866666667"/>
			<point x="912.7333333333" y="346.52" type="curve"/>
			<point x="843.5733333333" y="346.52" type="line"/>
			<point x="728.8933333333" y="138.4933333333"/>
			<point x="612.1466666667" y="75.36"/>
			<point x="447.68" y="75.36" type="curve" smooth="yes"/>
			<point x="286.88" y="75.36"/>
			<point x="208.84" y="159.3066666667"/>
			<point x="208.84" y="355.96" type="curve" smooth="yes"/>
			<point x="208.84" y="735.32"/>
			<point x="430.6666666667" y="966.9866666667"/>
		</contour>
	</outline>
	<anchor name="top" x="648.9333333333" y="1024"/>
	<anchor name="right" x="808.92" y="0"/>
	<anchor name="bottom" x="439.6266666667" y="0"/>
</glyph>
<glyph name="f" format="2">
	<unicode hex="0066"/>
	<advance width="752.88"/>
	<outline>
		<contour>
			<point x="146.88" y="944.2266666667" type="line"/>
			<point x="855.4133333333" y="944.2266666667" type="line"/>
			<point x="855.4133333333" y="1024" type="line"/>
			<point x="146.88" y="1024" type="line"/>
		</contour>
		<contour>
			<point x="361.16" y="95.9333333333" type="curve" smooth="yes"/>
			<point x="571.88" y="1086.92" type="line" smooth="yes"/>
			<point x="619.1333333333" y="1310.92"/>
			<point x="734.4266666667" y="1421.5866666667"/>
			<point x="909.2133333333" y="1421.5866666667" type="curve" smooth="yes"/>
			<point x="957.9866666667" y="1421.5866666667"/>
			<point x="985.12" y="1417.96"/>
			<point x="999.9733333333" y="1398.2133333333" type="curve" smooth="yes"/>
			<point x="1014.8266666667" y="1378.4666666667"/>
			<point x="1019.68" y="1344"/>
			<point x="1020.7733333333" y="1282.5733333333" type="curve" smooth="yes"/>
			<point x="1127.1066666667" y="1280.6933333333"/>
			<point x="1161.8" y="1311.1466666667"/>
			<point x="1161.8" y="1372.5866666667" type="curve" smooth="yes"/>
			<point x="1161.8" y="1437.6533333333"/>
			<point x="1096.24" y="1484"/>
			<point x="946.32" y="1484" type="curve" smooth="yes"/>
			<point x="693.1733333333" y="1484"/>
			<point x="510.96" y="1333.4933333333"/>
			<point x="443.68" y="1008.0266666667" type="curve" smooth="yes"/>
			<point x="241.8666666667" y="29.9066666667" type="line" smooth="yes"/>
			<point x="179.6133333333" y="-271.1733333333"/>
			<point x="66.5866666667" y="-395.48"/>
			<point x="-87.8933333333" y="-395.48" type="curve" smooth="yes"/>
			<point x="-126.64" y="-395.48"/>
			<point x="-150.1333333333" y="-391.36"/>
			<point x="-163.3733333333" y="-370.4933333333" type="curve" smooth="yes"/>
			<point x="-176.6133333333" y="-349.6266666667"/>
			<point x="-179.3466666667" y="-314.1466666667"/>
			<point x="-177.9466666667" y="-251.0533333333" type="curve" smooth="yes"/>
			<point x="-283.16" y="-249.1733333333"/>
			<point x="-315.6133333333" y="-277.76"/>
			<point x="-315.6133333333" y="-339.5733333333" type="curve" smooth="yes"/>
			<point x="-315.6133333333" y="-414.4"/>
			<point x="-258.0133333333" y="-465"/>
			<point x="-130.9066666667" y="-465" type="curve" smooth="yes"/>
			<point x="105.9866666667" y="-465"/>
			<point x="277.56" y="-300.5333333333"/>
		</contour>
	</outline>
	<anchor name="UCtop" x="871.5466666667" y="1414"/>
	<anchor name="bottom" x="-48.64" y="-445"/>
</glyph>
<glyph name="g" format="2">
	<unicode hex="0067"/>
	<advance width="1009.84"/>
	<outline>
		<contour>
			<point x="1069.4266666667" y="928.2933333333" type="curve" smooth="yes"/>
			<point x="1085.2933333333" y="928.2933333333"/>
			<point x="1118.4266666667" y="980.36"/>
			<point x="1118.4266666667" y="1011.8533333333" type="curve" smooth="yes"/>
			<point x="1118.4266666667" y="1022.36"/>
			<point x="1115.68" y="1026.6133333333"/>
			<point x="1106.3066666667" y="1026.6133333333" type="curve" smooth="yes"/>
			<point x="1033.2666666667" y="1026.6133333333"/>
			<point x="849.4933333333" y="1024"/>
			<point x="687.5333333333" y="1024" type="curve"/>
			<point x="737.76" y="957.04" type="line"/>
			<point x="941.3733333333" y="941.36"/>
			<point x="1016.8533333333" y="928.2933333333"/>
		</contour>
		<contour>
			<point x="429.04" y="399.3733333333" type="curve"/>
			<point x="305.6263177885" y="398.6266602652"/>
			<point x="250.84" y="460.5428304094"/>
			<point x="250.84" y="584.9333333333" type="curve" smooth="yes"/>
			<point x="250.84" y="775.4725802032"/>
			<point x="377.2133333333" y="972.72"/>
			<point x="595.84" y="972.72" type="curve"/>
			<point x="719.2533333333" y="972.72"/>
			<point x="774.04" y="911.1677775571"/>
			<point x="774.04" y="787.16" type="curve" smooth="yes"/>
			<point x="774.04" y="596.6207531302"/>
			<point x="647.6666938701" y="399.7466668258"/>
		</contour>
		<contour>
			<point x="602.08" y="1044" type="curve"/>
			<point x="318.7866666667" y="1044"/>
			<point x="142.0133333333" y="801.1733333333"/>
			<point x="142.0133333333" y="567.8133333333" type="curve" smooth="yes"/>
			<point x="142.0133333333" y="426.04"/>
			<point x="223.52" y="328.0933333333"/>
			<point x="422.8" y="328.0933333333" type="curve"/>
			<point x="705.4666666667" y="328.0933333333"/>
			<point x="882.8666666667" y="570.92"/>
			<point x="882.8666666667" y="803.9066666667" type="curve" smooth="yes"/>
			<point x="882.8666666667" y="946.0533333333"/>
			<point x="801.36" y="1044"/>
		</contour>
		<contour>
			<point x="338.6666666667" y="-464.6266666667" type="curve" smooth="yes"/>
			<point x="715.68" y="-464.6266666667"/>
			<point x="882.4" y="-332.88"/>
			<point x="882.4" y="-157.5466666667" type="curve" smooth="yes"/>
			<point x="882.4" y="-31.2133333333"/>
			<point x="806.0533333333" y="49.7733333333"/>
			<point x="513.48" y="94" type="curve" smooth="yes"/>
			<point x="244.1733333333" y="134.12"/>
			<point x="207.4" y="156.6266666667"/>
			<point x="207.4" y="225.2933333333" type="curve" smooth="yes"/>
			<point x="207.4" y="282.8133333333"/>
			<point x="248.2666666667" y="319.96"/>
			<point x="397.28" y="332.6" type="curve"/>
			<point x="397.3333333333" y="357.5866666667" type="line"/>
			<point x="186.5466666667" y="336.3466666667"/>
			<point x="106.32" y="286.04"/>
			<point x="106.32" y="187.8666666667" type="curve" smooth="yes"/>
			<point x="106.32" y="103.0933333333"/>
			<point x="146.6" y="42.3866666667"/>
			<point x="430.48" y="1.7733333333" type="curve" smooth="yes"/>
			<point x="718.4666666667" y="-39.5866666667"/>
			<point x="768.68" y="-79.8533333333"/>
			<point x="768.68" y="-182.52" type="curve" smooth="yes"/>
			<point x="768.68" y="-298.44"/>
			<point x="636.64" y="-392.1066666667"/>
			<point x="357.4933333333" y="-392.1066666667" type="curve" smooth="yes"/>
			<point x="95.72" y="-392.1066666667"/>
			<point x="21.3866666667" y="-313.3333333333"/>
			<point x="21.3866666667" y="-204.8133333333" type="curve" smooth="yes"/>
			<point x="21.3866666667" y="-76.28"/>
			<point x="117.4533333333" y="14.88"/>
			<point x="438.64" y="22.4" type="curve"/>
			<point x="316.2266666667" y="70.88" type="line"/>
			<point x="278.04" y="37.7733333333" type="line"/>
			<point x="-10.6666666667" y="-5.2133333333"/>
			<point x="-94.68" y="-97.1466666667"/>
			<point x="-94.68" y="-227.6533333333" type="curve" smooth="yes"/>
			<point x="-94.68" y="-366.5333333333"/>
			<point x="14.8666666667" y="-464.6266666667"/>
		</contour>
	</outline>
	<anchor name="top" x="591.0933333333" y="1024"/>
	<anchor name="bottom" x="393.8933333333" y="-445"/>
</glyph>
<glyph name="h" format="2">
	<unicode hex="0068"/>
	<advance width="1265.0133333333"/>
	<outline>
		<contour>
			<point x="273.7733333333" y="336" type="line"/>
			<point x="378.12" y="679.5866666667"/>
			<point x="631.4266666667" y="936.28"/>
			<point x="855.4666666667" y="936.28" type="curve" smooth="yes"/>
			<point x="949.6533333333" y="936.28"/>
			<point x="992.68" y="900.1333333333"/>
			<point x="992.68" y="833.5733333333" type="curve" smooth="yes"/>
			<point x="992.68" y="794.92"/>
			<point x="979.2933333333" y="744.76"/>
			<point x="948.92" y="673.64" type="curve" smooth="yes"/>
			<point x="698.76" y="91.6933333333" type="line" smooth="yes"/>
			<point x="664.9066666667" y="12.7466666667"/>
			<point x="688" y="-20"/>
			<point x="756.08" y="-20" type="curve" smooth="yes"/>
			<point x="838.76" y="-20"/>
			<point x="984.9866666667" y="15.1066666667"/>
			<point x="1190.8266666667" y="152.1733333333" type="curve"/>
			<point x="1163.88" y="200.6" type="line"/>
			<point x="979.5466666667" y="104.56"/>
			<point x="862.5466666667" y="78.96"/>
			<point x="773.44" y="86.2133333333" type="curve"/>
			<point x="793.8133333333" y="39.88" type="line"/>
			<point x="1053.8933333333" y="645.8133333333" type="line" smooth="yes"/>
			<point x="1094.9866666667" y="742.24"/>
			<point x="1112.12" y="811.3733333333"/>
			<point x="1112.12" y="867.88" type="curve" smooth="yes"/>
			<point x="1112.12" y="974.52"/>
			<point x="1045.8666666667" y="1044"/>
			<point x="896.3466666667" y="1044" type="curve" smooth="yes"/>
			<point x="705.5466666667" y="1044"/>
			<point x="502.5066666667" y="912.2666666667"/>
			<point x="310.7066666667" y="546.9733333333" type="curve"/>
			<point x="291.2533333333" y="546.9733333333" type="line"/>
			<point x="604.9466666667" y="1484" type="line"/>
			<point x="568.5866666667" y="1484" type="line"/>
			<point x="234.36" y="1434.4266666667" type="line"/>
			<point x="223.3733333333" y="1384.2266666667" type="line"/>
			<point x="280.3733333333" y="1373.3842274598"/>
			<point x="413.5733333333" y="1351.5545230079"/>
			<point x="449.5733333333" y="1344.7066666667" type="curve"/>
			<point x="52.9066666667" y="0" type="line"/>
			<point x="172.5866666667" y="0" type="line"/>
		</contour>
	</outline>
	<anchor name="UCtop" x="857.3733333333" y="1414"/>
	<anchor name="bottom" x="477.5866666667" y="0"/>
	<anchor name="center" x="518.16" y="1207"/>
</glyph>
<glyph name="i" format="2">
  <advance width="700"/>
  <unicode hex="0069"/>
  <anchor x="640.1866666666666" y="1414.0" name="top"/>
  <anchor x="219.68" y="0.0" name="bottom"/>
  <anchor x="377.88000000000005" y="0.0" name="right"/>
  <outline>
    <contour>
      <point x="138.85333333333332" y="89.73333333333332" type="line" smooth="yes"/>
      <point x="106.28" y="3.7333333333333325"/>
      <point x="125.89333333333333" y="-20.0"/>
      <point x="193.81333333333333" y="-20.0" type="curve" smooth="yes"/>
      <point x="271.1333333333333" y="-20.0"/>
      <point x="412.62666666666667" y="9.853333333333333"/>
      <point x="609.9733333333334" y="144.16" type="curve"/>
      <point x="583.7733333333333" y="192.58666666666664" type="line"/>
      <point x="410.05333333333334" y="96.06666666666668"/>
      <point x="289.32" y="78.96"/>
      <point x="202.2133333333333" y="86.21333333333332" type="curve"/>
      <point x="231.43999999999997" y="38.626666666666665" type="line"/>
      <point x="568.76" y="934.2666666666667" type="line" smooth="yes"/>
      <point x="598.84" y="1013.9066666666668"/>
      <point x="579.3733333333333" y="1044.0"/>
      <point x="506.3066666666667" y="1044.0" type="curve" smooth="yes"/>
      <point x="431.3333333333333" y="1044.0"/>
      <point x="286.5866666666667" y="1007.1066666666667"/>
      <point x="74.17333333333333" y="846.8133333333333" type="curve"/>
      <point x="103.49333333333334" y="799.0133333333333" type="line"/>
      <point x="293.03999999999996" y="916.2933333333333"/>
      <point x="412.52" y="945.04"/>
      <point x="501.64000000000004" y="937.7866666666666" type="curve"/>
      <point x="473.6666666666667" y="980.36" type="line"/>
    </contour>
    <contour>
      <point x="509.81333333333333" y="1355.8400000000001" type="curve" smooth="yes"/>
      <point x="509.81333333333333" y="1302.0"/>
      <point x="544.9066666666666" y="1270.28"/>
      <point x="609.9466666666667" y="1270.28" type="curve" smooth="yes"/>
      <point x="692.7333333333333" y="1270.28"/>
      <point x="739.8133333333333" y="1319.48"/>
      <point x="739.8133333333333" y="1392.8" type="curve" smooth="yes"/>
      <point x="739.8133333333333" y="1446.64"/>
      <point x="704.72" y="1478.36"/>
      <point x="639.6800000000001" y="1478.36" type="curve" smooth="yes"/>
      <point x="556.8933333333333" y="1478.36"/>
      <point x="509.81333333333333" y="1429.16"/>
    </contour>
  </outline>
</glyph>
<glyph name="j" format="2">
	<unicode hex="006A"/>
	<advance width="617.6266666667"/>
	<outline>
		<contour>
			<point x="485.32" y="1355.84" type="curve" smooth="yes"/>
			<point x="485.32" y="1302"/>
			<point x="520.4133333333" y="1270.28"/>
			<point x="585.4533333333" y="1270.28" type="curve" smooth="yes"/>
			<point x="668.24" y="1270.28"/>
			<point x="715.32" y="1319.48"/>
			<point x="715.32" y="1392.8" type="curve" smooth="yes"/>
			<point x="715.32" y="1446.64"/>
			<point x="680.2266666667" y="1478.36"/>
			<point x="615.1866666667" y="1478.36" type="curve" smooth="yes"/>
			<point x="532.4" y="1478.36"/>
			<point x="485.32" y="1429.16"/>
		</contour>
		<contour>
			<point x="296.4133333333" y="120.44" type="curve" smooth="yes"/>
			<point x="543.1466666667" y="934.2666666667" type="line" smooth="yes"/>
			<point x="567.6133333333" y="1014.6533333333"/>
			<point x="553.3866666667" y="1044"/>
			<point x="481.8133333333" y="1044" type="curve" smooth="yes"/>
			<point x="402.36" y="1044"/>
			<point x="260.48" y="995.3866666667"/>
			<point x="57.1733333333" y="835.44" type="curve"/>
			<point x="87.7466666667" y="787.64" type="line"/>
			<point x="279.76" y="913.04"/>
			<point x="394.3733333333" y="945.04"/>
			<point x="477.1466666667" y="937.7866666667" type="curve"/>
			<point x="449.1733333333" y="980.36" type="line"/>
			<point x="187.24" y="116.68" type="line" smooth="yes"/>
			<point x="62.9866666667" y="-293.2"/>
			<point x="-49.72" y="-372.9066666667"/>
			<point x="-153.1466666667" y="-372.9066666667" type="curve" smooth="yes"/>
			<point x="-171.6666666667" y="-372.9066666667"/>
			<point x="-192.92" y="-358.7733333333"/>
			<point x="-220.5066666667" y="-329.7866666667" type="curve" smooth="yes"/>
			<point x="-248.0933333333" y="-300.8"/>
			<point x="-265.9333333333" y="-274.56"/>
			<point x="-270.68" y="-274.56" type="curve" smooth="yes"/>
			<point x="-314.2933333333" y="-274.56"/>
			<point x="-356.12" y="-317.7866666667"/>
			<point x="-356.12" y="-371.1066666667" type="curve" smooth="yes"/>
			<point x="-356.12" y="-428.9333333333"/>
			<point x="-306.2266666667" y="-465"/>
			<point x="-222.0533333333" y="-465" type="curve" smooth="yes"/>
			<point x="-17.88" y="-465"/>
			<point x="171.6666666667" y="-292.5333333333"/>
		</contour>
	</outline>
	<anchor name="top" x="589.0666666667" y="1414"/>
	<anchor name="bottom" x="-100.7866666667" y="-445"/>
</glyph>
<glyph name="k" format="2">
	<unicode hex="006B"/>
	<advance width="1136.68"/>
	<outline>
		<contour>
			<point x="601.6933333333" y="1484" type="line"/>
			<point x="565.3333333333" y="1484" type="line"/>
			<point x="236.2266666667" y="1434.4266666667" type="line"/>
			<point x="225.24" y="1384.2266666667" type="line"/>
			<point x="282.24" y="1373.3842274598"/>
			<point x="415.44" y="1351.5545230079"/>
			<point x="451.44" y="1344.7066666667" type="curve"/>
			<point x="51.4133333333" y="0" type="line"/>
			<point x="161.2266666667" y="0" type="line"/>
		</contour>
		<contour>
			<point x="323.2266666667" y="579.52" type="line"/>
			<point x="516.8666666667" y="140.9066666667"/>
			<point x="622.6266666667" y="-20"/>
			<point x="730.3466666667" y="-20" type="curve" smooth="yes"/>
			<point x="804.3466666667" y="-20"/>
			<point x="886.04" y="22.72"/>
			<point x="1050.5333333333" y="202.6533333333" type="curve"/>
			<point x="1016.0933333333" y="236.6" type="line"/>
			<point x="877.88" y="103.5466666667"/>
			<point x="822" y="71.72"/>
			<point x="777.8933333333" y="71.72" type="curve" smooth="yes"/>
			<point x="697.76" y="71.72"/>
			<point x="610.9466666667" y="202.92"/>
			<point x="410.8" y="635.4666666667" type="curve"/>
			<point x="391.48" y="572.88" type="line"/>
			<point x="662.88" y="840.4"/>
			<point x="843.36" y="940.9066666667"/>
			<point x="925.4266666667" y="940.9066666667" type="curve" smooth="yes"/>
			<point x="943.56" y="940.9066666667"/>
			<point x="968.6933333333" y="916.6666666667"/>
			<point x="991.32" y="887.4266666667" type="curve" smooth="yes"/>
			<point x="1014.5733333333" y="857.56"/>
			<point x="1035.5733333333" y="826.6933333333"/>
			<point x="1042.9466666667" y="826.6933333333" type="curve" smooth="yes"/>
			<point x="1081.16" y="826.6933333333"/>
			<point x="1156.32" y="869.0666666667"/>
			<point x="1156.32" y="947.6933333333" type="curve" smooth="yes"/>
			<point x="1156.32" y="1006.04"/>
			<point x="1111.2" y="1044"/>
			<point x="1025" y="1044" type="curve" smooth="yes"/>
			<point x="830.04" y="1044"/>
			<point x="646.6666666667" y="907.52"/>
			<point x="326.0933333333" y="589.7466666667" type="curve"/>
		</contour>
	</outline>
	<anchor name="UCtop" x="785.04" y="1414"/>
	<anchor name="bottom" x="463.32" y="0"/>
</glyph>
<glyph name="l" format="2">
  <advance width="635.0133333333333"/>
  <unicode hex="006C"/>
  <anchor x="516.8133333333334" y="1414.0" name="UCtop"/>
  <anchor x="179.41333333333336" y="0.0" name="bottom"/>
  <anchor x="614.7066666666667" y="1464.0" name="right"/>
  <anchor x="584.3466666666667" y="512.0" name="mid"/>
  <outline>
    <contour>
      <point x="467.94666666666666" y="1344.7066666666665" type="curve"/>
      <point x="96.88" y="95.37333333333332" type="line" smooth="yes"/>
      <point x="69.29333333333334" y="3.866666666666667"/>
      <point x="86.16" y="-20.0"/>
      <point x="156.58666666666667" y="-20.0" type="curve" smooth="yes"/>
      <point x="233.90666666666667" y="-20.0"/>
      <point x="375.4" y="9.853333333333333"/>
      <point x="572.7466666666667" y="144.16" type="curve"/>
      <point x="546.5466666666666" y="192.58666666666664" type="line"/>
      <point x="372.82666666666665" y="96.06666666666668"/>
      <point x="252.09333333333336" y="78.96"/>
      <point x="164.98666666666665" y="86.21333333333332" type="curve"/>
      <point x="189.95999999999998" y="39.879999999999995" type="line"/>
      <point x="620.7066666666666" y="1484.0" type="line"/>
      <point x="584.3466666666666" y="1484.0" type="line"/>
      <point x="252.73333333333335" y="1434.4266666666667" type="line"/>
      <point x="241.74666666666667" y="1384.2266666666667" type="line"/>
      <point x="298.74666666666667" y="1373.384227459783"/>
      <point x="431.94666666666666" y="1351.5545230078565"/>
    </contour>
  </outline>
</glyph>
<glyph name="m" format="2">
	<unicode hex="006D"/>
	<advance width="1885.3733333333"/>
	<outline>
		<contour>
			<point x="1413.1733333333" y="39.88" type="line"/>
			<point x="1678.8933333333" y="658.3466666667" type="line" smooth="yes"/>
			<point x="1718.7333333333" y="751.0133333333"/>
			<point x="1733.9866666667" y="817.0133333333"/>
			<point x="1733.9866666667" y="871.64" type="curve" smooth="yes"/>
			<point x="1733.9866666667" y="975.1466666667"/>
			<point x="1673.24" y="1044"/>
			<point x="1545.1333333333" y="1044" type="curve" smooth="yes"/>
			<point x="1366.5866666667" y="1044"/>
			<point x="1184.4533333333" y="908.5066666667"/>
			<point x="998.64" y="546.9733333333" type="curve"/>
			<point x="979.56" y="546.9733333333" type="line"/>
			<point x="1028.4133333333" y="698.8" type="line" smooth="yes"/>
			<point x="1056.3733333333" y="784.8133333333"/>
			<point x="1069.7333333333" y="841.2933333333"/>
			<point x="1069.7333333333" y="893.5066666667" type="curve" smooth="yes"/>
			<point x="1069.7333333333" y="985.7733333333"/>
			<point x="1022.9733333333" y="1044"/>
			<point x="907.8666666667" y="1044" type="curve" smooth="yes"/>
			<point x="749.3866666667" y="1044"/>
			<point x="579.5066666667" y="909.6133333333"/>
			<point x="394.9466666667" y="546.9733333333" type="curve"/>
			<point x="375.4933333333" y="546.9733333333" type="line"/>
			<point x="534.04" y="1033.7333333333" type="line"/>
			<point x="507.8133333333" y="1037.9866666667"/>
			<point x="470.6666666667" y="1040.8666666667"/>
			<point x="440.5466666667" y="1040.8666666667" type="curve" smooth="yes"/>
			<point x="267" y="1040.8666666667"/>
			<point x="143.28" y="993.16"/>
			<point x="78.2666666667" y="781.12" type="curve"/>
			<point x="96.4133333333" y="779.6266666667" type="line"/>
			<point x="157.4933333333" y="883.1333333333"/>
			<point x="242.9733333333" y="933.16"/>
			<point x="369.2133333333" y="933.16" type="curve" smooth="yes"/>
			<point x="384.7466666667" y="933.16"/>
			<point x="404.4133333333" y="933.16"/>
			<point x="417.0666666667" y="929.4" type="curve"/>
			<point x="137.1466666667" y="0" type="line"/>
			<point x="256.8266666667" y="0" type="line"/>
			<point x="361.7733333333" y="341.64" type="line" smooth="yes"/>
			<point x="467" y="681.8533333333"/>
			<point x="677.16" y="936.28"/>
			<point x="876.6933333333" y="936.28" type="curve" smooth="yes"/>
			<point x="955.84" y="936.28"/>
			<point x="988.7333333333" y="903.2666666667"/>
			<point x="988.7333333333" y="839.84" type="curve" smooth="yes"/>
			<point x="988.7333333333" y="800.56"/>
			<point x="976.9733333333" y="748.52"/>
			<point x="951.3466666667" y="673.64" type="curve" smooth="yes"/>
			<point x="723.0933333333" y="0" type="line"/>
			<point x="843.1466666667" y="0" type="line"/>
			<point x="964.8533333333" y="362.5066666667" type="line"/>
			<point x="1076.2266666667" y="692.3866666667"/>
			<point x="1295.12" y="936.28"/>
			<point x="1503.88" y="936.28" type="curve" smooth="yes"/>
			<point x="1577.8933333333" y="936.28"/>
			<point x="1614.5466666667" y="902.0133333333"/>
			<point x="1614.5466666667" y="838.5866666667" type="curve" smooth="yes"/>
			<point x="1614.5466666667" y="801.8133333333"/>
			<point x="1603.04" y="755.4133333333"/>
			<point x="1574.5466666667" y="688.68" type="curve" smooth="yes"/>
			<point x="1318.12" y="91.6933333333" type="line" smooth="yes"/>
			<point x="1284.2666666667" y="12.7466666667"/>
			<point x="1307.36" y="-20"/>
			<point x="1375.44" y="-20" type="curve" smooth="yes"/>
			<point x="1458.12" y="-20"/>
			<point x="1604.3466666667" y="15.1066666667"/>
			<point x="1810.1866666667" y="152.1733333333" type="curve"/>
			<point x="1783.24" y="200.6" type="line"/>
			<point x="1598.9066666667" y="104.56"/>
			<point x="1481.9066666667" y="78.96"/>
			<point x="1392.8" y="86.2133333333" type="curve"/>
		</contour>
	</outline>
	<anchor name="top" x="1117.4933333333" y="1024"/>
	<anchor name="bottom" x="802.3733333333" y="0"/>
</glyph>
<glyph name="n" format="2">
	<unicode hex="006E"/>
	<advance width="1349.2533333333"/>
	<outline>
		<contour>
			<point x="96.4133333333" y="779.6266666667" type="line"/>
			<point x="157.4933333333" y="883.1333333333"/>
			<point x="242.9733333333" y="933.16"/>
			<point x="369.2133333333" y="933.16" type="curve" smooth="yes"/>
			<point x="384.7466666667" y="933.16"/>
			<point x="404.4133333333" y="933.16"/>
			<point x="417.0666666667" y="929.4" type="curve"/>
			<point x="137.1466666667" y="0" type="line"/>
			<point x="256.8266666667" y="0" type="line"/>
			<point x="361.7733333333" y="341.64" type="line"/>
			<point x="468" y="685.2266666667"/>
			<point x="715.6666666667" y="936.28"/>
			<point x="939.7066666667" y="936.28" type="curve" smooth="yes"/>
			<point x="1033.8933333333" y="936.28"/>
			<point x="1076.92" y="900.1333333333"/>
			<point x="1076.92" y="833.5733333333" type="curve" smooth="yes"/>
			<point x="1076.92" y="794.92"/>
			<point x="1063.5333333333" y="744.76"/>
			<point x="1033.16" y="673.64" type="curve" smooth="yes"/>
			<point x="783" y="91.6933333333" type="line" smooth="yes"/>
			<point x="748.9992625051" y="12.6424923643"/>
			<point x="772.2060606061" y="-20"/>
			<point x="840.32" y="-20" type="curve" smooth="yes"/>
			<point x="923" y="-20"/>
			<point x="1069.2266666667" y="15.1066666667"/>
			<point x="1275.0666666667" y="152.1733333333" type="curve"/>
			<point x="1248.12" y="200.6" type="line"/>
			<point x="1063.7866666667" y="104.56"/>
			<point x="946.7866666667" y="78.96"/>
			<point x="857.68" y="86.2133333333" type="curve"/>
			<point x="878.0533333333" y="39.88" type="line"/>
			<point x="1138.1333333333" y="645.8133333333" type="line" smooth="yes"/>
			<point x="1179.2266666667" y="742.24"/>
			<point x="1196.36" y="811.3733333333"/>
			<point x="1196.36" y="867.88" type="curve" smooth="yes"/>
			<point x="1196.36" y="974.52"/>
			<point x="1130.1066666667" y="1044"/>
			<point x="980.5866666667" y="1044" type="curve" smooth="yes"/>
			<point x="789.7866666667" y="1044"/>
			<point x="586.7466666667" y="912.2666666667"/>
			<point x="394.9466666667" y="546.9733333333" type="curve"/>
			<point x="375.4933333333" y="546.9733333333" type="line"/>
			<point x="534.04" y="1033.7333333333" type="line"/>
			<point x="507.8133333333" y="1037.9866666667"/>
			<point x="470.6666666667" y="1040.8666666667"/>
			<point x="440.5466666667" y="1040.8666666667" type="curve" smooth="yes"/>
			<point x="267" y="1040.8666666667"/>
			<point x="143.28" y="993.16"/>
			<point x="78.2666666667" y="781.12" type="curve"/>
		</contour>
	</outline>
	<anchor name="top" x="838.7333333333" y="1024"/>
	<anchor name="bottom" x="564.8533333333" y="0"/>
</glyph>
<glyph name="o" format="2">
	<unicode hex="006F"/>
	<advance width="1163.1066666667"/>
	<outline>
		<contour>
			<point x="710.5066666667" y="1044" type="curve" smooth="yes"/>
			<point x="329.68" y="1044"/>
			<point x="88.1466666667" y="682.0817222222"/>
			<point x="88.1466666667" y="325.6133333333" type="curve" smooth="yes"/>
			<point x="88.1466666667" y="113.3242105263"/>
			<point x="211.6266666667" y="-20"/>
			<point x="451.48" y="-20" type="curve" smooth="yes"/>
			<point x="832.3066666667" y="-20"/>
			<point x="1073.84" y="341.9182777778"/>
			<point x="1073.84" y="698.3866666667" type="curve" smooth="yes"/>
			<point x="1073.84" y="910.6757894737"/>
			<point x="950.36" y="1044"/>
		</contour>
		<contour>
			<point x="451.2133333333" y="62.88" type="curve" smooth="yes"/>
			<point x="294.12" y="62.88"/>
			<point x="207.08" y="149.5333333333"/>
			<point x="207.08" y="326.4133333333" type="curve" smooth="yes"/>
			<point x="207.08" y="640.16"/>
			<point x="389.4933333333" y="961.12"/>
			<point x="710.7733333333" y="961.12" type="curve" smooth="yes"/>
			<point x="867.8666666667" y="961.12"/>
			<point x="954.9066666667" y="874.4666666667"/>
			<point x="954.9066666667" y="697.5866666667" type="curve" smooth="yes"/>
			<point x="954.9066666667" y="383.84"/>
			<point x="772.4933333333" y="62.88"/>
		</contour>
	</outline>
	<anchor name="top" x="737.8666666667" y="1024"/>
	<anchor name="bottom" x="420.1333333333" y="0"/>
	<anchor name="horn" x="935.6" y="1024"/>
	<anchor name="right" x="536.84" y="0"/>
</glyph>
<glyph name="p" format="2">
  <advance width="1294"/>
  <unicode hex="0070"/>
  <anchor x="781.9066666666666" y="1024.0" name="top"/>
  <anchor x="73.97333333333333" y="-445.0" name="bottom"/>
  <outline>
    <contour>
      <point x="341.38666666666666" y="291.38666666666666" type="curve" smooth="yes"/>
      <point x="395.41333333333336" y="480.72" type="line" smooth="yes"/>
      <point x="437.64" y="628.6266666666667"/>
      <point x="642.5866666666667" y="951.4"/>
      <point x="897.9333333333333" y="951.4" type="curve" smooth="yes"/>
      <point x="1018.36" y="951.4"/>
      <point x="1093.0266666666666" y="870.08"/>
      <point x="1093.0266666666666" y="712.68" type="curve" smooth="yes"/>
      <point x="1093.0266666666666" y="397.32"/>
      <point x="880.0799999999999" y="53.02666666666666"/>
      <point x="573.4533333333334" y="53.02666666666666" type="curve" smooth="yes"/>
      <point x="409.4" y="53.02666666666666"/>
      <point x="331.25333333333333" y="126.17333333333333"/>
      <point x="331.25333333333333" y="225.83999999999997" type="curve" smooth="yes"/>
      <point x="331.25333333333333" y="246.85333333333332"/>
      <point x="334.50666666666666" y="269.12"/>
    </contour>
    <contour>
      <point x="280.8" y="168.54666666666668" type="line"/>
      <point x="298.4266666666666" y="47.266666666666666"/>
      <point x="400.7866666666667" y="-20.0"/>
      <point x="574.72" y="-20.0" type="curve" smooth="yes"/>
      <point x="937.4666666666666" y="-20.0"/>
      <point x="1215.4533333333334" y="354.38666666666666"/>
      <point x="1215.4533333333334" y="737.3733333333333" type="curve" smooth="yes"/>
      <point x="1215.4533333333334" y="919.6266666666667"/>
      <point x="1123.3466666666666" y="1044.0"/>
      <point x="929.4399999999999" y="1044.0" type="curve" smooth="yes"/>
      <point x="775.9333333333334" y="1044.0"/>
      <point x="610.6666666666666" y="948.28"/>
      <point x="439.5466666666667" y="673.7733333333333" type="curve"/>
      <point x="425.32" y="673.7733333333333" type="line"/>
      <point x="533.7866666666667" y="1033.7333333333333" type="line"/>
      <point x="507.56" y="1037.9866666666665"/>
      <point x="470.41333333333336" y="1040.8666666666666"/>
      <point x="440.29333333333335" y="1040.8666666666666" type="curve" smooth="yes"/>
      <point x="266.74666666666667" y="1040.8666666666666"/>
      <point x="143.02666666666667" y="993.16"/>
      <point x="78.01333333333332" y="781.12" type="curve"/>
      <point x="96.16" y="779.6266666666668" type="line"/>
      <point x="157.24" y="883.1333333333333"/>
      <point x="242.72" y="933.16"/>
      <point x="368.96" y="933.16" type="curve" smooth="yes"/>
      <point x="384.49333333333334" y="933.16"/>
      <point x="404.16" y="933.16"/>
      <point x="416.81333333333333" y="929.4" type="curve"/>
      <point x="43.28" y="-357.85333333333335" type="line"/>
      <point x="-123.49333333333334" y="-382.81333333333333" type="line"/>
      <point x="-142.6" y="-445.0" type="line"/>
      <point x="324.47999999999996" y="-445.0" type="line"/>
      <point x="343.96" y="-382.81333333333333" type="line"/>
      <point x="157.85333333333332" y="-357.85333333333335" type="line"/>
      <point x="319.28" y="202.38666666666668" type="line"/>
    </contour>
  </outline>
</glyph>
<glyph name="q" format="2">
	<unicode hex="0071"/>
	<advance width="1188.16"/>
	<outline>
		<contour>
			<point x="646.5466666667" y="-358.6" type="line"/>
			<point x="451.1866666667" y="-382.8133333333" type="line"/>
			<point x="432.4533333333" y="-445" type="line"/>
			<point x="903.0133333333" y="-445" type="line"/>
			<point x="922.12" y="-382.8133333333" type="line"/>
			<point x="760.8666666667" y="-357.8533333333" type="line"/>
			<point x="1156.76" y="1024" type="line"/>
			<point x="1065.08" y="1024" type="line"/>
			<point x="1003.0533333333" y="866.1866666667" type="line"/>
			<point x="938.5333333333" y="647.44" type="line" smooth="yes"/>
			<point x="857.2454039667" y="376.6138284135"/>
			<point x="584.6474858223" y="69.12"/>
			<point x="353.9066666667" y="69.12" type="curve" smooth="yes"/>
			<point x="232.84" y="69.12"/>
			<point x="169.3333333333" y="129.0266666667"/>
			<point x="169.3333333333" y="254.2266666667" type="curve" smooth="yes"/>
			<point x="169.3333333333" y="517.9066666667"/>
			<point x="438.2933333333" y="967.9866666667"/>
			<point x="756.7333333333" y="967.9866666667" type="curve" smooth="yes"/>
			<point x="870.92" y="967.9866666667"/>
			<point x="961.8266666667" y="917.3333333333"/>
			<point x="1023.2133333333" y="802.3333333333" type="curve"/>
			<point x="1028.0933333333" y="833" type="line"/>
			<point x="982.0533333333" y="961.9866666667"/>
			<point x="895.2933333333" y="1044"/>
			<point x="750.4" y="1044" type="curve" smooth="yes"/>
			<point x="349.2533333333" y="1044"/>
			<point x="50.52" y="540.6"/>
			<point x="50.52" y="225.7466666667" type="curve" smooth="yes"/>
			<point x="50.52" y="78.28"/>
			<point x="139.2133333333" y="-20"/>
			<point x="310.3733333333" y="-20" type="curve" smooth="yes"/>
			<point x="468.6238622386" y="-20"/>
			<point x="645.5333333333" y="57.8533333333"/>
			<point x="865.2533333333" y="398.2533333333" type="curve"/>
			<point x="880.2266666667" y="398.2533333333" type="line"/>
		</contour>
	</outline>
	<anchor name="top" x="784.1866666667" y="1024"/>
	<anchor name="bottom" x="676.9866666667" y="-445"/>
</glyph>
<glyph name="r" format="2">
	<unicode hex="0072"/>
	<advance width="942.5066666667"/>
	<outline>
		<contour>
			<point x="417.0666666667" y="929.4" type="curve"/>
			<point x="136.7733333333" y="0" type="line"/>
			<point x="256.4533333333" y="0" type="line"/>
			<point x="357.6266666667" y="329.68" type="line" smooth="yes"/>
			<point x="436.5866666667" y="586.32"/>
			<point x="675.5466666667" y="917.6666666667"/>
			<point x="822.1066666667" y="917.6666666667" type="curve" smooth="yes"/>
			<point x="830.3466666667" y="917.6666666667"/>
			<point x="859.2133333333" y="896.3066666667"/>
			<point x="886.7066666667" y="874.9466666667" type="curve" smooth="yes"/>
			<point x="914.2" y="853.5866666667"/>
			<point x="940.9466666667" y="832.8533333333"/>
			<point x="945.6933333333" y="832.8533333333" type="curve" smooth="yes"/>
			<point x="961.4" y="832.8533333333"/>
			<point x="1035.5466666667" y="884.4666666667"/>
			<point x="1035.5466666667" y="960.4666666667" type="curve" smooth="yes"/>
			<point x="1035.5466666667" y="1009.68"/>
			<point x="1007.2133333333" y="1042.7466666667"/>
			<point x="924.7866666667" y="1042.7466666667" type="curve" smooth="yes"/>
			<point x="760.8933333333" y="1042.7466666667"/>
			<point x="600.8666666667" y="921.24"/>
			<point x="392.2533333333" y="535.5066666667" type="curve"/>
			<point x="372.8" y="535.5066666667" type="line"/>
			<point x="535.9066666667" y="1033.7333333333" type="line"/>
			<point x="509.68" y="1037.9866666667"/>
			<point x="470.6666666667" y="1040.8666666667"/>
			<point x="440.5466666667" y="1040.8666666667" type="curve" smooth="yes"/>
			<point x="267" y="1040.8666666667"/>
			<point x="143.28" y="993.16"/>
			<point x="78.2666666667" y="781.12" type="curve"/>
			<point x="96.4133333333" y="779.6266666667" type="line"/>
			<point x="157.4933333333" y="883.1333333333"/>
			<point x="242.9733333333" y="933.16"/>
			<point x="369.2133333333" y="933.16" type="curve" smooth="yes"/>
			<point x="384.7466666667" y="933.16"/>
			<point x="404.4133333333" y="933.16"/>
		</contour>
	</outline>
	<anchor name="top" x="643.9066666667" y="1024"/>
	<anchor name="bottom" x="196.8" y="0"/>
</glyph>
<glyph name="s" format="2">
	<unicode hex="0073"/>
	<advance width="931.3066666667"/>
	<outline>
		<contour>
			<point x="198.2933333333" y="220.5333333333" type="curve" smooth="yes"/>
			<point x="73.7466666667" y="220.5333333333"/>
			<point x="41.52" y="185.08"/>
			<point x="41.52" y="114.2533333333" type="curve" smooth="yes"/>
			<point x="41.52" y="36.44"/>
			<point x="109.36" y="-20"/>
			<point x="318.4666666667" y="-20" type="curve" smooth="yes"/>
			<point x="600.88" y="-20"/>
			<point x="773.4133333333" y="104.8666666667"/>
			<point x="773.4133333333" y="311.6" type="curve" smooth="yes"/>
			<point x="773.4133333333" y="420.7066666667"/>
			<point x="733.9066666667" y="509.8266666667"/>
			<point x="537.1466666667" y="581.6933333333" type="curve" smooth="yes"/>
			<point x="340.3866666667" y="653.56"/>
			<point x="302.1066666667" y="700.84"/>
			<point x="302.1066666667" y="781.12" type="curve" smooth="yes"/>
			<point x="302.1066666667" y="890.4266666667"/>
			<point x="390.9466666667" y="968.2266666667"/>
			<point x="584.6133333333" y="968.2266666667" type="curve" smooth="yes"/>
			<point x="650.92" y="968.2266666667"/>
			<point x="689.4533333333" y="960.2133333333"/>
			<point x="711.2" y="938.5866666667" type="curve" smooth="yes"/>
			<point x="732.9466666667" y="916.96"/>
			<point x="740.8" y="877.8533333333"/>
			<point x="744.3866666667" y="814.04" type="curve" smooth="yes"/>
			<point x="847.12" y="814.04"/>
			<point x="885.0533333333" y="848.36"/>
			<point x="885.0533333333" y="909.5733333333" type="curve" smooth="yes"/>
			<point x="885.0533333333" y="992.88"/>
			<point x="802.4933333333" y="1044"/>
			<point x="614.9466666667" y="1044" type="curve" smooth="yes"/>
			<point x="347.1733333333" y="1044"/>
			<point x="205.76" y="922.3866666667"/>
			<point x="205.76" y="747.6933333333" type="curve" smooth="yes"/>
			<point x="205.76" y="639.8133333333"/>
			<point x="259.1466666667" y="566.9466666667"/>
			<point x="448.2933333333" y="501.3066666667" type="curve" smooth="yes"/>
			<point x="637.44" y="435.6666666667"/>
			<point x="676.44" y="375.1466666667"/>
			<point x="676.44" y="288" type="curve" smooth="yes"/>
			<point x="676.44" y="139.9466666667"/>
			<point x="554.2133333333" y="53.4"/>
			<point x="343.4266666667" y="53.4" type="curve" smooth="yes"/>
			<point x="284.3866666667" y="53.4"/>
			<point x="251.36" y="59.28"/>
			<point x="230.24" y="82.6533333333" type="curve" smooth="yes"/>
			<point x="209.12" y="106.0266666667"/>
			<point x="202.0133333333" y="146.12"/>
		</contour>
	</outline>
	<anchor name="top" x="578.6933333333" y="1024"/>
	<anchor name="bottom" x="387.2266666667" y="0"/>
</glyph>
<glyph name="t" format="2">
	<unicode hex="0074"/>
	<advance width="782"/>
	<outline>
		<contour>
			<point x="157.88" y="944.2266666667" type="line"/>
			<point x="818.7466666667" y="944.2266666667" type="line"/>
			<point x="818.7466666667" y="1024" type="line"/>
			<point x="159" y="1024" type="line"/>
		</contour>
		<contour>
			<point x="319.6933333333" y="267.6533333333" type="curve" smooth="yes"/>
			<point x="617.3466666667" y="1233" type="line"/>
			<point x="509.2666666667" y="1233" type="line"/>
			<point x="212.7466666667" y="272.56" type="line" smooth="yes"/>
			<point x="190.2666666667" y="199"/>
			<point x="181.52" y="149.5066666667"/>
			<point x="181.52" y="111.88" type="curve" smooth="yes"/>
			<point x="181.52" y="15.48"/>
			<point x="234.92" y="-20"/>
			<point x="307.8" y="-20" type="curve" smooth="yes"/>
			<point x="412.0666666667" y="-20"/>
			<point x="515.84" y="32.36"/>
			<point x="678.1333333333" y="191.4266666667" type="curve"/>
			<point x="642.9333333333" y="235.48" type="line"/>
			<point x="489.8" y="97.8266666667"/>
			<point x="418.44" y="74.5866666667"/>
			<point x="356.1466666667" y="74.5866666667" type="curve" smooth="yes"/>
			<point x="316.7333333333" y="74.5866666667"/>
			<point x="293.4533333333" y="89.48"/>
			<point x="293.4533333333" y="140.6533333333" type="curve" smooth="yes"/>
			<point x="293.4533333333" y="167.92"/>
			<point x="302.32" y="211.16"/>
		</contour>
	</outline>
	<anchor name="bottom" x="363.4266666667" y="0"/>
	<anchor name="right" x="665.48" y="1535"/>
</glyph>
<glyph name="v" format="2">
	<unicode hex="0076"/>
	<advance width="1200.4666666667"/>
	<outline>
		<contour>
			<point x="1106.0133333333" y="814.9466666667" type="curve" smooth="yes"/>
			<point x="1106.0133333333" y="978.7733333333"/>
			<point x="1056.3066666667" y="1044"/>
			<point x="981.8666666667" y="1044" type="curve" smooth="yes"/>
			<point x="920.0533333333" y="1044"/>
			<point x="873.3866666667" y="999.7866666667"/>
			<point x="873.3866666667" y="935.12" type="curve" smooth="yes"/>
			<point x="873.3866666667" y="896.8133333333"/>
			<point x="1005.2933333333" y="894.0666666667"/>
			<point x="1005.2933333333" y="688.68" type="curve" smooth="yes"/>
			<point x="1005.2933333333" y="328.48"/>
			<point x="742.9333333333" y="68.2266666667"/>
			<point x="489.0933333333" y="68.2266666667" type="curve" smooth="yes"/>
			<point x="382.44" y="68.2266666667"/>
			<point x="316.7733333333" y="110.7733333333"/>
			<point x="316.7733333333" y="213.7466666667" type="curve" smooth="yes"/>
			<point x="316.7733333333" y="252.2933333333"/>
			<point x="325.5333333333" y="299.2266666667"/>
			<point x="345.56" y="356.1733333333" type="curve" smooth="yes"/>
			<point x="583" y="1033.7333333333" type="line"/>
			<point x="553.9066666667" y="1037.9866666667"/>
			<point x="511.1466666667" y="1040.8666666667"/>
			<point x="477.9066666667" y="1040.8666666667" type="curve" smooth="yes"/>
			<point x="286.2666666667" y="1040.8666666667"/>
			<point x="164.4133333333" y="993.16"/>
			<point x="96.04" y="781.12" type="curve"/>
			<point x="114.1866666667" y="779.6266666667" type="line"/>
			<point x="175.2666666667" y="883.1333333333"/>
			<point x="260.7466666667" y="933.16"/>
			<point x="386.9866666667" y="933.16" type="curve" smooth="yes"/>
			<point x="402.52" y="933.16"/>
			<point x="422.1866666667" y="933.16"/>
			<point x="434.84" y="929.4" type="curve"/>
			<point x="237.3333333333" y="366.88" type="line" smooth="yes"/>
			<point x="214.32" y="300.84"/>
			<point x="203.44" y="243.56"/>
			<point x="203.44" y="195.04" type="curve" smooth="yes"/>
			<point x="203.44" y="49.4933333333"/>
			<point x="301.5866666667" y="-20"/>
			<point x="467.3066666667" y="-20" type="curve" smooth="yes"/>
			<point x="758.5466666667" y="-20"/>
			<point x="1106.0133333333" y="284.5866666667"/>
		</contour>
	</outline>
	<anchor name="top" x="750.3733333333" y="1024"/>
	<anchor name="bottom" x="456.3733333333" y="0"/>
</glyph>
<glyph name="w" format="2">
	<unicode hex="0077"/>
	<advance width="1675.3466666667"/>
	<outline>
		<contour>
			<point x="985.9866666667" y="1024" type="line"/>
			<point x="849.1066666667" y="522.8666666667" type="line" smooth="yes"/>
			<point x="761.52" y="204.8"/>
			<point x="572.5733333333" y="68.2266666667"/>
			<point x="428.16" y="68.2266666667" type="curve" smooth="yes"/>
			<point x="343.2533333333" y="68.2266666667"/>
			<point x="297.7333333333" y="105.8933333333"/>
			<point x="297.7333333333" y="186.4533333333" type="curve" smooth="yes"/>
			<point x="297.7333333333" y="223.24"/>
			<point x="306.8666666667" y="268.5333333333"/>
			<point x="326.3866666667" y="323.5866666667" type="curve" smooth="yes"/>
			<point x="575.1066666667" y="1033.7333333333" type="line"/>
			<point x="546.0133333333" y="1037.9866666667"/>
			<point x="503.2533333333" y="1040.8666666667"/>
			<point x="470.0133333333" y="1040.8666666667" type="curve" smooth="yes"/>
			<point x="278.3733333333" y="1040.8666666667"/>
			<point x="156.52" y="993.16"/>
			<point x="88.1466666667" y="781.12" type="curve"/>
			<point x="106.2933333333" y="779.6266666667" type="line"/>
			<point x="167.3733333333" y="883.1333333333"/>
			<point x="252.8533333333" y="933.16"/>
			<point x="379.0933333333" y="933.16" type="curve" smooth="yes"/>
			<point x="395.3733333333" y="933.16"/>
			<point x="413.1733333333" y="933.16"/>
			<point x="426.9466666667" y="929.4" type="curve"/>
			<point x="219.4133333333" y="338.0533333333" type="line" smooth="yes"/>
			<point x="197.6533333333" y="275.1466666667"/>
			<point x="186.7733333333" y="220"/>
			<point x="186.7733333333" y="173.9866666667" type="curve" smooth="yes"/>
			<point x="186.7733333333" y="46.1066666667"/>
			<point x="266.64" y="-20"/>
			<point x="404.2533333333" y="-20" type="curve" smooth="yes"/>
			<point x="568.2133333333" y="-20"/>
			<point x="720.96" y="95.36"/>
			<point x="858.28" y="393.3066666667" type="curve"/>
			<point x="875.4933333333" y="393.3066666667" type="line"/>
			<point x="838.3066666667" y="265.7066666667" type="line" smooth="yes"/>
			<point x="825.5733333333" y="222.24"/>
			<point x="819.7066666667" y="184.2666666667"/>
			<point x="819.7066666667" y="151.5333333333" type="curve" smooth="yes"/>
			<point x="819.7066666667" y="33.8933333333"/>
			<point x="894.4666666667" y="-20"/>
			<point x="1028.8666666667" y="-20" type="curve" smooth="yes"/>
			<point x="1290.3466666667" y="-20"/>
			<point x="1578.6533333333" y="290.1866666667"/>
			<point x="1578.6533333333" y="814.9466666667" type="curve" smooth="yes"/>
			<point x="1578.6533333333" y="978.7733333333"/>
			<point x="1528.9466666667" y="1044"/>
			<point x="1454.5066666667" y="1044" type="curve" smooth="yes"/>
			<point x="1392.6933333333" y="1044"/>
			<point x="1346.0266666667" y="999.7866666667"/>
			<point x="1346.0266666667" y="935.12" type="curve" smooth="yes"/>
			<point x="1346.0266666667" y="896.8133333333"/>
			<point x="1477.9333333333" y="894.0666666667"/>
			<point x="1477.9333333333" y="712.4933333333" type="curve" smooth="yes"/>
			<point x="1477.9333333333" y="333.7066666667"/>
			<point x="1259.7466666667" y="68.2266666667"/>
			<point x="1030.72" y="68.2266666667" type="curve" smooth="yes"/>
			<point x="938.16" y="68.2266666667"/>
			<point x="884.6266666667" y="105.3866666667"/>
			<point x="884.6266666667" y="201.72" type="curve" smooth="yes"/>
			<point x="884.6266666667" y="235.2533333333"/>
			<point x="890.88" y="275.6666666667"/>
			<point x="904.2666666667" y="323.5866666667" type="curve" smooth="yes"/>
			<point x="1099.2" y="1024" type="line"/>
		</contour>
	</outline>
	<anchor name="top" x="1020.4" y="1024"/>
	<anchor name="bottom" x="769.0666666667" y="0"/>
</glyph>
<glyph name="x" format="2">
	<unicode hex="0078"/>
	<advance width="1213.6"/>
	<outline>
		<contour>
			<point x="636.3733333333" y="507.5333333333" type="line"/>
			<point x="793.5333333333" y="702.5866666667" type="line" smooth="yes"/>
			<point x="928.1066666667" y="871.4266666667"/>
			<point x="1020.0133333333" y="918.3066666667"/>
			<point x="1057.1333333333" y="918.3066666667" type="curve" smooth="yes"/>
			<point x="1064.76" y="918.3066666667"/>
			<point x="1088.6266666667" y="898.6933333333"/>
			<point x="1111.4933333333" y="878.7066666667" type="curve" smooth="yes"/>
			<point x="1134.36" y="858.72"/>
			<point x="1158.6" y="837.1066666667"/>
			<point x="1164.6" y="837.1066666667" type="curve" smooth="yes"/>
			<point x="1184.8133333333" y="837.1066666667"/>
			<point x="1250.7333333333" y="887.32"/>
			<point x="1250.7333333333" y="953.9733333333" type="curve" smooth="yes"/>
			<point x="1250.7333333333" y="1003.5466666667"/>
			<point x="1219.6666666667" y="1044"/>
			<point x="1133.4666666667" y="1044" type="curve" smooth="yes"/>
			<point x="1029.32" y="1044"/>
			<point x="931.7866666667" y="975.44"/>
			<point x="788.3466666667" y="798.7333333333" type="curve" smooth="yes"/>
			<point x="611.16" y="576.9466666667" type="line"/>
			<point x="568.5733333333" y="539.2266666667" type="line"/>
			<point x="395.0533333333" y="323.92" type="line" smooth="yes"/>
			<point x="261.24" y="155.5733333333"/>
			<point x="174.84" y="105.6933333333"/>
			<point x="137.72" y="105.6933333333" type="curve" smooth="yes"/>
			<point x="130.0933333333" y="105.6933333333"/>
			<point x="107.48" y="124.4266666667"/>
			<point x="83.6133333333" y="145.04" type="curve" smooth="yes"/>
			<point x="59.7466666667" y="165.6533333333"/>
			<point x="36.2533333333" y="186.8933333333"/>
			<point x="30.2533333333" y="186.8933333333" type="curve" smooth="yes"/>
			<point x="10.04" y="186.8933333333"/>
			<point x="-52.12" y="138.56"/>
			<point x="-52.12" y="70.0266666667" type="curve" smooth="yes"/>
			<point x="-52.12" y="15.44"/>
			<point x="-16.04" y="-20"/>
			<point x="65.1466666667" y="-20" type="curve" smooth="yes"/>
			<point x="169.2933333333" y="-20"/>
			<point x="259.1866666667" y="47.0533333333"/>
			<point x="400.8666666667" y="225.2666666667" type="curve" smooth="yes"/>
			<point x="593.4266666667" y="468.7066666667" type="line"/>
		</contour>
		<contour>
			<point x="1130.96" y="253.3066666667" type="curve"/>
			<point x="1090.6133333333" y="294.2533333333" type="line"/>
			<point x="945.4666666667" y="144.0133333333"/>
			<point x="835.3733333333" y="80.48"/>
			<point x="789.3466666667" y="80.48" type="curve" smooth="yes"/>
			<point x="775.9733333333" y="80.48"/>
			<point x="772.3466666667" y="89.7333333333"/>
			<point x="761.2266666667" y="132.8533333333" type="curve" smooth="yes"/>
			<point x="554.8533333333" y="947.8133333333" type="line" smooth="yes"/>
			<point x="536.12" y="1019.52"/>
			<point x="514.3866666667" y="1044"/>
			<point x="459.68" y="1044" type="curve" smooth="yes"/>
			<point x="381.5866666667" y="1044"/>
			<point x="269.2666666667" y="970.6666666667"/>
			<point x="120.3866666667" y="727.5333333333" type="curve"/>
			<point x="170.08" y="693.4533333333" type="line"/>
			<point x="288.2533333333" y="864.8133333333"/>
			<point x="384.3466666667" y="935.52"/>
			<point x="432.24" y="935.52" type="curve" smooth="yes"/>
			<point x="446.7466666667" y="935.52"/>
			<point x="452" y="928.4"/>
			<point x="459.6266666667" y="898.0133333333" type="curve" smooth="yes"/>
			<point x="668.2533333333" y="69.2933333333" type="line" smooth="yes"/>
			<point x="686.36" y="-0.9066666667"/>
			<point x="704.2133333333" y="-20"/>
			<point x="754.92" y="-20" type="curve" smooth="yes"/>
			<point x="824.8" y="-20"/>
			<point x="939.76" y="37.8933333333"/>
		</contour>
	</outline>
	<anchor name="top" x="762.5733333333" y="1024"/>
	<anchor name="bottom" x="448.5733333333" y="0"/>
</glyph>
<glyph name="y" format="2">
	<unicode hex="0079"/>
	<advance width="1211.56"/>
	<outline>
		<contour>
			<point x="109.08" y="573.4933333333" type="line"/>
			<point x="203.68" y="797.8533333333"/>
			<point x="311.0933333333" y="922.96"/>
			<point x="358.4" y="922.96" type="curve" smooth="yes"/>
			<point x="377.28" y="922.96"/>
			<point x="388.9066666667" y="905.48"/>
			<point x="423.9066666667" y="788.9866666667" type="curve" smooth="yes"/>
			<point x="458.9066666667" y="672.4933333333"/>
			<point x="549.2133333333" y="265.2533333333"/>
			<point x="590.24" y="-146.9466666667" type="curve"/>
			<point x="693.2266666667" y="-64.52" type="line"/>
			<point x="632.1466666667" y="466.7066666667"/>
			<point x="544.4266666667" y="800.24"/>
			<point x="503.4266666667" y="911.5066666667" type="curve" smooth="yes"/>
			<point x="462.4266666667" y="1022.7733333333"/>
			<point x="444.0533333333" y="1044"/>
			<point x="395.9333333333" y="1044" type="curve" smooth="yes"/>
			<point x="319.8" y="1044"/>
			<point x="195.2133333333" y="973.3333333333"/>
			<point x="53.7866666667" y="595.9466666667" type="curve"/>
		</contour>
		<contour>
			<point x="614.5866666667" y="-82.4666666667" type="line"/>
			<point x="474.9866666667" y="-250.4133333333"/>
			<point x="279.72" y="-361.6533333333"/>
			<point x="163.76" y="-361.6533333333" type="curve" smooth="yes"/>
			<point x="144.2533333333" y="-361.6533333333"/>
			<point x="116.7733333333" y="-339.92"/>
			<point x="93.5466666667" y="-311.6666666667" type="curve" smooth="yes"/>
			<point x="70.32" y="-283.4133333333"/>
			<point x="50.9733333333" y="-253.28"/>
			<point x="44.3466666667" y="-253.28" type="curve" smooth="yes"/>
			<point x="2.6133333333" y="-253.28"/>
			<point x="-49.24" y="-305.9066666667"/>
			<point x="-49.24" y="-357.3466666667" type="curve" smooth="yes"/>
			<point x="-49.24" y="-422.0666666667"/>
			<point x="-6.24" y="-465"/>
			<point x="91.72" y="-465" type="curve" smooth="yes"/>
			<point x="281.2533333333" y="-465"/>
			<point x="543.7066666667" y="-300.04"/>
			<point x="755.3866666667" y="-22.36" type="curve" smooth="yes"/>
			<point x="967.0666666667" y="255.32"/>
			<point x="1128.4533333333" y="674.2133333333"/>
			<point x="1153.0933333333" y="994.0266666667" type="curve" smooth="yes"/>
			<point x="1156.08" y="1022.3733333333"/>
			<point x="1135.12" y="1032.2266666667"/>
			<point x="1095.9066666667" y="1032.6" type="curve" smooth="yes"/>
			<point x="1070.0666666667" y="1032.9733333333"/>
			<point x="1054.6" y="1030.6"/>
			<point x="1023.6666666667" y="1024.7466666667" type="curve"/>
			<point x="1005.8266666667" y="575.7333333333"/>
			<point x="853.1866666667" y="200.36"/>
			<point x="658.2933333333" y="-37.48" type="curve"/>
		</contour>
	</outline>
	<anchor name="top" x="712.8533333333" y="1024"/>
	<anchor name="bottom" x="844.9866666667" y="-149.2933333333"/>
</glyph>
<glyph name="z" format="2">
	<unicode hex="007A"/>
	<advance width="1071.3733333333"/>
	<outline>
		<contour>
			<point x="26" y="32.2" type="line"/>
			<point x="78.9333333333" y="-22.6133333333" type="line"/>
			<point x="1052.3733333333" y="991.3066666667" type="line"/>
			<point x="999.1866666667" y="1046.24" type="line"/>
		</contour>
		<contour>
			<point x="183.08" y="699.4533333333" type="line"/>
			<point x="344.1733333333" y="933.96"/>
			<point x="394.3866666667" y="958.56"/>
			<point x="533.5733333333" y="905.5866666667" type="curve" smooth="yes"/>
			<point x="817.4133333333" y="798.9333333333" type="line"/>
			<point x="898.1466666667" y="899.28" type="line"/>
			<point x="562.52" y="1023.3866666667" type="line" smooth="yes"/>
			<point x="433.68" y="1070.8666666667"/>
			<point x="312.48" y="1039.44"/>
			<point x="129.04" y="727.5466666667" type="curve"/>
		</contour>
		<contour>
			<point x="484.12" y="13.3733333333" type="line" smooth="yes"/>
			<point x="633.28" y="-54.12"/>
			<point x="723.4933333333" y="-39.24"/>
			<point x="972.32" y="270.64" type="curve"/>
			<point x="933.24" y="307.4533333333" type="line"/>
			<point x="710.84" y="69.0933333333"/>
			<point x="670.7733333333" y="63.0933333333"/>
			<point x="534.2" y="125.1733333333" type="curve" smooth="yes"/>
			<point x="294.2133333333" y="232.44" type="line"/>
			<point x="189.4533333333" y="146.3466666667" type="line"/>
		</contour>
	</outline>
	<anchor name="top" x="656.1866666667" y="1024"/>
	<anchor name="bottom" x="420.9866666667" y="0"/>
</glyph>
<glyph name="braceleft" format="2">
  <advance width="698"/>
  <unicode hex="007B"/>
  <outline>
    <contour>
      <point x="97.14666666666666" y="582.6666666666666" type="line"/>
      <point x="168.14666666666668" y="582.2933333333333" type="line" smooth="yes"/>
      <point x="242.4" y="581.92"/>
      <point x="278.9066666666667" y="552.4133333333333"/>
      <point x="278.9066666666667" y="492.0266666666667" type="curve" smooth="yes"/>
      <point x="278.9066666666667" y="359.0133333333334"/>
      <point x="110.0" y="108.2"/>
      <point x="110.0" y="-42.8" type="curve" smooth="yes"/>
      <point x="110.0" y="-140.02666666666667"/>
      <point x="172.95999999999998" y="-222.62666666666667"/>
      <point x="311.56" y="-236.0" type="curve" smooth="yes"/>
      <point x="381.8933333333333" y="-243.12" type="line"/>
      <point x="406.2266666666667" y="-169.34666666666666" type="line"/>
      <point x="337.6133333333333" y="-160.6" type="line" smooth="yes"/>
      <point x="259.0933333333333" y="-151.3466666666667"/>
      <point x="223.95999999999998" y="-118.84"/>
      <point x="223.95999999999998" y="-51.82666666666667" type="curve" smooth="yes"/>
      <point x="223.95999999999998" y="77.06666666666666"/>
      <point x="375.0" y="368.38666666666666"/>
      <point x="375.0" y="486.52" type="curve" smooth="yes"/>
      <point x="375.0" y="568.64"/>
      <point x="328.8666666666667" y="618.6266666666667"/>
      <point x="222.17333333333335" y="631.2266666666667" type="curve"/>
      <point x="212.93333333333334" y="603.0133333333333" type="line"/>
      <point x="367.61333333333334" y="615.0"/>
      <point x="458.22666666666663" y="693.9733333333332"/>
      <point x="499.8533333333333" y="829.8533333333334" type="curve" smooth="yes"/>
      <point x="539.9866666666666" y="960.88"/>
      <point x="539.4799999999999" y="1110.2933333333333"/>
      <point x="573.1066666666667" y="1217.4266666666667" type="curve" smooth="yes"/>
      <point x="605.6133333333333" y="1322.32"/>
      <point x="667.5066666666667" y="1387.72"/>
      <point x="805.6666666666667" y="1403.3466666666666" type="curve" smooth="yes"/>
      <point x="880.0266666666666" y="1412.0933333333335" type="line"/>
      <point x="887.0" y="1485.4933333333333" type="line"/>
      <point x="800.72" y="1478.0" type="line" smooth="yes"/>
      <point x="594.24" y="1459.3733333333334"/>
      <point x="489.77333333333337" y="1351.76"/>
      <point x="451.0266666666667" y="1225.52" type="curve" smooth="yes"/>
      <point x="412.28000000000003" y="1098.9066666666668"/>
      <point x="424.4" y="954.3866666666667"/>
      <point x="386.52000000000004" y="828.4933333333333" type="curve" smooth="yes"/>
      <point x="349.38666666666666" y="705.5866666666667"/>
      <point x="289.74666666666667" y="661.2"/>
      <point x="191.12" y="660.08" type="curve" smooth="yes"/>
      <point x="121.12" y="660.08" type="line"/>
    </contour>
  </outline>
</glyph>
<glyph name="bar" format="2">
	<unicode hex="007C"/>
	<advance width="561.4533333333"/>
	<outline>
		<contour>
			<point x="-54.2133333333" y="-465" type="line"/>
			<point x="37.68" y="-465" type="line"/>
			<point x="628.2933333333" y="1535" type="line"/>
			<point x="536.0266666667" y="1535" type="line"/>
		</contour>
	</outline>
</glyph>
<glyph name="braceright" format="2">
	<unicode hex="007D"/>
	<advance width="697.76"/>
	<outline>
		<contour>
			<point x="665.8666666667" y="660.3333333333" type="line"/>
			<point x="594.8666666667" y="660.7066666667" type="line" smooth="yes"/>
			<point x="520.6133333333" y="661.08"/>
			<point x="484.1066666667" y="690.5866666667"/>
			<point x="484.1066666667" y="750.9733333333" type="curve" smooth="yes"/>
			<point x="484.1066666667" y="883.9866666667"/>
			<point x="653.0133333333" y="1134.8"/>
			<point x="653.0133333333" y="1285.8" type="curve" smooth="yes"/>
			<point x="653.0133333333" y="1383.0266666667"/>
			<point x="590.0533333333" y="1465.6266666667"/>
			<point x="451.4533333333" y="1479" type="curve" smooth="yes"/>
			<point x="381.12" y="1486.12" type="line"/>
			<point x="356.7866666667" y="1412.3466666667" type="line"/>
			<point x="425.4" y="1403.6" type="line" smooth="yes"/>
			<point x="503.92" y="1394.3466666667"/>
			<point x="539.0533333333" y="1361.84"/>
			<point x="539.0533333333" y="1294.8266666667" type="curve" smooth="yes"/>
			<point x="539.0533333333" y="1165.9333333333"/>
			<point x="388.0133333333" y="874.6133333333"/>
			<point x="388.0133333333" y="756.48" type="curve" smooth="yes"/>
			<point x="388.0133333333" y="674.36"/>
			<point x="434.1466666667" y="624.3733333333"/>
			<point x="540.84" y="611.7733333333" type="curve"/>
			<point x="550.08" y="639.9866666667" type="line"/>
			<point x="395.4" y="628"/>
			<point x="304.7866666667" y="549.0266666667"/>
			<point x="263.16" y="413.1466666667" type="curve" smooth="yes"/>
			<point x="223.0266666667" y="282.12"/>
			<point x="223.5333333333" y="132.7066666667"/>
			<point x="189.9066666667" y="25.5733333333" type="curve" smooth="yes"/>
			<point x="157.4" y="-79.32"/>
			<point x="95.5066666667" y="-144.72"/>
			<point x="-42.6533333333" y="-160.3466666667" type="curve" smooth="yes"/>
			<point x="-117.0133333333" y="-169.0933333333" type="line"/>
			<point x="-123.9866666667" y="-242.4933333333" type="line"/>
			<point x="-37.7066666667" y="-235" type="line" smooth="yes"/>
			<point x="168.7733333333" y="-216.3733333333"/>
			<point x="273.24" y="-108.76"/>
			<point x="311.9866666667" y="17.48" type="curve" smooth="yes"/>
			<point x="350.7333333333" y="144.0933333333"/>
			<point x="338.6133333333" y="288.6133333333"/>
			<point x="376.4933333333" y="414.5066666667" type="curve" smooth="yes"/>
			<point x="413.6266666667" y="537.4133333333"/>
			<point x="473.2666666667" y="581.8"/>
			<point x="571.8933333333" y="582.92" type="curve" smooth="yes"/>
			<point x="641.8933333333" y="582.92" type="line"/>
		</contour>
	</outline>
</glyph>
<glyph name="asciitilde" format="2">
  <advance width="1200"/>
  <unicode hex="007E"/>
  <outline>
    <contour>
      <point x="1052.8533333333332" y="637.3333333333334" type="curve"/>
      <point x="965.0666666666667" y="637.3333333333334" type="line"/>
      <point x="919.68" y="522.4533333333334"/>
      <point x="865.2933333333333" y="470.18666666666667"/>
      <point x="777.1466666666666" y="470.18666666666667" type="curve" smooth="yes"/>
      <point x="637.9866666666667" y="470.18666666666667"/>
      <point x="593.76" y="645.7066666666667"/>
      <point x="428.37333333333333" y="645.7066666666667" type="curve" smooth="yes"/>
      <point x="310.8933333333334" y="645.7066666666667"/>
      <point x="212.14666666666668" y="589.2266666666667"/>
      <point x="146.4" y="388.9066666666667" type="curve"/>
      <point x="234.18666666666667" y="388.9066666666667" type="line"/>
      <point x="279.94666666666666" y="503.41333333333336"/>
      <point x="334.33333333333337" y="555.6800000000001"/>
      <point x="422.1066666666667" y="555.6800000000001" type="curve" smooth="yes"/>
      <point x="561.2666666666667" y="555.6800000000001"/>
      <point x="605.4933333333333" y="380.16"/>
      <point x="770.88" y="380.16" type="curve" smooth="yes"/>
      <point x="888.36" y="380.16"/>
      <point x="987.1066666666667" y="436.64000000000004"/>
    </contour>
  </outline>
</glyph>
<glyph name="exclamdown" format="2">
	<unicode hex="00A1"/>
	<advance width="566.76"/>
	<outline>
		<contour>
			<point x="-54.4533333333" y="-379.92" type="line" smooth="yes"/>
			<point x="-60.6933333333" y="-400.2666666667"/>
			<point x="-43.2" y="-410"/>
			<point x="9.5733333333" y="-410" type="curve" smooth="yes"/>
			<point x="59.3466666667" y="-410"/>
			<point x="79.4533333333" y="-400.2666666667"/>
			<point x="85.32" y="-379.92" type="curve" smooth="yes"/>
			<point x="106.32" y="-311.0533333333" type="line" smooth="yes"/>
			<point x="134.0722607781" y="-213.0133333333"/>
			<point x="284.5728706625" y="355.8933333333"/>
			<point x="354.6666666667" y="611.2" type="curve"/>
			<point x="282.1466666667" y="611.2" type="line"/>
			<point x="195.8228250964" y="355.8933333333"/>
			<point x="-1.1870872766" y="-213.0133333333"/>
			<point x="-33.3333333333" y="-311.0533333333" type="curve" smooth="yes"/>
		</contour>
		<contour>
			<point x="376.8533333333" y="810.88" type="curve" smooth="yes"/>
			<point x="475.92" y="810.88"/>
			<point x="525.5066666667" y="880.0933333333"/>
			<point x="525.5066666667" y="957.6666666667" type="curve" smooth="yes"/>
			<point x="525.5066666667" y="1011.0133333333"/>
			<point x="492.7733333333" y="1039.12"/>
			<point x="435.1866666667" y="1039.12" type="curve" smooth="yes"/>
			<point x="336.12" y="1039.12"/>
			<point x="286.5333333333" y="969.9066666667"/>
			<point x="286.5333333333" y="892.7066666667" type="curve" smooth="yes"/>
			<point x="286.5333333333" y="838.9866666667"/>
			<point x="319.2666666667" y="810.88"/>
		</contour>
	</outline>
</glyph>
<glyph name="currency" format="2">
  <advance width="1038.8799999999999"/>
  <unicode hex="00A4"/>
  <outline>
    <contour>
      <point x="243.38666666666666" y="824.9733333333334" type="line"/>
      <point x="334.36" y="688.2666666666667" type="line"/>
      <point x="408.9066666666667" y="743.4666666666667" type="line"/>
      <point x="317.3066666666667" y="877.8000000000001" type="line"/>
    </contour>
    <contour>
      <point x="901.0533333333333" y="842.3066666666667" type="line"/>
      <point x="731.4533333333334" y="712.8266666666667" type="line"/>
      <point x="780.1466666666666" y="646.52" type="line"/>
      <point x="947.5066666666667" y="771.5066666666667" type="line"/>
    </contour>
    <contour>
      <point x="793.3733333333333" y="201.26666666666668" type="line"/>
      <point x="702.4" y="337.9733333333333" type="line"/>
      <point x="627.8533333333334" y="282.7733333333333" type="line"/>
      <point x="719.4533333333333" y="148.06666666666666" type="line"/>
    </contour>
    <contour>
      <point x="89.25333333333333" y="254.73333333333332" type="line"/>
      <point x="135.70666666666668" y="183.93333333333334" type="line"/>
      <point x="305.3066666666667" y="313.4133333333333" type="line"/>
      <point x="256.61333333333334" y="379.72" type="line"/>
    </contour>
    <contour>
      <point x="561.1733333333333" y="820.32" type="curve" smooth="yes"/>
      <point x="347.9866666666666" y="820.32"/>
      <point x="201.0" y="657.3466666666667"/>
      <point x="201.0" y="459.76" type="curve" smooth="yes"/>
      <point x="201.0" y="311.53333333333336"/>
      <point x="306.9866666666666" y="205.92000000000002"/>
      <point x="475.58666666666664" y="205.92000000000002" type="curve" smooth="yes"/>
      <point x="688.7733333333333" y="205.92000000000002"/>
      <point x="835.76" y="368.52"/>
      <point x="835.76" y="566.48" type="curve" smooth="yes"/>
      <point x="835.76" y="714.7066666666667"/>
      <point x="729.7733333333333" y="820.32"/>
    </contour>
    <contour>
      <point x="486.94666666666666" y="281.3466666666667" type="curve" smooth="yes"/>
      <point x="364.3066666666667" y="281.3466666666667"/>
      <point x="284.2933333333333" y="355.47999999999996"/>
      <point x="284.2933333333333" y="469.12" type="curve" smooth="yes"/>
      <point x="284.2933333333333" y="620.5066666666667"/>
      <point x="390.56" y="744.8933333333334"/>
      <point x="549.8133333333333" y="744.8933333333334" type="curve" smooth="yes"/>
      <point x="672.4533333333333" y="744.8933333333334"/>
      <point x="752.4666666666667" y="670.76"/>
      <point x="752.4666666666667" y="556.7466666666667" type="curve" smooth="yes"/>
      <point x="752.4666666666667" y="405.73333333333335"/>
      <point x="646.1999999999999" y="281.3466666666667"/>
    </contour>
  </outline>
</glyph>
<glyph name="brokenbar" format="2">
	<unicode hex="00A6"/>
	<advance width="561.4533333333"/>
	<outline>
		<contour>
			<point x="402.68" y="769.7733333333" type="line"/>
			<point x="628.2933333333" y="1535" type="line"/>
			<point x="536.0266666667" y="1535" type="line"/>
			<point x="310.4133333333" y="769.7733333333" type="line"/>
		</contour>
		<contour>
			<point x="-54.2133333333" y="-465" type="line"/>
			<point x="37.68" y="-465" type="line"/>
			<point x="264.2933333333" y="300.2266666667" type="line"/>
			<point x="172.0266666667" y="300.2266666667" type="line"/>
		</contour>
	</outline>
</glyph>
<glyph name="section" format="2">
  <advance width="1140.2933333333333"/>
  <unicode hex="00A7"/>
  <outline>
    <contour>
      <point x="626.0266666666666" y="850.72" type="curve"/>
      <point x="602.0133333333333" y="887.2" type="line"/>
      <point x="295.9066666666667" y="887.1999999999999"/>
      <point x="131.78666666666666" y="772.4666666666667"/>
      <point x="131.78666666666666" y="560.8266666666667" type="curve" smooth="yes"/>
      <point x="131.78666666666666" y="198.96"/>
      <point x="682.5866666666666" y="347.08000000000004"/>
      <point x="682.5866666666666" y="76.01333333333334" type="curve" smooth="yes"/>
      <point x="682.5866666666666" y="-44.306666666666665"/>
      <point x="584.16" y="-158.62666666666667"/>
      <point x="353.4533333333333" y="-158.62666666666667" type="curve" smooth="yes"/>
      <point x="175.04" y="-158.62666666666667"/>
      <point x="110.82666666666665" y="-29.44000000000001"/>
      <point x="90.83999999999999" y="-29.44000000000001" type="curve" smooth="yes"/>
      <point x="47.77333333333334" y="-29.44000000000001"/>
      <point x="4.826666666666664" y="-62.400000000000006"/>
      <point x="4.45333333333333" y="-119.08" type="curve" smooth="yes"/>
      <point x="4.079999999999998" y="-179.8"/>
      <point x="63.266666666666666" y="-243.0"/>
      <point x="293.62666666666667" y="-243.0" type="curve" smooth="yes"/>
      <point x="622.1466666666666" y="-243.0"/>
      <point x="791.5066666666667" y="-88.14666666666666"/>
      <point x="791.5066666666667" y="109.70666666666666" type="curve" smooth="yes"/>
      <point x="791.5066666666667" y="466.15999999999997"/>
      <point x="238.82666666666663" y="290.29333333333335"/>
      <point x="238.82666666666663" y="598.6266666666667" type="curve" smooth="yes"/>
      <point x="238.82666666666663" y="758.2"/>
      <point x="371.25333333333333" y="849.2266666666667"/>
    </contour>
    <contour>
      <point x="951.3466666666666" y="592.3733333333333" type="curve" smooth="yes"/>
      <point x="951.3466666666666" y="439.06666666666666"/>
      <point x="818.9200000000001" y="341.77333333333337"/>
      <point x="564.1466666666666" y="340.28000000000003" type="curve"/>
      <point x="588.1600000000001" y="303.8" type="line"/>
      <point x="894.2666666666667" y="303.8"/>
      <point x="1058.3866666666668" y="424.79999999999995"/>
      <point x="1058.3866666666668" y="630.1733333333334" type="curve" smooth="yes"/>
      <point x="1058.3866666666668" y="992.0400000000001"/>
      <point x="507.58666666666664" y="843.92"/>
      <point x="507.58666666666664" y="1114.9866666666667" type="curve" smooth="yes"/>
      <point x="507.58666666666664" y="1235.3066666666666"/>
      <point x="606.0133333333333" y="1349.6266666666666"/>
      <point x="836.7199999999999" y="1349.6266666666666" type="curve" smooth="yes"/>
      <point x="1015.1333333333333" y="1349.6266666666666"/>
      <point x="1079.3466666666666" y="1220.44"/>
      <point x="1099.3333333333335" y="1220.44" type="curve" smooth="yes"/>
      <point x="1142.4" y="1220.44"/>
      <point x="1185.3466666666666" y="1253.4"/>
      <point x="1185.72" y="1310.08" type="curve" smooth="yes"/>
      <point x="1186.0933333333332" y="1370.8000000000002"/>
      <point x="1126.9066666666668" y="1434.0"/>
      <point x="896.5466666666666" y="1434.0" type="curve" smooth="yes"/>
      <point x="568.0266666666668" y="1434.0"/>
      <point x="398.66666666666663" y="1279.1466666666668"/>
      <point x="398.66666666666663" y="1081.2933333333333" type="curve" smooth="yes"/>
      <point x="398.66666666666663" y="724.84"/>
      <point x="951.3466666666666" y="900.7066666666667"/>
    </contour>
  </outline>
</glyph>
<glyph name="copyright" format="2">
	<unicode hex="00A9"/>
	<advance width="1773.8933333333"/>
	<outline>
		<contour>
			<point x="919.0266666667" y="381.8133333333" type="curve" smooth="yes"/>
			<point x="741.6533333333" y="381.8133333333"/>
			<point x="640.7733333333" y="454.28"/>
			<point x="640.7733333333" y="614.9466666667" type="curve" smooth="yes"/>
			<point x="640.7733333333" y="847.2133333333"/>
			<point x="770.28" y="1039.6933333333"/>
			<point x="1049.2666666667" y="1039.6933333333" type="curve" smooth="yes"/>
			<point x="1151.6666666667" y="1039.6933333333"/>
			<point x="1209.2933333333" y="1023.6933333333"/>
			<point x="1273.8133333333" y="981.8133333333" type="curve"/>
			<point x="1250.9733333333" y="1066.4133333333" type="line"/>
			<point x="1220.8133333333" y="862.1733333333" type="line"/>
			<point x="1284.7733333333" y="862.1733333333" type="line"/>
			<point x="1369.76" y="1140" type="line"/>
			<point x="1314.7866666667" y="1140" type="line"/>
			<point x="1261.9466666667" y="1067.88" type="line"/>
			<point x="1323.0533333333" y="1077.24" type="line"/>
			<point x="1263.8133333333" y="1106.7466666667"/>
			<point x="1183.9333333333" y="1123"/>
			<point x="1085.2933333333" y="1123" type="curve" smooth="yes"/>
			<point x="717" y="1123"/>
			<point x="526.8" y="885.04"/>
			<point x="526.8" y="610.4533333333" type="curve" smooth="yes"/>
			<point x="526.8" y="403.48"/>
			<point x="659.7733333333" y="301"/>
			<point x="895.84" y="301" type="curve" smooth="yes"/>
			<point x="986.2" y="301"/>
			<point x="1067.48" y="317.6266666667"/>
			<point x="1139.8266666667" y="343.3733333333" type="curve"/>
			<point x="1228.0933333333" y="546.08" type="line"/>
			<point x="1166.76" y="546.08" type="line"/>
			<point x="1037.88" y="340.84" type="line"/>
			<point x="1118.6933333333" y="420.0666666667" type="line"/>
			<point x="1057.6933333333" y="392.8133333333"/>
			<point x="975.9066666667" y="381.8133333333"/>
		</contour>
		<contour>
			<point x="870.88" y="59.16" type="curve" smooth="yes"/>
			<point x="492.7333333333" y="59.16"/>
			<point x="277.6666666667" y="229.3066666667"/>
			<point x="277.6666666667" y="559.5066666667" type="curve" smooth="yes"/>
			<point x="277.6666666667" y="963.84"/>
			<point x="536" y="1355.4666666667"/>
			<point x="1020.2666666667" y="1355.4666666667" type="curve" smooth="yes"/>
			<point x="1398.4133333333" y="1355.4666666667"/>
			<point x="1613.48" y="1185.32"/>
			<point x="1613.48" y="855.12" type="curve" smooth="yes"/>
			<point x="1613.48" y="450.16"/>
			<point x="1355.1466666667" y="59.16"/>
		</contour>
		<contour>
			<point x="1027.6266666667" y="1434" type="curve" smooth="yes"/>
			<point x="488.9333333333" y="1434"/>
			<point x="189.2666666667" y="1008.6666666667"/>
			<point x="189.2666666667" y="551.6533333333" type="curve" smooth="yes"/>
			<point x="189.2666666667" y="182.8666666667"/>
			<point x="442.7066666667" y="-20"/>
			<point x="863.52" y="-20" type="curve" smooth="yes"/>
			<point x="1402.2133333333" y="-20"/>
			<point x="1701.88" y="405.96"/>
			<point x="1701.88" y="862.9733333333" type="curve" smooth="yes"/>
			<point x="1701.88" y="1231.76"/>
			<point x="1448.44" y="1434"/>
		</contour>
	</outline>
</glyph>
<glyph name="ordfeminine" format="2">
	<unicode hex="00AA"/>
	<advance width="1002.3866666667"/>
	<outline>
		<contour>
			<point x="210.8933333333" y="533.1866666667" type="line"/>
			<point x="829.6666666667" y="533.1866666667" type="line"/>
			<point x="857.88" y="624.44" type="line"/>
			<point x="239.7333333333" y="624.44" type="line"/>
		</contour>
		<contour>
			<point x="715.9733333333" y="841.32" type="line" smooth="yes"/>
			<point x="695.6133333333" y="787.4933333333"/>
			<point x="708.2133333333" y="767.7466666667"/>
			<point x="753.2933333333" y="767.7466666667" type="curve" smooth="yes"/>
			<point x="802.12" y="767.7466666667"/>
			<point x="882.3733333333" y="784.12"/>
			<point x="1000.84" y="860.6" type="curve"/>
			<point x="988.2266666667" y="893.32" type="line"/>
			<point x="876.5866666667" y="837.5466666667"/>
			<point x="810.8266666667" y="829.2933333333"/>
			<point x="751.2533333333" y="834.6666666667" type="curve"/>
			<point x="798.08" y="794.0933333333" type="line"/>
			<point x="1010.96" y="1414" type="line"/>
			<point x="905.9733333333" y="1414" type="line"/>
			<point x="863.64" y="1313.2666666667" type="line"/>
			<point x="819.0133333333" y="1181.1066666667" type="line" smooth="yes"/>
			<point x="766.8933333333" y="1027.84"/>
			<point x="625.3466666667" y="841.6533333333"/>
			<point x="496.6533333333" y="841.6533333333" type="curve" smooth="yes"/>
			<point x="425.7466666667" y="841.6533333333"/>
			<point x="393.8533333333" y="874.5466666667"/>
			<point x="393.8533333333" y="946.2133333333" type="curve" smooth="yes"/>
			<point x="393.8533333333" y="1103.1333333333"/>
			<point x="550.6266666667" y="1362.8133333333"/>
			<point x="720.08" y="1362.8133333333" type="curve" smooth="yes"/>
			<point x="784.36" y="1362.8133333333"/>
			<point x="834.88" y="1332.5466666667"/>
			<point x="868.64" y="1267.2933333333" type="curve"/>
			<point x="886.64" y="1288.16" type="line"/>
			<point x="854.0133333333" y="1374"/>
			<point x="800.64" y="1427.12"/>
			<point x="710.8933333333" y="1427.12" type="curve" smooth="yes"/>
			<point x="471.6266666667" y="1427.12"/>
			<point x="285.7866666667" y="1122.2"/>
			<point x="285.7866666667" y="923.48" type="curve" smooth="yes"/>
			<point x="285.7866666667" y="831.1333333333"/>
			<point x="338.88" y="767.7466666667"/>
			<point x="445.88" y="767.7466666667" type="curve" smooth="yes"/>
			<point x="550" y="767.7466666667"/>
			<point x="653.2666666667" y="823.64"/>
			<point x="785.88" y="1037.24" type="curve"/>
			<point x="794.12" y="1037.24" type="line"/>
		</contour>
	</outline>
</glyph>
<glyph name="guillemotleft" format="2">
  <advance width="1037.24"/>
  <unicode hex="00AB"/>
  <outline>
    <contour>
      <point x="203.81333333333333" y="529.6133333333333" type="line"/>
      <point x="187.82666666666665" y="476.7866666666667" type="line"/>
      <point x="647.2266666666667" y="885.5066666666667" type="line"/>
      <point x="601.4266666666666" y="947.7866666666667" type="line"/>
      <point x="117.98666666666665" y="569.56" type="line"/>
      <point x="88.4" y="474.44" type="line"/>
      <point x="350.84" y="96.21333333333332" type="line"/>
      <point x="416.48" y="133.90666666666667" type="line"/>
    </contour>
    <contour>
      <point x="594.3066666666667" y="529.6133333333333" type="line"/>
      <point x="578.3199999999999" y="476.7866666666667" type="line"/>
      <point x="1037.72" y="885.5066666666667" type="line"/>
      <point x="991.92" y="947.7866666666667" type="line"/>
      <point x="508.47999999999996" y="569.56" type="line"/>
      <point x="478.8933333333333" y="474.44" type="line"/>
      <point x="741.3333333333334" y="96.21333333333332" type="line"/>
      <point x="806.9733333333332" y="133.90666666666667" type="line"/>
    </contour>
  </outline>
</glyph>
<glyph name="logicalnot" format="2">
	<unicode hex="00AC"/>
	<advance width="1200"/>
	<outline>
		<contour>
			<point x="250.2666666667" y="753.2" type="line"/>
			<point x="223.5466666667" y="664.5466666667" type="line"/>
			<point x="966.9733333333" y="664.5466666667" type="line"/>
			<point x="842.72" y="260.16" type="line"/>
			<point x="930.2533333333" y="260.16" type="line"/>
			<point x="1080.8533333333" y="753.2" type="line"/>
		</contour>
	</outline>
</glyph>
<glyph name="registered" format="2">
	<unicode hex="00AE"/>
	<advance width="1167.8266666667"/>
	<outline>
		<contour>
			<point x="930.84" y="840.7066666667" type="line"/>
			<point x="893.3333333333" y="840.7066666667"/>
			<point x="889.3333333333" y="844.2133333333"/>
			<point x="884.4533333333" y="881.5866666667" type="curve" smooth="yes"/>
			<point x="875.44" y="946.5066666667" type="line" smooth="yes"/>
			<point x="869.56" y="990.88"/>
			<point x="857.9333333333" y="1015.1333333333"/>
			<point x="804.68" y="1019.1333333333" type="curve"/>
			<point x="809.8266666667" y="1015.2533333333" type="line"/>
			<point x="912.5733333333" y="1027.64"/>
			<point x="953.44" y="1078.8933333333"/>
			<point x="953.44" y="1145.88" type="curve" smooth="yes"/>
			<point x="953.44" y="1202.6266666667"/>
			<point x="917.6933333333" y="1236.64"/>
			<point x="809.92" y="1236.64" type="curve" smooth="yes"/>
			<point x="681.5066666667" y="1236.64" type="line"/>
			<point x="667.3866666667" y="1183.56" type="line"/>
			<point x="786.7333333333" y="1183.56" type="line" smooth="yes"/>
			<point x="849.7733333333" y="1183.56"/>
			<point x="869.7866666667" y="1168.8"/>
			<point x="869.7866666667" y="1131.52" type="curve" smooth="yes"/>
			<point x="869.7866666667" y="1073.88"/>
			<point x="833.8933333333" y="1038.8666666667"/>
			<point x="748.08" y="1038.8666666667" type="curve" smooth="yes"/>
			<point x="622.8666666667" y="1038.8666666667" type="line"/>
			<point x="610.6133333333" y="991.3866666667" type="line"/>
			<point x="747.64" y="991.3866666667" type="line" smooth="yes"/>
			<point x="792.52" y="991.3866666667"/>
			<point x="796.7733333333" y="986.64"/>
			<point x="800.9066666667" y="946.0133333333" type="curve" smooth="yes"/>
			<point x="811.9333333333" y="851.5733333333" type="line" smooth="yes"/>
			<point x="816.8112280702" y="797.7789473684"/>
			<point x="838.1866666667" y="790.1066666667"/>
			<point x="920.2266666667" y="797.72" type="curve"/>
		</contour>
		<contour>
			<point x="723.68" y="1236.64" type="line"/>
			<point x="579.1333333333" y="1236.64" type="line"/>
			<point x="567.76" y="1199.2666666667" type="line"/>
			<point x="630.16" y="1192.4" type="line"/>
			<point x="523.0133333333" y="841.96" type="line"/>
			<point x="456.12" y="834.72" type="line"/>
			<point x="445.12" y="797.72" type="line"/>
			<point x="657.84" y="797.72" type="line"/>
			<point x="668.84" y="834.72" type="line"/>
			<point x="603.4133333333" y="841.96" type="line"/>
		</contour>
		<contour>
			<point x="689.5733333333" y="644.5733333333" type="curve" smooth="yes"/>
			<point x="455.2266666667" y="644.5733333333"/>
			<point x="349.3333333333" y="740.8266666667"/>
			<point x="349.3333333333" y="929.1466666667" type="curve" smooth="yes"/>
			<point x="349.3333333333" y="1153.1866666667"/>
			<point x="474.64" y="1369.4266666667"/>
			<point x="769.88" y="1369.4266666667" type="curve" smooth="yes"/>
			<point x="1004.2266666667" y="1369.4266666667"/>
			<point x="1110.12" y="1273.1733333333"/>
			<point x="1110.12" y="1084.8533333333" type="curve" smooth="yes"/>
			<point x="1110.12" y="860.8133333333"/>
			<point x="984.8133333333" y="644.5733333333"/>
		</contour>
		<contour>
			<point x="779.7466666667" y="1434" type="curve" smooth="yes"/>
			<point x="441.5066666667" y="1434"/>
			<point x="277.2666666667" y="1189.2533333333"/>
			<point x="277.2666666667" y="924.2666666667" type="curve" smooth="yes"/>
			<point x="277.2666666667" y="703.2533333333"/>
			<point x="406.1066666667" y="580"/>
			<point x="679.7066666667" y="580" type="curve" smooth="yes"/>
			<point x="1017.9466666667" y="580"/>
			<point x="1182.1866666667" y="824.7466666667"/>
			<point x="1182.1866666667" y="1089.36" type="curve" smooth="yes"/>
			<point x="1182.1866666667" y="1310.3733333333"/>
			<point x="1053.3466666667" y="1434"/>
		</contour>
	</outline>
</glyph>
<glyph name="degree" format="2">
	<unicode hex="00B0"/>
	<advance width="820.4133333333"/>
	<outline>
		<contour>
			<point x="631.7733333333" y="1434" type="curve" smooth="yes"/>
			<point x="432.28" y="1434"/>
			<point x="290.7733333333" y="1277.6266666667"/>
			<point x="290.7733333333" y="1091.12" type="curve" smooth="yes"/>
			<point x="290.7733333333" y="947.6266666667"/>
			<point x="394.2666666667" y="846"/>
			<point x="555.8933333333" y="846" type="curve" smooth="yes"/>
			<point x="755.3866666667" y="846"/>
			<point x="896.8933333333" y="1002.3733333333"/>
			<point x="896.8933333333" y="1188.88" type="curve" smooth="yes"/>
			<point x="896.8933333333" y="1332.3733333333"/>
			<point x="793.4" y="1434"/>
		</contour>
		<contour>
			<point x="565.0133333333" y="915.4533333333" type="curve" smooth="yes"/>
			<point x="445.24" y="915.4533333333"/>
			<point x="367.3466666667" y="987.0933333333"/>
			<point x="367.3466666667" y="1098.6133333333" type="curve" smooth="yes"/>
			<point x="367.3466666667" y="1244.1466666667"/>
			<point x="470.3733333333" y="1364.5466666667"/>
			<point x="622.28" y="1364.5466666667" type="curve" smooth="yes"/>
			<point x="742.4266666667" y="1364.5466666667"/>
			<point x="820.32" y="1292.9066666667"/>
			<point x="820.32" y="1181.3866666667" type="curve" smooth="yes"/>
			<point x="820.32" y="1035.8533333333"/>
			<point x="717.2933333333" y="915.4533333333"/>
		</contour>
	</outline>
</glyph>
<glyph name="plusminus" format="2">
	<unicode hex="00B1"/>
	<advance width="1200"/>
	<outline>
		<contour>
			<point x="712.2933333333" y="1026.24" type="line"/>
			<point x="456.9333333333" y="193.4133333333" type="line"/>
			<point x="545.0933333333" y="193.4133333333" type="line"/>
			<point x="800.4533333333" y="1026.24" type="line"/>
		</contour>
		<contour>
			<point x="228.2533333333" y="653.84" type="line"/>
			<point x="201.5333333333" y="565.8133333333" type="line"/>
			<point x="1029.1333333333" y="565.8133333333" type="line"/>
			<point x="1055.8533333333" y="653.84" type="line"/>
		</contour>
		<contour>
			<point x="55.7333333333" y="88.0266666667" type="line"/>
			<point x="28.0133333333" y="0" type="line"/>
			<point x="855.6133333333" y="0" type="line"/>
			<point x="883.3333333333" y="88.0266666667" type="line"/>
		</contour>
	</outline>
</glyph>
<glyph name="uni00B2" format="2">
	<unicode hex="00B2"/>
	<advance width="753.8933333333"/>
	<outline>
		<contour>
			<point x="601.2666666667" y="713.1733333333" type="line"/>
			<point x="691.5733333333" y="757.36" type="line"/>
			<point x="267.48" y="757.36" type="line"/>
			<point x="270.1066666667" y="714.3866666667" type="line"/>
			<point x="566.3333333333" y="934.5466666667" type="line" smooth="yes"/>
			<point x="766.5066666667" y="1079.68"/>
			<point x="802.6266666667" y="1155.7733333333"/>
			<point x="802.6266666667" y="1253" type="curve" smooth="yes"/>
			<point x="802.6266666667" y="1364.6133333333"/>
			<point x="716.52" y="1429.4933333333"/>
			<point x="588.8133333333" y="1429.4933333333" type="curve" smooth="yes"/>
			<point x="423.84" y="1429.4933333333"/>
			<point x="333.8666666667" y="1344.3333333333"/>
			<point x="281.4" y="1172.6266666667" type="curve"/>
			<point x="343.2133333333" y="1153.2933333333" type="line"/>
			<point x="384.2" y="1283.84"/>
			<point x="447.48" y="1342.1066666667"/>
			<point x="556.8933333333" y="1342.1066666667" type="curve" smooth="yes"/>
			<point x="645.1733333333" y="1342.1066666667"/>
			<point x="692.9333333333" y="1293.3333333333"/>
			<point x="692.9333333333" y="1223.8133333333" type="curve" smooth="yes"/>
			<point x="692.9333333333" y="1152.4266666667"/>
			<point x="659.0533333333" y="1095.7866666667"/>
			<point x="497.96" y="969.5333333333" type="curve" smooth="yes"/>
			<point x="215.6266666667" y="742.1866666667" type="line"/>
			<point x="190.1466666667" y="662" type="line"/>
			<point x="611.8133333333" y="662" type="line"/>
			<point x="609.0266666667" y="624.7466666667" type="line"/>
			<point x="662.2666666667" y="624.7466666667" type="line"/>
			<point x="785.6" y="877.6666666667" type="line"/>
			<point x="722.92" y="877.6666666667" type="line"/>
		</contour>
	</outline>
</glyph>
<glyph name="uni00B3" format="2">
	<unicode hex="00B3"/>
	<advance width="723.5333333333"/>
	<outline>
		<contour>
			<point x="443.2666666667" y="1017.0533333333" type="line"/>
			<point x="488.7733333333" y="1021.68" type="line" smooth="yes"/>
			<point x="605.4" y="1033.3066666667"/>
			<point x="646.0533333333" y="994.28"/>
			<point x="646.0533333333" y="927.1466666667" type="curve" smooth="yes"/>
			<point x="646.0533333333" y="814.6133333333"/>
			<point x="558.2666666667" y="717.8"/>
			<point x="396.5866666667" y="717.8" type="curve" smooth="yes"/>
			<point x="275.6933333333" y="717.8"/>
			<point x="236.9466666667" y="794.3866666667"/>
			<point x="227.4533333333" y="794.3866666667" type="curve" smooth="yes"/>
			<point x="189.1066666667" y="794.3866666667"/>
			<point x="167.3733333333" y="765.28"/>
			<point x="167.3733333333" y="732.0666666667" type="curve" smooth="yes"/>
			<point x="167.3733333333" y="691.84"/>
			<point x="211.6133333333" y="652"/>
			<point x="360.2" y="652" type="curve" smooth="yes"/>
			<point x="615.8933333333" y="652"/>
			<point x="751.0133333333" y="776.88"/>
			<point x="751.0133333333" y="940.6266666667" type="curve" smooth="yes"/>
			<point x="751.0133333333" y="1031.7466666667"/>
			<point x="692.4" y="1095.12"/>
			<point x="564.1466666667" y="1089.8666666667" type="curve"/>
			<point x="563.52" y="1086.4933333333" type="line"/>
			<point x="697.72" y="1100.36"/>
			<point x="786.8933333333" y="1176.6133333333"/>
			<point x="786.8933333333" y="1284.2533333333" type="curve" smooth="yes"/>
			<point x="786.8933333333" y="1375.24"/>
			<point x="721.52" y="1431.76"/>
			<point x="597.56" y="1431.76" type="curve" smooth="yes"/>
			<point x="442.28" y="1431.76"/>
			<point x="368.04" y="1359.4133333333"/>
			<point x="310.6533333333" y="1231.7866666667" type="curve"/>
			<point x="364.2266666667" y="1205.44" type="line"/>
			<point x="413.9866666667" y="1305.5866666667"/>
			<point x="466.6133333333" y="1347.8666666667"/>
			<point x="560.0133333333" y="1347.8666666667" type="curve" smooth="yes"/>
			<point x="636.9066666667" y="1347.8666666667"/>
			<point x="681.2933333333" y="1313.96"/>
			<point x="681.2933333333" y="1247.3066666667" type="curve" smooth="yes"/>
			<point x="681.2933333333" y="1166.6666666667"/>
			<point x="635.5333333333" y="1101.2666666667"/>
			<point x="455.1333333333" y="1081.0133333333" type="curve"/>
		</contour>
	</outline>
</glyph>
<glyph name="uni00B5" format="2">
	<unicode hex="00B5"/>
	<advance width="1357.36"/>
	<outline>
		<contour>
			<point x="926.76" y="606.2" type="line"/>
			<point x="803.4533333333" y="253.16"/>
			<point x="587.5733333333" y="81.7466666667"/>
			<point x="410.2533333333" y="81.7466666667" type="curve" smooth="yes"/>
			<point x="320.0933333333" y="81.7466666667"/>
			<point x="280.2" y="120.88"/>
			<point x="280.2" y="188.68" type="curve" smooth="yes"/>
			<point x="280.2" y="218.8133333333"/>
			<point x="288.5733333333" y="258.8266666667"/>
			<point x="311.8533333333" y="336.1733333333" type="curve" smooth="yes"/>
			<point x="521.84" y="1024" type="line"/>
			<point x="402.16" y="1024" type="line"/>
			<point x="-49.84" y="-453.12" type="line"/>
			<point x="-23" y="-453.12" type="line"/>
			<point x="93.6133333333" y="-443.5066666667" type="line"/>
			<point x="204.8666666667" y="153.1333333333" type="line"/>
			<point x="195.0133333333" y="153.1333333333" type="line"/>
			<point x="193.2533333333" y="46.8666666667"/>
			<point x="257.1066666667" y="-20"/>
			<point x="387.7333333333" y="-20" type="curve" smooth="yes"/>
			<point x="547.8133333333" y="-20"/>
			<point x="705.9733333333" y="84.3733333333"/>
			<point x="908.7466666667" y="442.3066666667" type="curve"/>
			<point x="925.96" y="442.3066666667" type="line"/>
			<point x="795.3333333333" y="66.1866666667" type="line" smooth="yes"/>
			<point x="773.72" y="4.6"/>
			<point x="790.5733333333" y="-20"/>
			<point x="851.0266666667" y="-20" type="curve" smooth="yes"/>
			<point x="919.5066666667" y="-20"/>
			<point x="1056" y="9.36"/>
			<point x="1251.5866666667" y="145.1466666667" type="curve"/>
			<point x="1226.1333333333" y="192.08" type="line"/>
			<point x="1049.6933333333" y="93.7066666667"/>
			<point x="927.7333333333" y="74.8533333333"/>
			<point x="842.2533333333" y="83.9733333333" type="curve"/>
			<point x="872.4666666667" y="37.1466666667" type="line"/>
			<point x="1192.4933333333" y="1024" type="line"/>
			<point x="1072.8133333333" y="1024" type="line"/>
		</contour>
	</outline>
</glyph>
<glyph name="paragraph" format="2">
	<unicode hex="00B6"/>
	<advance width="1308.8266666667"/>
	<outline>
		<contour>
			<point x="501.48" y="-222.6266666667" type="line"/>
			<point x="975.88" y="1329.96" type="line"/>
			<point x="1205.6266666667" y="1329.96" type="line"/>
			<point x="1231.2266666667" y="1414" type="line"/>
			<point x="913.8266666667" y="1414" type="line"/>
			<point x="412.8266666667" y="-222.6266666667" type="line"/>
		</contour>
		<contour>
			<point x="781.2933333333" y="-222.6266666667" type="line"/>
			<point x="1255.32" y="1328.3333333333" type="line"/>
			<point x="1465.2133333333" y="1348.0666666667" type="line"/>
			<point x="1485.6933333333" y="1414" type="line"/>
			<point x="1193.64" y="1414" type="line"/>
			<point x="693.0133333333" y="-222.6266666667" type="line"/>
		</contour>
		<contour>
			<point x="961.52" y="1414" type="line"/>
			<point x="731.2533333333" y="1414" type="line" smooth="yes"/>
			<point x="336.6804041606" y="1414"/>
			<point x="221.12" y="1159.1491481727"/>
			<point x="221.12" y="952.6266666667" type="curve" smooth="yes"/>
			<point x="221.12" y="804.6266666667"/>
			<point x="311.3733333333" y="737.6266666667"/>
			<point x="496.6266666667" y="737.6266666667" type="curve" smooth="yes"/>
			<point x="754.52" y="737.6266666667" type="line"/>
		</contour>
	</outline>
</glyph>
<glyph name="uni00B9" format="2">
	<unicode hex="00B9"/>
	<advance width="643.4133333333"/>
	<outline>
		<contour>
			<point x="375.2933333333" y="736.1733333333" type="line"/>
			<point x="196.4666666667" y="714.5733333333" type="line"/>
			<point x="181.1066666667" y="662" type="line"/>
			<point x="631.9333333333" y="662" type="line"/>
			<point x="647.2933333333" y="714.5733333333" type="line"/>
			<point x="483.6133333333" y="736.1733333333" type="line"/>
			<point x="692.8933333333" y="1422.7733333333" type="line"/>
			<point x="612.12" y="1422.7733333333" type="line"/>
			<point x="290.16" y="1278" type="line"/>
			<point x="307.1466666667" y="1217.96" type="line"/>
			<point x="591.0266666667" y="1322.9066666667" type="line"/>
			<point x="564.5733333333" y="1355.52" type="line"/>
		</contour>
	</outline>
</glyph>
<glyph name="ordmasculine" format="2">
	<unicode hex="00BA"/>
	<advance width="971.2"/>
	<outline>
		<contour>
			<point x="178.44" y="533.1866666667" type="line"/>
			<point x="797.2133333333" y="533.1866666667" type="line"/>
			<point x="825.4266666667" y="624.44" type="line"/>
			<point x="207.28" y="624.44" type="line"/>
		</contour>
		<contour>
			<point x="754.3466666667" y="1430.24" type="curve" smooth="yes"/>
			<point x="479.0133333333" y="1430.24"/>
			<point x="329.0133333333" y="1200.72"/>
			<point x="329.0133333333" y="988.48" type="curve" smooth="yes"/>
			<point x="329.0133333333" y="850.4933333333"/>
			<point x="418.7466666667" y="768.3733333333"/>
			<point x="581.8266666667" y="768.3733333333" type="curve" smooth="yes"/>
			<point x="857.16" y="768.3733333333"/>
			<point x="1007.5333333333" y="997.8933333333"/>
			<point x="1007.5333333333" y="1210.1333333333" type="curve" smooth="yes"/>
			<point x="1007.5333333333" y="1348.4933333333"/>
			<point x="917.4266666667" y="1430.24"/>
		</contour>
		<contour>
			<point x="592.4266666667" y="844.7733333333" type="curve" smooth="yes"/>
			<point x="494.1333333333" y="844.7733333333"/>
			<point x="431.1066666667" y="894.7198024691"/>
			<point x="431.1066666667" y="1003.9733333333" type="curve" smooth="yes"/>
			<point x="431.1066666667" y="1173.3064094319"/>
			<point x="541.6533333333" y="1354.2133333333"/>
			<point x="744.12" y="1354.2133333333" type="curve" smooth="yes"/>
			<point x="842.4133333333" y="1354.2133333333"/>
			<point x="905.0666666667" y="1303.9011764706"/>
			<point x="905.0666666667" y="1194.64" type="curve" smooth="yes"/>
			<point x="905.0666666667" y="1025.3092473118"/>
			<point x="794.8933333333" y="844.7733333333"/>
		</contour>
	</outline>
</glyph>
<glyph name="guillemotright" format="2">
	<unicode hex="00BB"/>
	<advance width="1058.0933333333"/>
	<outline>
		<contour>
			<point x="454.0533333333" y="514.3866666667" type="line"/>
			<point x="470.04" y="567.2133333333" type="line"/>
			<point x="10.64" y="158.4933333333" type="line"/>
			<point x="56.44" y="96.2133333333" type="line"/>
			<point x="539.88" y="474.44" type="line"/>
			<point x="569.4666666667" y="569.56" type="line"/>
			<point x="307.0266666667" y="947.7866666667" type="line"/>
			<point x="241.3866666667" y="910.0933333333" type="line"/>
		</contour>
		<contour>
			<point x="844.5466666667" y="514.3866666667" type="line"/>
			<point x="860.5333333333" y="567.2133333333" type="line"/>
			<point x="401.1333333333" y="158.4933333333" type="line"/>
			<point x="446.9333333333" y="96.2133333333" type="line"/>
			<point x="930.3733333333" y="474.44" type="line"/>
			<point x="959.96" y="569.56" type="line"/>
			<point x="697.52" y="947.7866666667" type="line"/>
			<point x="631.88" y="910.0933333333" type="line"/>
		</contour>
	</outline>
</glyph>
<glyph name="questiondown" format="2">
	<unicode hex="00BF"/>
	<advance width="1050.8133333333"/>
	<outline>
		<contour>
			<point x="646.96" y="811.2533333333" type="curve" smooth="yes"/>
			<point x="746.0266666667" y="811.2533333333"/>
			<point x="795.6133333333" y="880.4666666667"/>
			<point x="795.6133333333" y="958.04" type="curve" smooth="yes"/>
			<point x="795.6133333333" y="1011.3866666667"/>
			<point x="762.88" y="1039.4933333333"/>
			<point x="705.2933333333" y="1039.4933333333" type="curve" smooth="yes"/>
			<point x="606.2266666667" y="1039.4933333333"/>
			<point x="556.64" y="970.28"/>
			<point x="556.64" y="893.08" type="curve" smooth="yes"/>
			<point x="556.64" y="839.36"/>
			<point x="589.3733333333" y="811.2533333333"/>
		</contour>
		<contour>
			<point x="458.8533333333" y="-410" type="curve" smooth="yes"/>
			<point x="683.84" y="-410"/>
			<point x="751.2933333333" y="-342.7733333333"/>
			<point x="751.2933333333" y="-278.7066666667" type="curve" smooth="yes"/>
			<point x="751.2933333333" y="-239.24"/>
			<point x="720.0666666667" y="-214.2666666667"/>
			<point x="674.8533333333" y="-214.2666666667" type="curve" smooth="yes"/>
			<point x="635.8533333333" y="-214.2666666667"/>
			<point x="590.2533333333" y="-335.8533333333"/>
			<point x="401.0266666667" y="-335.8533333333" type="curve" smooth="yes"/>
			<point x="176.8266666667" y="-335.8533333333"/>
			<point x="77.32" y="-181.0266666667"/>
			<point x="77.32" y="-18.8666666667" type="curve" smooth="yes"/>
			<point x="77.32" y="178.7866666667"/>
			<point x="206.16" y="275.2"/>
			<point x="554.6133333333" y="246.0666666667" type="curve"/>
			<point x="634.6133333333" y="613.44" type="line"/>
			<point x="567.24" y="613.44" type="line"/>
			<point x="464.3866666667" y="292.6133333333" type="line"/>
			<point x="530.5733333333" y="353.92" type="line"/>
			<point x="132.2666666667" y="386.2"/>
			<point x="-24.7466666667" y="239.8266666667"/>
			<point x="-24.7466666667" y="1.6266666667" type="curve" smooth="yes"/>
			<point x="-24.7466666667" y="-214.6533333333"/>
			<point x="136.7066666667" y="-410"/>
		</contour>
	</outline>
</glyph>
<glyph name="AE" format="2">
  <advance width="2173"/>
  <unicode hex="00C6"/>
  <anchor x="1414.4933333333333" y="1414.0" name="UCtop"/>
  <anchor x="978.36" y="0.0" name="bottom"/>
  <outline>
    <contour>
      <point x="182.67999999999998" y="92.98666666666665" type="line"/>
      <point x="1332.5466666666666" y="1334.8" type="line"/>
      <point x="1328.3866666666665" y="1339.1866666666665" type="line"/>
      <point x="947.4133333333333" y="93.61333333333333" type="line"/>
      <point x="741.0" y="66.78666666666666" type="line"/>
      <point x="720.6533333333333" y="0.0" type="line"/>
      <point x="1043.9866666666667" y="0.0" type="line"/>
      <point x="1475.9866666666667" y="1414.0" type="line"/>
      <point x="1030.9733333333334" y="1414.0" type="line"/>
      <point x="1010.0" y="1347.2133333333334" type="line"/>
      <point x="1197.3200000000002" y="1323.64" type="line"/>
      <point x="56.373333333333335" y="93.61333333333332" type="line"/>
      <point x="-127.90666666666667" y="66.78666666666666" type="line"/>
      <point x="-148.25333333333333" y="0.0" type="line"/>
      <point x="342.62666666666667" y="0.0" type="line"/>
      <point x="363.2266666666667" y="66.78666666666666" type="line"/>
    </contour>
    <contour>
      <point x="1735.8133333333333" y="-72.0" type="line"/>
      <point x="1819.8400000000001" y="-72.0" type="line"/>
      <point x="2048.12" y="395.67999999999995" type="line"/>
      <point x="1962.6266666666666" y="395.68" type="line"/>
      <point x="1721.5600000000002" y="53.2" type="line"/>
      <point x="1813.12" y="94.61333333333333" type="line"/>
      <point x="988.6533333333334" y="94.61333333333333" type="line"/>
      <point x="957.5733333333334" y="0.0" type="line"/>
      <point x="1727.2666666666667" y="0.0" type="line"/>
    </contour>
    <contour>
      <point x="518.04" y="511.5466666666667" type="line"/>
      <point x="1105.6" y="511.5466666666667" type="line"/>
      <point x="1136.0533333333333" y="606.1600000000001" type="line"/>
      <point x="548.7466666666667" y="606.1600000000001" type="line"/>
    </contour>
    <contour>
      <point x="1628.8000000000002" y="478.12" type="line"/>
      <point x="1705.1733333333334" y="478.12" type="line"/>
      <point x="1783.1733333333334" y="733.12" type="line"/>
      <point x="1861.1733333333334" y="988.7466666666667" type="line"/>
      <point x="1784.8000000000002" y="988.7466666666667" type="line"/>
      <point x="1697.5066666666667" y="782.4266666666667" type="line"/>
      <point x="1230.0133333333333" y="782.4266666666667" type="line"/>
      <point x="1199.6799999999998" y="687.8133333333333" type="line"/>
      <point x="1668.8" y="687.8133333333333" type="line"/>
    </contour>
    <contour>
      <point x="2093.96" y="1058.2933333333333" type="line"/>
      <point x="2179.96" y="1058.2933333333333" type="line"/>
      <point x="2314.333333333333" y="1484.0" type="line"/>
      <point x="2246.9333333333334" y="1484.0" type="line"/>
      <point x="2171.253333333333" y="1414.0" type="line"/>
      <point x="1396.4666666666667" y="1414.0" type="line"/>
      <point x="1365.3866666666665" y="1319.3866666666665" type="line"/>
      <point x="2180.52" y="1319.3866666666665" type="line"/>
      <point x="2147.8" y="1379.6" type="line"/>
    </contour>
  </outline>
</glyph>
<glyph name="Ccedilla" format="2">
	<unicode hex="00C7"/>
	<advance width="1496.2"/>
	<outline>
		<contour>
			<point x="1189.2" y="149.6" type="line"/>
			<point x="1086.12" y="105.6"/>
			<point x="945.6" y="76.48"/>
			<point x="810.6933333333" y="76.48" type="curve" smooth="yes"/>
			<point x="480.8133333333" y="76.48"/>
			<point x="313.1733333333" y="235.4"/>
			<point x="313.1733333333" y="555.4933333333" type="curve" smooth="yes"/>
			<point x="313.1733333333" y="933.0533333333"/>
			<point x="522.4133333333" y="1334.4"/>
			<point x="1068.8266666667" y="1334.4" type="curve" smooth="yes"/>
			<point x="1212.2666666667" y="1334.4"/>
			<point x="1351.1333333333" y="1312.1333333333"/>
			<point x="1465.8133333333" y="1232.2" type="curve"/>
			<point x="1433.0266666667" y="1321.12" type="line"/>
			<point x="1378.8266666667" y="979.4266666667" type="line"/>
			<point x="1467.3066666667" y="979.4266666667" type="line"/>
			<point x="1617.28" y="1471.4666666667" type="line"/>
			<point x="1547.64" y="1471.4666666667" type="line"/>
			<point x="1453.72" y="1349.6933333333" type="line"/>
			<point x="1510.9733333333" y="1358.3333333333" type="line"/>
			<point x="1418.2266666667" y="1401.48"/>
			<point x="1253.4666666667" y="1434"/>
			<point x="1096.4133333333" y="1434" type="curve" smooth="yes"/>
			<point x="455.6" y="1434"/>
			<point x="180.1466666667" y="987.44"/>
			<point x="180.1466666667" y="534.2266666667" type="curve" smooth="yes"/>
			<point x="180.1466666667" y="185.9866666667"/>
			<point x="385.2933333333" y="-20"/>
			<point x="788.76" y="-20" type="curve" smooth="yes"/>
			<point x="942.0666666667" y="-20"/>
			<point x="1095.3066666667" y="9.3733333333"/>
			<point x="1214.44" y="55.7466666667" type="curve"/>
			<point x="1370.32" y="409.56" type="line"/>
			<point x="1281.72" y="409.56" type="line"/>
			<point x="1054.52" y="56.16" type="line"/>
		</contour>
		<contour>
			<point x="551.0933333333" y="-415.2933333333" type="curve" smooth="yes"/>
			<point x="483.0933333333" y="-415.2933333333"/>
			<point x="460.8666666667" y="-357.5333333333"/>
			<point x="449.6266666667" y="-357.5333333333" type="curve" smooth="yes"/>
			<point x="420.88" y="-357.5333333333"/>
			<point x="403.0133333333" y="-381.0266666667"/>
			<point x="403.0133333333" y="-406.64" type="curve" smooth="yes"/>
			<point x="403.0133333333" y="-440.3733333333"/>
			<point x="430.6266666667" y="-465"/>
			<point x="526.9866666667" y="-465" type="curve"/>
			<point x="686.8933333333" y="-465"/>
			<point x="775.64" y="-373.88"/>
			<point x="775.64" y="-267.9066666667" type="curve" smooth="yes"/>
			<point x="775.64" y="-205.2933333333"/>
			<point x="731.7733333333" y="-157.4266666667"/>
			<point x="598.56" y="-123.2933333333" type="curve"/>
			<point x="606.2133333333" y="-159.8533333333" type="line"/>
			<point x="761.12" y="7.0933333333" type="line"/>
			<point x="690.9333333333" y="7.0933333333" type="line"/>
			<point x="515.6266666667" y="-183" type="line"/>
			<point x="512.76" y="-192.9733333333" type="line"/>
			<point x="644.24" y="-221.9866666667"/>
			<point x="685.4933333333" y="-254.7466666667"/>
			<point x="685.4933333333" y="-301.1333333333" type="curve" smooth="yes"/>
			<point x="685.4933333333" y="-368.0266666667"/>
			<point x="633.6" y="-415.2933333333"/>
		</contour>
	</outline>
</glyph>
<glyph name="multiply" format="2">
	<unicode hex="00D7"/>
	<advance width="1200"/>
	<outline>
		<contour>
			<point x="148.5333333333" y="222.84" type="line"/>
			<point x="193.9866666667" y="153.6666666667" type="line"/>
			<point x="1050.72" y="803.4" type="line"/>
			<point x="1005.2666666667" y="872.5733333333" type="line"/>
		</contour>
		<contour>
			<point x="341.04" y="820.3733333333" type="line"/>
			<point x="785.2933333333" y="153.6666666667" type="line"/>
			<point x="858.5866666667" y="205.12" type="line"/>
			<point x="414.3333333333" y="872.5733333333" type="line"/>
		</contour>
	</outline>
</glyph>
<glyph name="Oslash" format="2">
  <advance width="1630.28"/>
  <unicode hex="00D8"/>
  <guideline x="198.45333333333335" y="707.88" angle="1.394199668856288" identifier="1lh4T5epEW"/>
  <guideline x="1478.3866666666668" y="479.4933333333333" angle="1.394199668856288" identifier="7WIL8gm0mk"/>
  <anchor x="1086.72" y="1414.0" name="UCtop"/>
  <anchor x="651.1066666666667" y="0.0" name="bottom"/>
  <outline>
    <contour>
      <point x="1764.2533333333333" y="1414.0" type="line"/>
      <point x="1624.92" y="1414.0" type="line"/>
      <point x="1425.0266666666666" y="1243.36" type="line"/>
      <point x="1386.3200000000002" y="1206.1466666666668" type="line"/>
      <point x="305.7733333333333" y="275.14666666666665" type="line"/>
      <point x="260.7066666666667" y="238.18666666666667" type="line"/>
      <point x="-17.346666666666664" y="0.0" type="line"/>
      <point x="121.98666666666665" y="0.0" type="line"/>
      <point x="320.6266666666666" y="170.01333333333335" type="line"/>
      <point x="359.96" y="207.22666666666666" type="line"/>
      <point x="1439.88" y="1138.2266666666667" type="line"/>
      <point x="1485.5733333333333" y="1175.1866666666667" type="line"/>
    </contour>
    <contour>
      <point x="307.66666666666663" y="497.5733333333333" type="curve" smooth="yes"/>
      <point x="307.66666666666663" y="896.6933333333333"/>
      <point x="564.2133333333334" y="1334.0266666666666"/>
      <point x="1010.1066666666667" y="1334.0266666666666" type="curve" smooth="yes"/>
      <point x="1289.9066666666665" y="1334.0266666666666"/>
      <point x="1440.4933333333333" y="1189.7866666666669"/>
      <point x="1440.4933333333333" y="916.4266666666666" type="curve" smooth="yes"/>
      <point x="1440.4933333333333" y="517.3066666666667"/>
      <point x="1183.9466666666667" y="79.97333333333333"/>
      <point x="738.0533333333333" y="79.97333333333333" type="curve" smooth="yes"/>
      <point x="458.25333333333333" y="79.97333333333333"/>
      <point x="307.66666666666663" y="224.21333333333337"/>
    </contour>
    <contour>
      <point x="1568.2666666666667" y="919.4266666666667" type="curve" smooth="yes"/>
      <point x="1568.2666666666667" y="1233.0266666666666"/>
      <point x="1378.68" y="1434.0"/>
      <point x="1023.3733333333333" y="1434.0" type="curve" smooth="yes"/>
      <point x="505.53333333333336" y="1434.0"/>
      <point x="179.89333333333332" y="954.76"/>
      <point x="179.89333333333332" y="494.5733333333333" type="curve" smooth="yes"/>
      <point x="179.89333333333332" y="180.97333333333333"/>
      <point x="369.47999999999996" y="-20.0"/>
      <point x="724.7866666666666" y="-20.0" type="curve" smooth="yes"/>
      <point x="1242.6266666666668" y="-20.0"/>
      <point x="1568.2666666666667" y="459.24"/>
    </contour>
  </outline>
</glyph>
<glyph name="Thorn" format="2">
	<unicode hex="00DE"/>
	<advance width="1324.5066666667"/>
	<outline>
		<contour>
			<point x="731.96" y="401.5466666667" type="curve" smooth="yes"/>
			<point x="317.36" y="401.5466666667" type="line"/>
			<point x="286.5333333333" y="306.9333333333" type="line"/>
			<point x="728.04" y="306.9333333333" type="line" smooth="yes"/>
			<point x="1113.3333333333" y="306.9333333333"/>
			<point x="1278.4933333333" y="540.8666666667"/>
			<point x="1278.4933333333" y="811.76" type="curve" smooth="yes"/>
			<point x="1278.4933333333" y="1015.3733333333"/>
			<point x="1154.8933333333" y="1125.9866666667"/>
			<point x="845.0133333333" y="1125.9866666667" type="curve" smooth="yes"/>
			<point x="530.8666666667" y="1125.9866666667" type="line"/>
			<point x="500.4133333333" y="1031.3733333333" type="line"/>
			<point x="800.32" y="1031.3733333333" type="line" smooth="yes"/>
			<point x="1060.6666666667" y="1031.3733333333"/>
			<point x="1150.7066666667" y="952.2266666667"/>
			<point x="1150.7066666667" y="801.8933333333" type="curve" smooth="yes"/>
			<point x="1150.7066666667" y="563.6"/>
			<point x="1016.5466666667" y="401.5466666667"/>
		</contour>
		<contour>
			<point x="552.32" y="1320.3866666667" type="line"/>
			<point x="176.9866666667" y="93.6133333333" type="line"/>
			<point x="-29.4266666667" y="66.7866666667" type="line"/>
			<point x="-49.7733333333" y="0" type="line"/>
			<point x="477.5866666667" y="0" type="line"/>
			<point x="497.56" y="66.7866666667" type="line"/>
			<point x="301.8933333333" y="93.6133333333" type="line"/>
			<point x="677.2266666667" y="1320.3866666667" type="line"/>
			<point x="883.0133333333" y="1347.2133333333" type="line"/>
			<point x="903.6133333333" y="1414" type="line"/>
			<point x="376.6266666667" y="1414" type="line"/>
			<point x="355.6533333333" y="1347.2133333333" type="line"/>
		</contour>
	</outline>
</glyph>
<glyph name="germandbls" format="2">
	<unicode hex="00DF"/>
	<advance width="1393.4266666667"/>
	<outline>
		<contour>
			<point x="146.88" y="944.2266666667" type="line"/>
			<point x="494.2133333333" y="944.2266666667" type="line"/>
			<point x="494.2133333333" y="1024" type="line"/>
			<point x="146.88" y="1024" type="line"/>
		</contour>
		<contour>
			<point x="361.16" y="95.9333333333" type="curve" smooth="yes"/>
			<point x="563.7333333333" y="1050.5733333333" type="line" smooth="yes"/>
			<point x="619.1333333333" y="1310.92"/>
			<point x="751.76" y="1415.32"/>
			<point x="953.8666666667" y="1415.32" type="curve" smooth="yes"/>
			<point x="1109.2666666667" y="1415.32"/>
			<point x="1170.16" y="1352.04"/>
			<point x="1170.16" y="1257.4266666667" type="curve" smooth="yes"/>
			<point x="1170.16" y="1161.3866666667"/>
			<point x="1134.6533333333" y="1102.9066666667"/>
			<point x="992.64" y="1005.7733333333" type="curve" smooth="yes"/>
			<point x="850" y="908.64"/>
			<point x="802.0933333333" y="835.4"/>
			<point x="802.0933333333" y="735.88" type="curve" smooth="yes"/>
			<point x="802.0933333333" y="648.7733333333"/>
			<point x="837.3333333333" y="586.6533333333"/>
			<point x="966.8133333333" y="508.4266666667" type="curve" smooth="yes"/>
			<point x="1096.2933333333" y="430.2"/>
			<point x="1126.68" y="372.4266666667"/>
			<point x="1126.68" y="289.52" type="curve" smooth="yes"/>
			<point x="1126.68" y="133.68"/>
			<point x="1026.5333333333" y="53.4"/>
			<point x="848.0266666667" y="53.4" type="curve" smooth="yes"/>
			<point x="795" y="53.4"/>
			<point x="761.36" y="58.0266666667"/>
			<point x="740.7333333333" y="81.1466666667" type="curve" smooth="yes"/>
			<point x="720.1066666667" y="104.2666666667"/>
			<point x="711.88" y="143.8666666667"/>
			<point x="709.16" y="221.7866666667" type="curve" smooth="yes"/>
			<point x="591.48" y="221.7866666667"/>
			<point x="552.3866666667" y="187.0666666667"/>
			<point x="552.3866666667" y="118.64" type="curve" smooth="yes"/>
			<point x="552.3866666667" y="35.1866666667"/>
			<point x="618.9733333333" y="-20"/>
			<point x="822.44" y="-20" type="curve" smooth="yes"/>
			<point x="1078.0933333333" y="-20"/>
			<point x="1224.28" y="99.2266666667"/>
			<point x="1224.28" y="318.3466666667" type="curve" smooth="yes"/>
			<point x="1224.28" y="416.9466666667"/>
			<point x="1187.2933333333" y="494.4266666667"/>
			<point x="1057.1733333333" y="578.04" type="curve" smooth="yes"/>
			<point x="926.4266666667" y="661.6533333333"/>
			<point x="902.2933333333" y="699.4"/>
			<point x="902.2933333333" y="762.0533333333" type="curve" smooth="yes"/>
			<point x="902.2933333333" y="838.7066666667"/>
			<point x="936.4133333333" y="890.72"/>
			<point x="1081.9466666667" y="985" type="curve" smooth="yes"/>
			<point x="1227.48" y="1079.28"/>
			<point x="1276.72" y="1160.28"/>
			<point x="1276.72" y="1268.6533333333" type="curve" smooth="yes"/>
			<point x="1276.72" y="1398.5066666667"/>
			<point x="1177.36" y="1484"/>
			<point x="963.2666666667" y="1484" type="curve" smooth="yes"/>
			<point x="695.12" y="1484"/>
			<point x="512.9466666667" y="1345.1733333333"/>
			<point x="443.68" y="1008.0266666667" type="curve" smooth="yes"/>
			<point x="241.8666666667" y="29.9066666667" type="line" smooth="yes"/>
			<point x="179.6133333333" y="-271.1733333333"/>
			<point x="66.5866666667" y="-395.48"/>
			<point x="-87.8933333333" y="-395.48" type="curve" smooth="yes"/>
			<point x="-126.64" y="-395.48"/>
			<point x="-150.1333333333" y="-391.36"/>
			<point x="-163.3733333333" y="-370.4933333333" type="curve" smooth="yes"/>
			<point x="-176.6133333333" y="-349.6266666667"/>
			<point x="-179.3466666667" y="-314.1466666667"/>
			<point x="-177.9466666667" y="-251.0533333333" type="curve" smooth="yes"/>
			<point x="-275.64" y="-249.1733333333"/>
			<point x="-315.6133333333" y="-273.3733333333"/>
			<point x="-315.6133333333" y="-339.5733333333" type="curve" smooth="yes"/>
			<point x="-315.6133333333" y="-414.4"/>
			<point x="-258.0133333333" y="-465"/>
			<point x="-130.9066666667" y="-465" type="curve" smooth="yes"/>
			<point x="88.44" y="-465"/>
			<point x="273.1733333333" y="-319.96"/>
		</contour>
	</outline>
</glyph>
<glyph name="ae" format="2">
	<unicode hex="00E6"/>
	<advance width="1840.4"/>
	<outline>
		<contour>
			<point x="1114.4533333333" y="835.24" type="line"/>
			<point x="1169.8" y="1024" type="line"/>
			<point x="1075.88" y="1024" type="line"/>
			<point x="1008.6933333333" y="858.04" type="line"/>
			<point x="958.2666666667" y="709.8666666667" type="line" smooth="yes"/>
			<point x="852.2933333333" y="407.1333333333"/>
			<point x="572.96" y="69.12"/>
			<point x="352.2933333333" y="69.12" type="curve" smooth="yes"/>
			<point x="231.4666666667" y="69.12"/>
			<point x="169.96" y="125.8933333333"/>
			<point x="169.96" y="248.5866666667" type="curve" smooth="yes"/>
			<point x="169.96" y="517.9066666667"/>
			<point x="438.92" y="967.9866666667"/>
			<point x="757.36" y="967.9866666667" type="curve" smooth="yes"/>
			<point x="871.5466666667" y="967.9866666667"/>
			<point x="962.4533333333" y="917.3333333333"/>
			<point x="1023.84" y="802.3333333333" type="curve"/>
			<point x="1028.72" y="833" type="line"/>
			<point x="982.68" y="961.9866666667"/>
			<point x="895.92" y="1044"/>
			<point x="751.0266666667" y="1044" type="curve" smooth="yes"/>
			<point x="349.88" y="1044"/>
			<point x="49.8933333333" y="540.6"/>
			<point x="49.8933333333" y="225.7466666667" type="curve" smooth="yes"/>
			<point x="49.8933333333" y="78.28"/>
			<point x="139.84" y="-20"/>
			<point x="311" y="-20" type="curve" smooth="yes"/>
			<point x="476.1395555556" y="-20"/>
			<point x="648.6266666667" y="85.6933333333"/>
			<point x="897.0133333333" y="471.9333333333" type="curve"/>
			<point x="911.9866666667" y="471.9333333333" type="line"/>
			<point x="844.9733333333" y="123.8"/>
			<point x="969.76" y="-20"/>
			<point x="1214.4" y="-20" type="curve" smooth="yes"/>
			<point x="1405.04" y="-20"/>
			<point x="1564.5066666667" y="54.5866666667"/>
			<point x="1700.2666666667" y="346.52" type="curve"/>
			<point x="1631.1066666667" y="346.52" type="line"/>
			<point x="1516.4266666667" y="138.4933333333"/>
			<point x="1399.68" y="75.36"/>
			<point x="1235.2133333333" y="75.36" type="curve" smooth="yes"/>
			<point x="1074.4133333333" y="75.36"/>
			<point x="996.3733333333" y="159.3066666667"/>
			<point x="996.3733333333" y="355.96" type="curve" smooth="yes"/>
			<point x="996.3733333333" y="735.32"/>
			<point x="1218.2" y="966.9866666667"/>
			<point x="1488.3466666667" y="966.9866666667" type="curve" smooth="yes"/>
			<point x="1655.7733333333" y="966.9866666667"/>
			<point x="1697.4933333333" y="852.96"/>
			<point x="1662.4" y="715.08" type="curve" smooth="yes"/>
			<point x="1582.8133333333" y="646.68"/>
			<point x="1445.7333333333" y="604.28"/>
			<point x="992.2666666667" y="531.0666666667" type="curve"/>
			<point x="990.9066666667" y="465.28" type="line"/>
			<point x="1290.2666666667" y="509.84"/>
			<point x="1526.72" y="553.84"/>
			<point x="1742.2933333333" y="613.6933333333" type="curve"/>
			<point x="1771.6533333333" y="679.3466666667"/>
			<point x="1788.3866666667" y="748.5733333333"/>
			<point x="1788.3866666667" y="808.1733333333" type="curve" smooth="yes"/>
			<point x="1788.3866666667" y="952.68"/>
			<point x="1703.8533333333" y="1044"/>
			<point x="1522.88" y="1044" type="curve" smooth="yes"/>
			<point x="1340.52" y="1044"/>
			<point x="1198.24" y="967.2"/>
			<point x="1090.6" y="835.24" type="curve"/>
		</contour>
	</outline>
	<anchor name="top" x="1095.6933333333" y="1024"/>
	<anchor name="bottom" x="782.32" y="0"/>
</glyph>
